  0
SECTION
  2
HEADER
  9
$ACADVER
  1
AC1024
  9
$ACADMAINTVER
 70
6
  9
$DWGCODEPAGE
  3
ANSI_1252
  9
$LASTSAVEDBY
  1
ezdxf
  9
$INSBASE
 10
0.0
 20
0.0
 30
0.0
  9
$EXTMIN
 10
1e+20
 20
1e+20
 30
1e+20
  9
$EXTMAX
 10
-1e+20
 20
-1e+20
 30
-1e+20
  9
$LIMMIN
 10
0.0
 20
0.0
  9
$LIMMAX
 10
420.0
 20
297.0
  9
$ORTHOMODE
 70
0
  9
$REGENMODE
 70
1
  9
$FILLMODE
 70
1
  9
$QTEXTMODE
 70
0
  9
$MIRRTEXT
 70
1
  9
$LTSCALE
 40
1.0
  9
$ATTMODE
 70
1
  9
$TEXTSIZE
 40
2.5
  9
$TRACEWID
 40
1.0
  9
$TEXTSTYLE
  7
Standard
  9
$CLAYER
  8
0
  9
$CELTYPE
  6
ByLayer
  9
$CECOLOR
 62
256
  9
$CELTSCALE
 40
1.0
  9
$DISPSILH
 70
0
  9
$DIMSCALE
 40
1.0
  9
$DIMASZ
 40
2.5
  9
$DIMEXO
 40
0.625
  9
$DIMDLI
 40
3.75
  9
$DIMRND
 40
0.0
  9
$DIMDLE
 40
0.0
  9
$DIMEXE
 40
1.25
  9
$DIMTP
 40
0.0
  9
$DIMTM
 40
0.0
  9
$DIMTXT
 40
2.5
  9
$DIMCEN
 40
2.5
  9
$DIMTSZ
 40
0.0
  9
$DIMTOL
 70
0
  9
$DIMLIM
 70
0
  9
$DIMTIH
 70
0
  9
$DIMTOH
 70
0
  9
$DIMSE1
 70
0
  9
$DIMSE2
 70
0
  9
$DIMTAD
 70
1
  9
$DIMZIN
 70
8
  9
$DIMBLK
  1

  9
$DIMASO
 70
1
  9
$DIMSHO
 70
1
  9
$DIMPOST
  1

  9
$DIMAPOST
  1

  9
$DIMALT
 70
0
  9
$DIMALTD
 70
3
  9
$DIMALTF
 40
0.03937007874
  9
$DIMLFAC
 40
1.0
  9
$DIMTOFL
 70
1
  9
$DIMTVP
 40
0.0
  9
$DIMTIX
 70
0
  9
$DIMSOXD
 70
0
  9
$DIMSAH
 70
0
  9
$DIMBLK1
  1

  9
$DIMBLK2
  1

  9
$DIMSTYLE
  2
ISO-25
  9
$DIMCLRD
 70
0
  9
$DIMCLRE
 70
0
  9
$DIMCLRT
 70
0
  9
$DIMTFAC
 40
1.0
  9
$DIMGAP
 40
0.625
  9
$DIMJUST
 70
0
  9
$DIMSD1
 70
0
  9
$DIMSD2
 70
0
  9
$DIMTOLJ
 70
0
  9
$DIMTZIN
 70
8
  9
$DIMALTZ
 70
0
  9
$DIMALTTZ
 70
0
  9
$DIMUPT
 70
0
  9
$DIMDEC
 70
2
  9
$DIMTDEC
 70
2
  9
$DIMALTU
 70
2
  9
$DIMALTTD
 70
3
  9
$DIMTXSTY
  7
Standard
  9
$DIMAUNIT
 70
0
  9
$DIMADEC
 70
0
  9
$DIMALTRND
 40
0.0
  9
$DIMAZIN
 70
0
  9
$DIMDSEP
 70
44
  9
$DIMATFIT
 70
3
  9
$DIMFRAC
 70
0
  9
$DIMLDRBLK
  1

  9
$DIMLUNIT
 70
2
  9
$DIMLWD
 70
-2
  9
$DIMLWE
 70
-2
  9
$DIMTMOVE
 70
0
  9
$DIMFXL
 40
1.0
  9
$DIMFXLON
 70
0
  9
$DIMJOGANG
 40
0.785398163397
  9
$DIMTFILL
 70
0
  9
$DIMTFILLCLR
 70
0
  9
$DIMARCSYM
 70
0
  9
$DIMLTYPE
  6

  9
$DIMLTEX1
  6

  9
$DIMLTEX2
  6

  9
$DIMTXTDIRECTION
 70
0
  9
$LUNITS
 70
2
  9
$LUPREC
 70
4
  9
$SKETCHINC
 40
1.0
  9
$FILLETRAD
 40
10.0
  9
$AUNITS
 70
0
  9
$AUPREC
 70
2
  9
$MENU
  1
.
  9
$ELEVATION
 40
0.0
  9
$PELEVATION
 40
0.0
  9
$THICKNESS
 40
0.0
  9
$LIMCHECK
 70
0
  9
$CHAMFERA
 40
0.0
  9
$CHAMFERB
 40
0.0
  9
$CHAMFERC
 40
0.0
  9
$CHAMFERD
 40
0.0
  9
$SKPOLY
 70
0
  9
$TDCREATE
 40
2461112.3007870372
  9
$TDUCREATE
 40
2458532.153996898
  9
$TDUPDATE
 40
2461112.3007870372
  9
$TDUUPDATE
 40
2458532.1544311
  9
$TDINDWG
 40
0.0
  9
$TDUSRTIMER
 40
0.0
  9
$USRTIMER
 70
1
  9
$ANGBASE
 50
0.0
  9
$ANGDIR
 70
0
  9
$PDMODE
 70
0
  9
$PDSIZE
 40
0.0
  9
$PLINEWID
 40
0.0
  9
$SPLFRAME
 70
0
  9
$SPLINETYPE
 70
6
  9
$SPLINESEGS
 70
8
  9
$HANDSEED
  5
158
  9
$SURFTAB1
 70
6
  9
$SURFTAB2
 70
6
  9
$SURFTYPE
 70
6
  9
$SURFU
 70
6
  9
$SURFV
 70
6
  9
$UCSBASE
  2

  9
$UCSNAME
  2

  9
$UCSORG
 10
0.0
 20
0.0
 30
0.0
  9
$UCSXDIR
 10
1.0
 20
0.0
 30
0.0
  9
$UCSYDIR
 10
0.0
 20
1.0
 30
0.0
  9
$UCSORTHOREF
  2

  9
$UCSORTHOVIEW
 70
0
  9
$UCSORGTOP
 10
0.0
 20
0.0
 30
0.0
  9
$UCSORGBOTTOM
 10
0.0
 20
0.0
 30
0.0
  9
$UCSORGLEFT
 10
0.0
 20
0.0
 30
0.0
  9
$UCSORGRIGHT
 10
0.0
 20
0.0
 30
0.0
  9
$UCSORGFRONT
 10
0.0
 20
0.0
 30
0.0
  9
$UCSORGBACK
 10
0.0
 20
0.0
 30
0.0
  9
$PUCSBASE
  2

  9
$PUCSNAME
  2

  9
$PUCSORG
 10
0.0
 20
0.0
 30
0.0
  9
$PUCSXDIR
 10
1.0
 20
0.0
 30
0.0
  9
$PUCSYDIR
 10
0.0
 20
1.0
 30
0.0
  9
$PUCSORTHOREF
  2

  9
$PUCSORTHOVIEW
 70
0
  9
$PUCSORGTOP
 10
0.0
 20
0.0
 30
0.0
  9
$PUCSORGBOTTOM
 10
0.0
 20
0.0
 30
0.0
  9
$PUCSORGLEFT
 10
0.0
 20
0.0
 30
0.0
  9
$PUCSORGRIGHT
 10
0.0
 20
0.0
 30
0.0
  9
$PUCSORGFRONT
 10
0.0
 20
0.0
 30
0.0
  9
$PUCSORGBACK
 10
0.0
 20
0.0
 30
0.0
  9
$USERI1
 70
0
  9
$USERI2
 70
0
  9
$USERI3
 70
0
  9
$USERI4
 70
0
  9
$USERI5
 70
0
  9
$USERR1
 40
0.0
  9
$USERR2
 40
0.0
  9
$USERR3
 40
0.0
  9
$USERR4
 40
0.0
  9
$USERR5
 40
0.0
  9
$WORLDVIEW
 70
1
  9
$SHADEDGE
 70
3
  9
$SHADEDIF
 70
70
  9
$TILEMODE
 70
1
  9
$MAXACTVP
 70
64
  9
$PINSBASE
 10
0.0
 20
0.0
 30
0.0
  9
$PLIMCHECK
 70
0
  9
$PEXTMIN
 10
1e+20
 20
1e+20
 30
1e+20
  9
$PEXTMAX
 10
-1e+20
 20
-1e+20
 30
-1e+20
  9
$PLIMMIN
 10
0.0
 20
0.0
  9
$PLIMMAX
 10
420.0
 20
297.0
  9
$UNITMODE
 70
0
  9
$VISRETAIN
 70
1
  9
$PLINEGEN
 70
0
  9
$PSLTSCALE
 70
1
  9
$TREEDEPTH
 70
3020
  9
$CMLSTYLE
  2
Standard
  9
$CMLJUST
 70
0
  9
$CMLSCALE
 40
20.0
  9
$PROXYGRAPHICS
 70
1
  9
$MEASUREMENT
 70
1
  9
$CELWEIGHT
370
-1
  9
$ENDCAPS
280
0
  9
$JOINSTYLE
280
0
  9
$LWDISPLAY
290
0
  9
$INSUNITS
 70
6
  9
$HYPERLINKBASE
  1

  9
$STYLESHEET
  1

  9
$XEDIT
290
1
  9
$CEPSNTYPE
380
0
  9
$PSTYLEMODE
290
1
  9
$FINGERPRINTGUID
  2
{9FD79CDE-F077-4C51-9BB4-00D3233EFAD5}
  9
$VERSIONGUID
  2
{174F8B4E-F737-4071-81A7-4DAEE1454800}
  9
$EXTNAMES
290
1
  9
$PSVPSCALE
 40
0.0
  9
$OLESTARTUP
290
0
  9
$SORTENTS
280
127
  9
$INDEXCTL
280
0
  9
$HIDETEXT
280
1
  9
$XCLIPFRAME
280
1
  9
$HALOGAP
280
0
  9
$OBSCOLOR
 70
257
  9
$OBSLTYPE
280
0
  9
$INTERSECTIONDISPLAY
280
0
  9
$INTERSECTIONCOLOR
 70
257
  9
$DIMASSOC
280
2
  9
$PROJECTNAME
  1

  9
$CAMERADISPLAY
290
0
  9
$LENSLENGTH
 40
50.0
  9
$CAMERAHEIGHT
 40
0.0
  9
$STEPSPERSEC
 40
24.0
  9
$STEPSIZE
 40
100.0
  9
$3DDWFPREC
 40
2.0
  9
$PSOLWIDTH
 40
0.005
  9
$PSOLHEIGHT
 40
0.08
  9
$LOFTANG1
 40
1.570796326795
  9
$LOFTANG2
 40
1.570796326795
  9
$LOFTMAG1
 40
0.0
  9
$LOFTMAG2
 40
0.0
  9
$LOFTPARAM
 70
7
  9
$LOFTNORMALS
280
1
  9
$LATITUDE
 40
37.795
  9
$LONGITUDE
 40
-122.394
  9
$NORTHDIRECTION
 40
0.0
  9
$TIMEZONE
 70
-8000
  9
$LIGHTGLYPHDISPLAY
280
1
  9
$TILEMODELIGHTSYNCH
280
1
  9
$CMATERIAL
347
20
  9
$SOLIDHIST
280
0
  9
$SHOWHIST
280
1
  9
$DWFFRAME
280
2
  9
$DGNFRAME
280
2
  9
$REALWORLDSCALE
290
1
  9
$INTERFERECOLOR
 62
256
  9
$CSHADOW
280
0
  9
$SHADOWPLANELOCATION
 40
0.0
  0
ENDSEC
  0
SECTION
  2
CLASSES
  0
CLASS
  1
ACDBDICTIONARYWDFLT
  2
AcDbDictionaryWithDefault
  3
ObjectDBX Classes
 90
0
 91
0
280
0
281
0
  0
CLASS
  1
SUN
  2
AcDbSun
  3
SCENEOE
 90
1153
 91
0
280
0
281
0
  0
CLASS
  1
VISUALSTYLE
  2
AcDbVisualStyle
  3
ObjectDBX Classes
 90
4095
 91
0
280
0
281
0
  0
CLASS
  1
MATERIAL
  2
AcDbMaterial
  3
ObjectDBX Classes
 90
1153
 91
0
280
0
281
0
  0
CLASS
  1
SCALE
  2
AcDbScale
  3
ObjectDBX Classes
 90
1153
 91
0
280
0
281
0
  0
CLASS
  1
TABLESTYLE
  2
AcDbTableStyle
  3
ObjectDBX Classes
 90
4095
 91
0
280
0
281
0
  0
CLASS
  1
MLEADERSTYLE
  2
AcDbMLeaderStyle
  3
ACDB_MLEADERSTYLE_CLASS
 90
4095
 91
0
280
0
281
0
  0
CLASS
  1
DICTIONARYVAR
  2
AcDbDictionaryVar
  3
ObjectDBX Classes
 90
0
 91
0
280
0
281
0
  0
CLASS
  1
CELLSTYLEMAP
  2
AcDbCellStyleMap
  3
ObjectDBX Classes
 90
1152
 91
0
280
0
281
0
  0
CLASS
  1
MENTALRAYRENDERSETTINGS
  2
AcDbMentalRayRenderSettings
  3
SCENEOE
 90
1024
 91
0
280
0
281
0
  0
CLASS
  1
ACDBDETAILVIEWSTYLE
  2
AcDbDetailViewStyle
  3
ObjectDBX Classes
 90
1025
 91
0
280
0
281
0
  0
CLASS
  1
ACDBSECTIONVIEWSTYLE
  2
AcDbSectionViewStyle
  3
ObjectDBX Classes
 90
1025
 91
0
280
0
281
0
  0
CLASS
  1
RASTERVARIABLES
  2
AcDbRasterVariables
  3
ISM
 90
0
 91
0
280
0
281
0
  0
CLASS
  1
LAYOUT
  2
AcDbLayout
  3
ObjectDBX Classes
 90
0
 91
0
280
0
281
0
  0
CLASS
  1
ACDBPLACEHOLDER
  2
AcDbPlaceHolder
  3
ObjectDBX Classes
 90
0
 91
0
280
0
281
0
  0
ENDSEC
  0
SECTION
  2
TABLES
  0
TABLE
  2
VPORT
  5
8
330
0
100
AcDbSymbolTable
 70
1
  0
VPORT
  5
23
330
8
100
AcDbSymbolTableRecord
100
AcDbViewportTableRecord
  2
*Active
 70
0
 10
0.0
 20
0.0
 11
1.0
 21
1.0
 12
0.0
 22
0.0
 13
0.0
 23
0.0
 14
0.5
 24
0.5
 15
0.5
 25
0.5
 16
0.0
 26
0.0
 36
1.0
 17
0.0
 27
0.0
 37
0.0
 40
1000.0
 41
1.34
 42
50.0
 43
0.0
 44
0.0
 50
0.0
 51
0.0
 71
0
 72
1000
 73
1
 74
3
 75
0
 76
0
 77
0
 78
0
281
0
 65
0
146
0.0
  0
ENDTAB
  0
TABLE
  2
LTYPE
  5
2
330
0
100
AcDbSymbolTable
 70
3
  0
LTYPE
  5
24
330
2
100
AcDbSymbolTableRecord
100
AcDbLinetypeTableRecord
  2
ByBlock
 70
0
  3

 72
65
 73
0
 40
0.0
  0
LTYPE
  5
25
330
2
100
AcDbSymbolTableRecord
100
AcDbLinetypeTableRecord
  2
ByLayer
 70
0
  3

 72
65
 73
0
 40
0.0
  0
LTYPE
  5
26
330
2
100
AcDbSymbolTableRecord
100
AcDbLinetypeTableRecord
  2
Continuous
 70
0
  3

 72
65
 73
0
 40
0.0
  0
ENDTAB
  0
TABLE
  2
LAYER
  5
1
330
0
100
AcDbSymbolTable
 70
7
  0
LAYER
  5
27
330
1
100
AcDbSymbolTableRecord
100
AcDbLayerTableRecord
  2
0
 70
0
 62
7
  6
Continuous
370
-3
390
13
347
21
  0
LAYER
  5
28
330
1
100
AcDbSymbolTableRecord
100
AcDbLayerTableRecord
  2
Defpoints
 70
0
 62
7
  6
Continuous
290
0
370
-3
390
13
347
21
  0
LAYER
  5
2F
330
1
100
AcDbSymbolTableRecord
100
AcDbLayerTableRecord
  2
HATCH_MAT_TARMAC
 70
0
 62
7
  6
Continuous
370
-3
390
13
347
21
  0
LAYER
  5
32
330
1
100
AcDbSymbolTableRecord
100
AcDbLayerTableRecord
  2
HATCH_MAT_BUILDING
 70
0
 62
7
  6
Continuous
370
-3
390
13
347
21
  0
LAYER
  5
40
330
1
100
AcDbSymbolTableRecord
100
AcDbLayerTableRecord
  2
HATCH_MAT_PAVING
 70
0
 62
7
  6
Continuous
370
-3
390
13
347
21
  0
LAYER
  5
4D
330
1
100
AcDbSymbolTableRecord
100
AcDbLayerTableRecord
  2
HATCH_MAT_PLANTING
 70
0
 62
7
  6
Continuous
370
-3
390
13
347
21
  0
LAYER
  5
58
330
1
100
AcDbSymbolTableRecord
100
AcDbLayerTableRecord
  2
HATCH_MAT_GRASS
 70
0
 62
7
  6
Continuous
370
-3
390
13
347
21
  0
ENDTAB
  0
TABLE
  2
STYLE
  5
5
330
0
100
AcDbSymbolTable
 70
1
  0
STYLE
  5
29
330
5
100
AcDbSymbolTableRecord
100
AcDbTextStyleTableRecord
  2
Standard
 70
0
 40
0.0
 41
1.0
 50
0.0
 71
0
 42
2.5
  3
txt
  4

  0
ENDTAB
  0
TABLE
  2
VIEW
  5
7
330
0
100
AcDbSymbolTable
 70
0
  0
ENDTAB
  0
TABLE
  2
UCS
  5
6
330
0
100
AcDbSymbolTable
 70
0
  0
ENDTAB
  0
TABLE
  2
APPID
  5
3
330
0
100
AcDbSymbolTable
 70
3
  0
APPID
  5
2A
330
3
100
AcDbSymbolTableRecord
100
AcDbRegAppTableRecord
  2
ACAD
 70
0
  0
APPID
  5
155
330
3
100
AcDbSymbolTableRecord
100
AcDbRegAppTableRecord
  2
HATCHBACKGROUNDCOLOR
 70
0
  0
APPID
  5
156
330
3
100
AcDbSymbolTableRecord
100
AcDbRegAppTableRecord
  2
EZDXF
 70
0
  0
ENDTAB
  0
TABLE
  2
DIMSTYLE
  5
4
330
0
100
AcDbSymbolTable
 70
1
100
AcDbDimStyleTable
  0
DIMSTYLE
105
2B
330
4
100
AcDbSymbolTableRecord
100
AcDbDimStyleTableRecord
  2
Standard
 70
0
 40
1.0
 41
2.5
 42
0.625
 43
3.75
 44
1.25
 45
0.0
 46
0.0
 47
0.0
 48
0.0
 49
2.5
140
2.5
141
2.5
142
0.0
143
0.03937007874
144
1.0
145
0.0
146
1.0
147
0.625
148
0.0
 69
0
 70
0
 71
0
 72
0
 73
0
 74
0
 75
0
 76
0
 77
1
 78
8
 79
3
170
0
171
3
172
1
173
0
174
0
175
0
176
0
177
0
178
0
179
2
271
2
272
2
273
2
274
3
275
0
276
0
277
2
278
44
279
0
280
0
281
0
282
0
283
0
284
8
285
0
286
0
288
0
289
3
290
0
371
-2
372
-2
  0
ENDTAB
  0
TABLE
  2
BLOCK_RECORD
  5
9
330
0
100
AcDbSymbolTable
 70
2
  0
BLOCK_RECORD
  5
17
330
9
100
AcDbSymbolTableRecord
100
AcDbBlockTableRecord
  2
*Model_Space
340
1A
 70
0
280
1
281
0
  0
BLOCK_RECORD
  5
1B
330
9
100
AcDbSymbolTableRecord
100
AcDbBlockTableRecord
  2
*Paper_Space
340
1E
 70
0
280
1
281
0
  0
ENDTAB
  0
ENDSEC
  0
SECTION
  2
BLOCKS
  0
BLOCK
  5
18
330
17
100
AcDbEntity
  8
0
100
AcDbBlockBegin
  2
*Model_Space
 70
0
 10
0.0
 20
0.0
 30
0.0
  3
*Model_Space
  1

  0
ENDBLK
  5
19
330
17
100
AcDbEntity
  8
0
100
AcDbBlockEnd
  0
BLOCK
  5
1C
330
1B
100
AcDbEntity
  8
0
100
AcDbBlockBegin
  2
*Paper_Space
 70
0
 10
0.0
 20
0.0
 30
0.0
  3
*Paper_Space
  1

  0
ENDBLK
  5
1D
330
1B
100
AcDbEntity
  8
0
100
AcDbBlockEnd
  0
ENDSEC
  0
SECTION
  2
ENTITIES
  0
HATCH
  5
30
330
17
100
AcDbEntity
  8
HATCH_MAT_TARMAC
 62
7
100
AcDbHatch
 10
0.0
 20
0.0
 30
0.0
210
0.0
220
0.0
230
1.0
  2
SOLID
 70
1
 71
0
 91
1
 92
3
 72
0
 73
1
 93
3
 10
585528029.5185218
 20
217905375.6461681
 10
585528604.2832417
 20
217906083.9199616
 10
585527938.0819554
 20
217905460.8773499
 97
0
 75
1
 76
1
 98
0
  0
HATCH
  5
31
330
17
100
AcDbEntity
  8
HATCH_MAT_TARMAC
 62
7
100
AcDbHatch
 10
0.0
 20
0.0
 30
0.0
210
0.0
220
0.0
230
1.0
  2
SOLID
 70
1
 71
0
 91
1
 92
3
 72
0
 73
1
 93
3
 10
585529997.4867055
 20
217907669.7802304
 10
585529422.612273
 20
217906961.6087036
 10
585530088.703849
 20
217907584.75358
 97
0
 75
1
 76
1
 98
0
  0
HATCH
  5
33
330
17
100
AcDbEntity
  8
HATCH_MAT_BUILDING
 62
7
100
AcDbHatch
 10
0.0
 20
0.0
 30
0.0
210
0.0
220
0.0
230
1.0
  2
SOLID
 70
1
 71
0
 91
1
 92
3
 72
0
 73
1
 93
4
 10
585583967.564426
 20
218086129.6777908
 10
585583900.38684
 20
218086055.6023431
 10
585583974.4622875
 20
218085988.4247572
 10
585584041.6398736
 20
218086062.5002048
 97
0
 75
1
 76
1
 98
0
  0
HATCH
  5
34
330
17
100
AcDbEntity
  8
HATCH_MAT_BUILDING
 62
7
100
AcDbHatch
 10
0.0
 20
0.0
 30
0.0
210
0.0
220
0.0
230
1.0
  2
SOLID
 70
1
 71
0
 91
1
 92
3
 72
0
 73
1
 93
4
 10
585582892.7230506
 20
218084944.4706284
 10
585582825.5454646
 20
218084870.3951807
 10
585582899.6209123
 20
218084803.2175948
 10
585582966.7984982
 20
218084877.2930424
 97
0
 75
1
 76
1
 98
0
  0
HATCH
  5
35
330
17
100
AcDbEntity
  8
HATCH_MAT_BUILDING
 62
7
100
AcDbHatch
 10
0.0
 20
0.0
 30
0.0
210
0.0
220
0.0
230
1.0
  2
SOLID
 70
1
 71
0
 91
1
 92
3
 72
0
 73
1
 93
4
 10
585577104.6251699
 20
218078562.04507
 10
585577171.8027558
 20
218078636.1205177
 10
585577245.8782033
 20
218078568.9429317
 10
585577178.7006174
 20
218078494.867484
 97
0
 75
1
 76
1
 98
0
  0
HATCH
  5
36
330
17
100
AcDbEntity
  8
HATCH_MAT_BUILDING
 62
7
100
AcDbHatch
 10
0.0
 20
0.0
 30
0.0
210
0.0
220
0.0
230
1.0
  2
SOLID
 70
1
 71
0
 91
1
 92
3
 72
0
 73
1
 93
4
 10
585578179.4665452
 20
218079747.2522324
 10
585578246.6441311
 20
218079821.3276801
 10
585578320.7195787
 20
218079754.1500941
 10
585578253.5419927
 20
218079680.0746465
 97
0
 75
1
 76
1
 98
0
  0
HATCH
  5
37
330
17
100
AcDbEntity
  8
HATCH_MAT_BUILDING
 62
7
100
AcDbHatch
 10
0.0
 20
0.0
 30
0.0
210
0.0
220
0.0
230
1.0
  2
SOLID
 70
1
 71
0
 91
1
 92
3
 72
0
 73
1
 93
3
 10
585467335.0098639
 20
217960701.2004104
 10
585467449.1051332
 20
217960599.2628338
 10
585467299.1969321
 20
217960431.4756731
 97
0
 75
1
 76
1
 98
0
  0
HATCH
  5
38
330
17
100
AcDbEntity
  8
HATCH_MAT_BUILDING
 62
7
100
AcDbHatch
 10
0.0
 20
0.0
 30
0.0
210
0.0
220
0.0
230
1.0
  2
SOLID
 70
1
 71
0
 91
1
 92
3
 72
0
 73
1
 93
3
 10
585234441.5205703
 20
218180741.3672697
 10
585234326.2272158
 20
218180640.7867427
 10
585234622.0522953
 20
218180301.6886411
 97
0
 75
1
 76
1
 98
0
  0
HATCH
  5
39
330
17
100
AcDbEntity
  8
HATCH_MAT_BUILDING
 62
7
100
AcDbHatch
 10
0.0
 20
0.0
 30
0.0
210
0.0
220
0.0
230
1.0
  2
SOLID
 70
1
 71
0
 91
1
 92
3
 72
0
 73
1
 93
3
 10
585279692.1207819
 20
218208231.9973152
 10
585279799.0260484
 20
218208337.2173896
 10
585280114.6864667
 20
218208016.5013919
 97
0
 75
1
 76
1
 98
0
  0
HATCH
  5
3A
330
17
100
AcDbEntity
  8
HATCH_MAT_BUILDING
 62
7
100
AcDbHatch
 10
0.0
 20
0.0
 30
0.0
210
0.0
220
0.0
230
1.0
  2
SOLID
 70
1
 71
0
 91
1
 92
3
 72
0
 73
1
 93
4
 10
585471096.4878418
 20
218059349.3129143
 10
585470046.8316989
 20
218058108.810201
 10
585468821.735037
 20
218059145.4304544
 10
585469871.39118
 20
218060385.9331676
 97
0
 75
1
 76
1
 98
0
  0
HATCH
  5
3B
330
17
100
AcDbEntity
  8
HATCH_MAT_BUILDING
 62
7
100
AcDbHatch
 10
0.0
 20
0.0
 30
0.0
210
0.0
220
0.0
230
1.0
  2
SOLID
 70
1
 71
0
 91
1
 92
3
 72
0
 73
1
 93
4
 10
585474550.3410072
 20
218063431.1393811
 10
585475599.9971493
 20
218064671.642095
 10
585474374.900487
 20
218065708.2623475
 10
585473325.2443446
 20
218064467.7596337
 97
0
 75
1
 76
1
 98
0
  0
HATCH
  5
3C
330
17
100
AcDbEntity
  8
HATCH_MAT_BUILDING
 62
7
100
AcDbHatch
 10
0.0
 20
0.0
 30
0.0
210
0.0
220
0.0
230
1.0
  2
SOLID
 70
1
 71
0
 91
1
 92
3
 72
0
 73
1
 93
4
 10
585510062.2799214
 20
218123359.0566679
 10
585511161.8483131
 20
218124555.5408307
 10
585512343.4730996
 20
218123469.6281987
 10
585511243.904708
 20
218122273.1440359
 97
0
 75
1
 76
1
 98
0
  0
HATCH
  5
3D
330
17
100
AcDbEntity
  8
HATCH_MAT_BUILDING
 62
7
100
AcDbHatch
 10
0.0
 20
0.0
 30
0.0
210
0.0
220
0.0
230
1.0
  2
SOLID
 70
1
 71
0
 91
1
 92
3
 72
0
 73
1
 93
4
 10
585506444.192421
 20
218119422.0715484
 10
585505344.6240298
 20
218118225.587385
 10
585506526.2488168
 20
218117139.6747537
 10
585507625.8172083
 20
218118336.1589172
 97
0
 75
1
 76
1
 98
0
  0
HATCH
  5
3E
330
17
100
AcDbEntity
  8
HATCH_MAT_BUILDING
 62
7
100
AcDbHatch
 10
0.0
 20
0.0
 30
0.0
210
0.0
220
0.0
230
1.0
  2
SOLID
 70
1
 71
0
 91
1
 92
3
 72
0
 73
1
 93
4
 10
585517023.5481908
 20
218135854.8640445
 10
585516293.8694462
 20
218134402.9019479
 10
585517727.7993351
 20
218133682.2852298
 10
585518457.4780796
 20
218135134.2473264
 97
0
 75
1
 76
1
 98
0
  0
HATCH
  5
3F
330
17
100
AcDbEntity
  8
HATCH_MAT_BUILDING
 62
7
100
AcDbHatch
 10
0.0
 20
0.0
 30
0.0
210
0.0
220
0.0
230
1.0
  2
SOLID
 70
1
 71
0
 91
1
 92
3
 72
0
 73
1
 93
4
 10
585519424.528036
 20
218140632.4894771
 10
585520154.2067811
 20
218142084.4515734
 10
585521588.1366696
 20
218141363.8348542
 10
585520858.4579242
 20
218139911.8727581
 97
0
 75
1
 76
1
 98
0
  0
HATCH
  5
41
330
17
100
AcDbEntity
  8
HATCH_MAT_PAVING
 62
7
100
AcDbHatch
 10
0.0
 20
0.0
 30
0.0
210
0.0
220
0.0
230
1.0
  2
SOLID
 70
1
 71
0
 91
1
 92
3
 72
0
 73
1
 93
3
 10
585311824.6591936
 20
218038632.0689212
 10
585322255.1484952
 20
218044565.4400482
 10
585313639.9001635
 20
218039648.0596521
 97
0
 75
1
 76
1
 98
0
  0
HATCH
  5
42
330
17
100
AcDbEntity
  8
HATCH_MAT_PAVING
 62
7
100
AcDbHatch
 10
0.0
 20
0.0
 30
0.0
210
0.0
220
0.0
230
1.0
  2
SOLID
 70
1
 71
0
 91
1
 92
3
 72
0
 73
1
 93
5
 10
585324317.2673995
 20
218012809.1359764
 10
585318290.9965237
 20
218009359.5600621
 10
585324317.2673995
 20
218012809.1359763
 10
585331059.2590086
 20
218011935.8972298
 10
585325696.7208904
 20
218012665.6784924
 97
0
 75
1
 76
1
 98
0
  0
HATCH
  5
43
330
17
100
AcDbEntity
  8
HATCH_MAT_PAVING
 62
7
100
AcDbHatch
 10
0.0
 20
0.0
 30
0.0
210
0.0
220
0.0
230
1.0
  2
SOLID
 70
1
 71
0
 91
1
 92
3
 72
0
 73
1
 93
5
 10
585536927.8667426
 20
218249525.9047837
 10
585540158.5578269
 20
218244469.9543174
 10
585536927.8667426
 20
218249525.9047837
 10
585532232.103197
 20
218250560.2184335
 10
585532901.9384365
 20
218250440.5369844
 97
0
 75
1
 76
1
 98
0
  0
HATCH
  5
44
330
17
100
AcDbEntity
  8
HATCH_MAT_PAVING
 62
7
100
AcDbHatch
 10
0.0
 20
0.0
 30
0.0
210
0.0
220
0.0
230
1.0
  2
SOLID
 70
1
 71
0
 91
1
 92
3
 72
0
 73
1
 93
5
 10
585329703.260291
 20
218279963.0968753
 10
585334308.6536238
 20
218283792.6401498
 10
585329703.260291
 20
218279963.0968753
 10
585329302.008776
 20
218275881.55339
 10
585329295.4208645
 20
218275788.3363234
 97
0
 75
1
 76
1
 98
0
  0
HATCH
  5
45
330
17
100
AcDbEntity
  8
HATCH_MAT_PAVING
 62
7
100
AcDbHatch
 10
0.0
 20
0.0
 30
0.0
210
0.0
220
0.0
230
1.0
  2
SOLID
 70
1
 71
0
 91
1
 92
3
 72
0
 73
1
 93
3
 10
585446496.6569036
 20
218137175.6435959
 10
585446273.4892583
 20
218137650.8500795
 10
585446409.2625393
 20
218137714.6122639
 97
0
 75
1
 76
1
 98
0
  0
HATCH
  5
46
330
17
100
AcDbEntity
  8
HATCH_MAT_PAVING
 62
7
100
AcDbHatch
 10
0.0
 20
0.0
 30
0.0
210
0.0
220
0.0
230
1.0
  2
SOLID
 70
1
 71
0
 91
1
 92
3
 72
0
 73
1
 93
3
 10
585424041.7560608
 20
218107131.8041141
 10
585423986.2633839
 20
218107271.1617936
 10
585423498.5115058
 20
218107076.9374247
 97
0
 75
1
 76
1
 98
0
  0
HATCH
  5
47
330
17
100
AcDbEntity
  8
HATCH_MAT_PAVING
 62
7
100
AcDbHatch
 10
0.0
 20
0.0
 30
0.0
210
0.0
220
0.0
230
1.0
  2
SOLID
 70
1
 71
0
 91
1
 92
3
 72
0
 73
1
 93
3
 10
585417530.5927175
 20
218118077.043173
 10
585417475.1000407
 20
218118216.4008525
 10
585416987.3481627
 20
218118022.1764836
 97
0
 75
1
 76
1
 98
0
  0
HATCH
  5
48
330
17
100
AcDbEntity
  8
HATCH_MAT_PAVING
 62
7
100
AcDbHatch
 10
0.0
 20
0.0
 30
0.0
210
0.0
220
0.0
230
1.0
  2
SOLID
 70
1
 71
0
 91
1
 92
3
 72
0
 73
1
 93
3
 10
585526225.691155
 20
218244464.0536735
 10
585526137.6182786
 20
218244585.4751231
 10
585525712.6432049
 20
218244277.2200556
 97
0
 75
1
 76
1
 98
0
  0
HATCH
  5
49
330
17
100
AcDbEntity
  8
HATCH_MAT_PAVING
 62
7
100
AcDbHatch
 10
0.0
 20
0.0
 30
0.0
210
0.0
220
0.0
230
1.0
  2
SOLID
 70
1
 71
0
 91
1
 92
3
 72
0
 73
1
 93
4
 10
585592553.4545082
 20
218096094.8636362
 10
585592486.2769222
 20
218096020.7881885
 10
585592560.3523699
 20
218095953.6106025
 10
585592627.5299557
 20
218096027.6860502
 97
0
 75
1
 76
1
 98
0
  0
HATCH
  5
4A
330
17
100
AcDbEntity
  8
HATCH_MAT_PAVING
 62
7
100
AcDbHatch
 10
0.0
 20
0.0
 30
0.0
210
0.0
220
0.0
230
1.0
  2
SOLID
 70
1
 71
0
 91
1
 92
3
 72
0
 73
1
 93
4
 10
585591478.6131328
 20
218094909.6564738
 10
585591411.4355468
 20
218094835.5810262
 10
585591485.5109946
 20
218094768.4034402
 10
585591552.6885805
 20
218094842.4788878
 97
0
 75
1
 76
1
 98
0
  0
HATCH
  5
4B
330
17
100
AcDbEntity
  8
HATCH_MAT_PAVING
 62
7
100
AcDbHatch
 10
0.0
 20
0.0
 30
0.0
210
0.0
220
0.0
230
1.0
  2
SOLID
 70
1
 71
0
 91
1
 92
3
 72
0
 73
1
 93
4
 10
585602879.068675
 20
218109933.9114907
 10
585602854.4878507
 20
218109836.9796431
 10
585602951.4196984
 20
218109812.3988188
 10
585602976.0005227
 20
218109909.3306664
 97
0
 75
1
 76
1
 98
0
  0
HATCH
  5
4C
330
17
100
AcDbEntity
  8
HATCH_MAT_PAVING
 62
7
100
AcDbHatch
 10
0.0
 20
0.0
 30
0.0
210
0.0
220
0.0
230
1.0
  2
SOLID
 70
1
 71
0
 91
1
 92
3
 72
0
 73
1
 93
4
 10
585602485.7754858
 20
218108383.0019295
 10
585602461.1946613
 20
218108286.0700819
 10
585602558.126509
 20
218108261.4892575
 10
585602582.7073333
 20
218108358.4211051
 97
0
 75
1
 76
1
 98
0
  0
HATCH
  5
4E
330
17
100
AcDbEntity
  8
HATCH_MAT_PLANTING
 62
7
100
AcDbHatch
 10
0.0
 20
0.0
 30
0.0
210
0.0
220
0.0
230
1.0
  2
SOLID
 70
1
 71
0
 91
1
 92
3
 72
0
 73
1
 93
30
 10
585459435.7147162
 20
217923082.4473797
 10
585459213.038992
 20
217922611.2122135
 10
585459633.255475
 20
217922236.9188714
 10
585459988.4241662
 20
217921920.5646072
 10
585460475.959758
 20
217921486.3090903
 10
585460865.4033103
 20
217921139.4256752
 10
585461191.1132445
 20
217920849.3107827
 10
585461538.3589125
 20
217920540.0136779
 10
585461954.0783392
 20
217920169.7259339
 10
585462270.6042514
 20
217919887.7913923
 10
585462667.5226405
 20
217919534.2500241
 10
585463045.8830762
 20
217919197.238513
 10
585463476.5445799
 20
217918813.641629
 10
585463882.8217077
 20
217918451.764287
 10
585464219.7818788
 20
217918151.628634
 10
585464524.7774016
 20
217918288.1173218
 10
585464502.1153777
 20
217918569.7178831
 10
585464241.9699885
 20
217918801.4338194
 10
585463944.6783352
 20
217919066.2365665
 10
585463673.624554
 20
217919307.6687931
 10
585463292.2714372
 20
217919647.3465197
 10
585462829.0977869
 20
217920059.9031914
 10
585462509.290484
 20
217920344.7610117
 10
585462228.1867014
 20
217920595.1449461
 10
585461803.9672517
 20
217920973.0044466
 10
585461361.273423
 20
217921367.3193917
 10
585461041.3673671
 20
217921652.2651729
 10
585460618.8571013
 20
217922028.6022741
 10
585460170.3444508
 20
217922428.1001431
 10
585459784.2967753
 20
217922771.9593931
 97
0
 75
1
 76
1
 98
0
  0
HATCH
  5
4F
330
17
100
AcDbEntity
  8
HATCH_MAT_PLANTING
 62
7
100
AcDbHatch
 10
0.0
 20
0.0
 30
0.0
210
0.0
220
0.0
230
1.0
  2
SOLID
 70
1
 71
0
 91
1
 92
3
 72
0
 73
1
 93
30
 10
585453725.2967398
 20
217928163.831747
 10
585453502.6210155
 20
217927692.5965808
 10
585453922.8374985
 20
217927318.3032387
 10
585454278.0061898
 20
217927001.9489744
 10
585454765.5417817
 20
217926567.6934575
 10
585455154.985334
 20
217926220.8100425
 10
585455480.6952682
 20
217925930.69515
 10
585455827.9409362
 20
217925621.3980451
 10
585456243.660363
 20
217925251.1103011
 10
585456560.1862749
 20
217924969.1757596
 10
585456957.104664
 20
217924615.6343914
 10
585457335.4650998
 20
217924278.6228802
 10
585457766.1266036
 20
217923895.0259962
 10
585458172.4037313
 20
217923533.1486542
 10
585458509.3639024
 20
217923233.0130012
 10
585458814.3594253
 20
217923369.5016891
 10
585458791.6974014
 20
217923651.1022504
 10
585458531.5520122
 20
217923882.8181866
 10
585458234.2603587
 20
217924147.6209337
 10
585457963.2065777
 20
217924389.0531603
 10
585457581.8534609
 20
217924728.730887
 10
585457118.6798104
 20
217925141.2875586
 10
585456798.8725077
 20
217925426.145379
 10
585456517.768725
 20
217925676.5293133
 10
585456093.5492752
 20
217926054.3888139
 10
585455650.8554465
 20
217926448.703759
 10
585455330.9493906
 20
217926733.6495401
 10
585454908.439125
 20
217927109.9866413
 10
585454459.9264745
 20
217927509.4845104
 10
585454073.878799
 20
217927853.3437603
 97
0
 75
1
 76
1
 98
0
  0
HATCH
  5
50
330
17
100
AcDbEntity
  8
HATCH_MAT_PLANTING
 62
7
100
AcDbHatch
 10
0.0
 20
0.0
 30
0.0
210
0.0
220
0.0
230
1.0
  2
SOLID
 70
1
 71
0
 91
1
 92
3
 72
0
 73
1
 93
30
 10
585447726.0457923
 20
217933639.0766801
 10
585447503.3700682
 20
217933167.841514
 10
585447923.5865512
 20
217932793.5481719
 10
585448278.7552423
 20
217932477.1939076
 10
585448766.2908343
 20
217932042.9383907
 10
585449155.7343864
 20
217931696.0549757
 10
585449481.4443206
 20
217931405.9400832
 10
585449828.6899887
 20
217931096.6429783
 10
585450244.4094152
 20
217930726.3552343
 10
585450560.9353275
 20
217930444.4206927
 10
585450957.8537165
 20
217930090.8793246
 10
585451336.2141523
 20
217929753.8678134
 10
585451766.8756561
 20
217929370.2709294
 10
585452173.1527838
 20
217929008.3935874
 10
585452510.1129549
 20
217928708.2579344
 10
585452815.1084778
 20
217928844.7466223
 10
585452792.4464539
 20
217929126.3471835
 10
585452532.3010647
 20
217929358.0631198
 10
585452235.0094113
 20
217929622.8658669
 10
585451963.9556301
 20
217929864.2980935
 10
585451582.6025132
 20
217930203.9758202
 10
585451119.428863
 20
217930616.5324918
 10
585450799.6215601
 20
217930901.3903122
 10
585450518.5177774
 20
217931151.7742465
 10
585450094.2983277
 20
217931529.6337471
 10
585449651.604499
 20
217931923.9486921
 10
585449331.6984433
 20
217932208.8944733
 10
585448909.1881775
 20
217932585.2315745
 10
585448460.675527
 20
217932984.7294436
 10
585448074.6278516
 20
217933328.5886935
 97
0
 75
1
 76
1
 98
0
  0
HATCH
  5
51
330
17
100
AcDbEntity
  8
HATCH_MAT_PLANTING
 62
7
100
AcDbHatch
 10
0.0
 20
0.0
 30
0.0
210
0.0
220
0.0
230
1.0
  2
SOLID
 70
1
 71
0
 91
1
 92
3
 72
0
 73
1
 93
30
 10
585442015.6278158
 20
217938720.4610474
 10
585441792.9520918
 20
217938249.2258813
 10
585442213.1685748
 20
217937874.9325392
 10
585442568.3372658
 20
217937558.5782749
 10
585443055.8728579
 20
217937124.322758
 10
585443445.3164102
 20
217936777.4393429
 10
585443771.0263443
 20
217936487.3244504
 10
585444118.2720124
 20
217936178.0273456
 10
585444533.991439
 20
217935807.7396016
 10
585444850.5173512
 20
217935525.80506
 10
585445247.4357402
 20
217935172.2636918
 10
585445625.796176
 20
217934835.2521807
 10
585446056.4576797
 20
217934451.6552966
 10
585446462.7348074
 20
217934089.7779546
 10
585446799.6949786
 20
217933789.6423016
 10
585447104.6905015
 20
217933926.1309895
 10
585447082.0284775
 20
217934207.7315508
 10
585446821.8830884
 20
217934439.447487
 10
585446524.591435
 20
217934704.2502342
 10
585446253.5376538
 20
217934945.6824608
 10
585445872.184537
 20
217935285.3601874
 10
585445409.0108865
 20
217935697.916859
 10
585445089.2035837
 20
217935982.7746794
 10
585444808.0998012
 20
217936233.1586137
 10
585444383.8803514
 20
217936611.0181143
 10
585443941.1865227
 20
217937005.3330594
 10
585443621.2804669
 20
217937290.2788406
 10
585443198.770201
 20
217937666.6159418
 10
585442750.2575505
 20
217938066.1138108
 10
585442364.2098752
 20
217938409.9730607
 97
0
 75
1
 76
1
 98
0
  0
HATCH
  5
52
330
17
100
AcDbEntity
  8
HATCH_MAT_PLANTING
 62
7
100
AcDbHatch
 10
0.0
 20
0.0
 30
0.0
210
0.0
220
0.0
230
1.0
  2
SOLID
 70
1
 71
0
 91
1
 92
3
 72
0
 73
1
 93
30
 10
585439733.3216597
 20
217892183.5216167
 10
585439291.034179
 20
217891907.7883323
 10
585439441.8076843
 20
217891365.6216157
 10
585439569.242068
 20
217890907.3800883
 10
585439744.1696428
 20
217890278.357711
 10
585439883.9018329
 20
217889775.8944795
 10
585440000.7664264
 20
217889355.6608794
 10
585440125.3580328
 20
217888907.6417003
 10
585440274.5179963
 20
217888371.2771225
 10
585440388.0873663
 20
217887962.8928219
 10
585440530.501525
 20
217887450.7854953
 10
585440666.2570975
 20
217886962.6217905
 10
585440820.7782722
 20
217886406.9788235
 10
585440966.5503426
 20
217885882.7967762
 10
585441087.4515166
 20
217885448.048029
 10
585441417.7865479
 20
217885397.7469549
 10
585441551.1399556
 20
217885646.8037999
 10
585441457.8001117
 20
217885982.4458297
 10
585441351.1322339
 20
217886366.014319
 10
585441253.878472
 20
217886715.7304583
 10
585441117.0494452
 20
217887207.7558387
 10
585440950.8633119
 20
217887805.3468416
 10
585440836.1168469
 20
217888217.9652339
 10
585440735.2571571
 20
217888580.6479796
 10
585440583.0477426
 20
217889127.9799064
 10
585440424.2097441
 20
217889699.1476506
 10
585440309.4278466
 20
217890111.8934546
 10
585440157.8316853
 20
217890657.0201762
 10
585439996.9059008
 20
217891235.695419
 10
585439858.3924719
 20
217891733.7777631
 97
0
 75
1
 76
1
 98
0
  0
HATCH
  5
53
330
17
100
AcDbEntity
  8
HATCH_MAT_PLANTING
 62
7
100
AcDbHatch
 10
0.0
 20
0.0
 30
0.0
210
0.0
220
0.0
230
1.0
  2
SOLID
 70
1
 71
0
 91
1
 92
3
 72
0
 73
1
 93
30
 10
585444394.5643412
 20
217896156.2388347
 10
585443952.2768604
 20
217895880.5055503
 10
585444103.0503656
 20
217895338.3388337
 10
585444230.4847496
 20
217894880.0973062
 10
585444405.4123241
 20
217894251.0749289
 10
585444545.1445143
 20
217893748.6116975
 10
585444662.0091078
 20
217893328.3780973
 10
585444786.6007141
 20
217892880.3589183
 10
585444935.7606776
 20
217892343.9943404
 10
585445049.3300477
 20
217891935.6100398
 10
585445191.7442064
 20
217891423.5027132
 10
585445327.499779
 20
217890935.3390085
 10
585445482.0209535
 20
217890379.6960414
 10
585445627.793024
 20
217889855.5139941
 10
585445748.694198
 20
217889420.7652469
 10
585446079.0292293
 20
217889370.4641728
 10
585446212.382637
 20
217889619.5210179
 10
585446119.042793
 20
217889955.1630476
 10
585446012.3749152
 20
217890338.7315369
 10
585445915.1211535
 20
217890688.4476762
 10
585445778.2921265
 20
217891180.4730566
 10
585445612.1059932
 20
217891778.0640595
 10
585445497.3595283
 20
217892190.6824518
 10
585445396.4998384
 20
217892553.3651976
 10
585445244.2904239
 20
217893100.6971243
 10
585445085.4524254
 20
217893671.8648686
 10
585444970.670528
 20
217894084.6106725
 10
585444819.0743666
 20
217894629.7373942
 10
585444658.1485822
 20
217895208.4126369
 10
585444519.6351533
 20
217895706.494981
 97
0
 75
1
 76
1
 98
0
  0
HATCH
  5
54
330
17
100
AcDbEntity
  8
HATCH_MAT_TARMAC
 62
7
100
AcDbHatch
 10
0.0
 20
0.0
 30
0.0
210
0.0
220
0.0
230
1.0
  2
SOLID
 70
1
 71
0
 91
1
 92
3
 72
0
 73
1
 93
4
 10
585349285.3570572
 20
217687480.234357
 10
585350190.5871842
 20
217689058.3098993
 10
585350641.994743
 20
217688799.3693663
 10
585349736.7646163
 20
217687221.2938241
 97
0
 75
1
 76
1
 98
0
  0
HATCH
  5
55
330
17
100
AcDbEntity
  8
HATCH_MAT_TARMAC
 62
7
100
AcDbHatch
 10
0.0
 20
0.0
 30
0.0
210
0.0
220
0.0
230
1.0
  2
SOLID
 70
1
 71
0
 91
1
 92
3
 72
0
 73
1
 93
4
 10
585351030.7039878
 20
217690289.5810945
 10
585351648.3331778
 20
217691394.8155418
 10
585352059.6801001
 20
217691164.945882
 10
585351442.05091
 20
217690059.7114347
 97
0
 75
1
 76
1
 98
0
  0
HATCH
  5
56
330
17
100
AcDbEntity
  8
HATCH_MAT_TARMAC
 62
7
100
AcDbHatch
 10
0.0
 20
0.0
 30
0.0
210
0.0
220
0.0
230
1.0
  2
SOLID
 70
1
 71
0
 91
1
 92
3
 72
0
 73
1
 93
4
 10
585881368.8333703
 20
218289979.0246128
 10
585880372.1411713
 20
218288987.1049281
 10
585880095.9808586
 20
218289264.5939563
 10
585881092.6730574
 20
218290256.5136409
 97
0
 75
1
 76
1
 98
0
  0
HATCH
  5
57
330
17
100
AcDbEntity
  8
HATCH_MAT_TARMAC
 62
7
100
AcDbHatch
 10
0.0
 20
0.0
 30
0.0
210
0.0
220
0.0
230
1.0
  2
SOLID
 70
1
 71
0
 91
1
 92
3
 72
0
 73
1
 93
4
 10
585505801.6774102
 20
217884169.9840749
 10
585506159.0183047
 20
217884572.7799106
 10
585506009.407435
 20
217884705.5074048
 10
585505652.0665408
 20
217884302.7115691
 97
0
 75
1
 76
1
 98
0
  0
HATCH
  5
59
330
17
100
AcDbEntity
  8
HATCH_MAT_GRASS
 62
7
100
AcDbHatch
 10
0.0
 20
0.0
 30
0.0
210
0.0
220
0.0
230
1.0
  2
SOLID
 70
1
 71
0
 91
1
 92
3
 72
0
 73
1
 93
4
 10
585152461.7266282
 20
218114318.8024764
 10
585153247.1895088
 20
218113418.682737
 10
585155890.9753324
 20
218115718.8417377
 10
585155104.5517645
 20
218116619.6406163
 97
0
 75
1
 76
1
 98
0
  0
HATCH
  5
5A
330
17
100
AcDbEntity
  8
HATCH_MAT_GRASS
 62
7
100
AcDbHatch
 10
0.0
 20
0.0
 30
0.0
210
0.0
220
0.0
230
1.0
  2
SOLID
 70
1
 71
0
 91
1
 92
3
 72
0
 73
1
 93
4
 10
585459664.7739483
 20
218258014.2682692
 10
585460330.1126873
 20
218256823.8320364
 10
585462075.9403462
 20
218257799.5808706
 10
585461410.6016102
 20
218258990.0171052
 97
0
 75
1
 76
1
 98
0
  0
HATCH
  5
5B
330
17
100
AcDbEntity
  8
HATCH_MAT_GRASS
 62
7
100
AcDbHatch
 10
0.0
 20
0.0
 30
0.0
210
0.0
220
0.0
230
1.0
  2
SOLID
 70
1
 71
0
 91
1
 92
3
 72
0
 73
1
 93
4
 10
585409272.529204
 20
218251744.7087298
 10
585408509.7919363
 20
218252852.6400899
 10
585409793.9696083
 20
218253383.6135764
 10
585410391.7855214
 20
218252515.2424795
 97
0
 75
1
 76
1
 98
0
  0
HATCH
  5
5C
330
17
100
AcDbEntity
  8
HATCH_MAT_GRASS
 62
7
100
AcDbHatch
 10
0.0
 20
0.0
 30
0.0
210
0.0
220
0.0
230
1.0
  2
SOLID
 70
1
 71
0
 91
1
 92
3
 72
0
 73
1
 93
4
 10
585370181.5429999
 20
218152224.1052904
 10
585370603.9260223
 20
218151194.1019393
 10
585371866.1410539
 20
218151573.6475152
 10
585371432.383516
 20
218152662.9343786
 97
0
 75
1
 76
1
 98
0
  0
HATCH
  5
5D
330
17
100
AcDbEntity
  8
HATCH_MAT_GRASS
 62
7
100
AcDbHatch
 10
0.0
 20
0.0
 30
0.0
210
0.0
220
0.0
230
1.0
  2
SOLID
 70
1
 71
0
 91
1
 92
3
 72
0
 73
1
 93
4
 10
585378895.4710335
 20
218157817.1235644
 10
585379256.9642214
 20
218156649.2462212
 10
585380583.6391851
 20
218157217.9019906
 10
585380057.249553
 20
218158279.747514
 97
0
 75
1
 76
1
 98
0
  0
HATCH
  5
5E
330
17
100
AcDbEntity
  8
HATCH_MAT_GRASS
 62
7
100
AcDbHatch
 10
0.0
 20
0.0
 30
0.0
210
0.0
220
0.0
230
1.0
  2
SOLID
 70
1
 71
0
 91
1
 92
3
 72
0
 73
1
 93
6
 10
585446142.0762053
 20
218164844.899064
 10
585448560.8593853
 20
218162385.74626
 10
585448599.4832433
 20
218162346.4777582
 10
585448171.9008579
 20
218161925.9146046
 10
585447886.5841624
 20
218161645.2817086
 10
585445429.1770993
 20
218164143.703031
 97
0
 75
1
 76
1
 98
0
  0
HATCH
  5
5F
330
17
100
AcDbEntity
  8
HATCH_MAT_GRASS
 62
7
100
AcDbHatch
 10
0.0
 20
0.0
 30
0.0
210
0.0
220
0.0
230
1.0
  2
SOLID
 70
1
 71
0
 91
1
 92
3
 72
0
 73
1
 93
4
 10
585282403.250475
 20
217903191.3186929
 10
585282946.8834567
 20
217902730.2911328
 10
585284351.6774493
 20
217904986.8663602
 10
585283733.918559
 20
217905328.8225905
 97
0
 75
1
 76
1
 98
0
  0
HATCH
  5
60
330
17
100
AcDbEntity
  8
HATCH_MAT_GRASS
 62
7
100
AcDbHatch
 10
0.0
 20
0.0
 30
0.0
210
0.0
220
0.0
230
1.0
  2
SOLID
 70
1
 71
0
 91
1
 92
3
 72
0
 73
1
 93
8
 10
585534224.1102693
 20
218230043.2541655
 10
585535923.2693007
 20
218229295.8113478
 10
585543251.1454282
 20
218233878.8736219
 10
585543270.1400406
 20
218234214.5616842
 10
585539840.4573165
 20
218232023.0359815
 10
585539389.419663
 20
218232529.1051954
 10
585538058.5624022
 20
218232737.7141568
 10
585536948.9801266
 20
218232031.0683402
 97
0
 75
1
 76
1
 98
0
  0
HATCH
  5
61
330
17
100
AcDbEntity
  8
HATCH_MAT_GRASS
 62
7
100
AcDbHatch
 10
0.0
 20
0.0
 30
0.0
210
0.0
220
0.0
230
1.0
  2
SOLID
 70
1
 71
0
 91
1
 92
3
 72
0
 73
1
 93
4
 10
585552645.6606143
 20
218205618.2497882
 10
585553413.5690311
 20
218205253.3283253
 10
585555313.8940535
 20
218209284.546544
 10
585554658.6487005
 20
218209575.6451075
 97
0
 75
1
 76
1
 98
0
  0
HATCH
  5
62
330
17
100
AcDbEntity
  8
HATCH_MAT_GRASS
 62
7
100
AcDbHatch
 10
0.0
 20
0.0
 30
0.0
210
0.0
220
0.0
230
1.0
  2
SOLID
 70
1
 71
0
 91
1
 92
3
 72
0
 73
1
 93
4
 10
585560033.9117937
 20
218228679.1538217
 10
585560398.7051309
 20
218229590.8384821
 10
585556495.5490065
 20
218231560.0346468
 10
585556039.5573348
 20
218230630.1162932
 97
0
 75
1
 76
1
 98
0
  0
HATCH
  5
63
330
17
100
AcDbEntity
  8
HATCH_MAT_GRASS
 62
7
100
AcDbHatch
 10
0.0
 20
0.0
 30
0.0
210
0.0
220
0.0
230
1.0
  2
SOLID
 70
1
 71
0
 91
1
 92
3
 72
0
 73
1
 93
4
 10
585560102.7055564
 20
218217019.1983534
 10
585561452.4030231
 20
218216435.7201707
 10
585562856.8384306
 20
218219243.666223
 10
585561725.9980259
 20
218219845.3353971
 97
0
 75
1
 76
1
 98
0
  0
HATCH
  5
64
330
17
100
AcDbEntity
  8
HATCH_MAT_GRASS
 62
7
100
AcDbHatch
 10
0.0
 20
0.0
 30
0.0
210
0.0
220
0.0
230
1.0
  2
SOLID
 70
1
 71
0
 91
1
 92
3
 72
0
 73
1
 93
4
 10
585548746.6263634
 20
218197452.9507071
 10
585549274.497096
 20
218197216.4251178
 10
585552678.0984817
 20
218204039.6695452
 10
585552022.8531286
 20
218204330.7681087
 97
0
 75
1
 76
1
 98
0
  0
HATCH
  5
65
330
17
100
AcDbEntity
  8
HATCH_MAT_GRASS
 62
7
100
AcDbHatch
 10
0.0
 20
0.0
 30
0.0
210
0.0
220
0.0
230
1.0
  2
SOLID
 70
1
 71
0
 91
1
 92
3
 72
0
 73
1
 93
10
 10
585622736.0793868
 20
218193226.3932045
 10
585625403.627112
 20
218192155.1547551
 10
585626258.6103572
 20
218192212.1317421
 10
585627022.4079032
 20
218192576.8115422
 10
585627364.4012012
 20
218192987.0763174
 10
585627900.1781881
 20
218194126.6668385
 10
585627079.3942726
 20
218194320.3987506
 10
585625871.0054392
 20
218194468.5626148
 10
585624229.4376082
 20
218194297.6147267
 10
585623112.2720147
 20
218193522.6870785
 97
0
 75
1
 76
1
 98
0
  0
HATCH
  5
66
330
17
100
AcDbEntity
  8
HATCH_MAT_GRASS
 62
7
100
AcDbHatch
 10
0.0
 20
0.0
 30
0.0
210
0.0
220
0.0
230
1.0
  2
SOLID
 70
1
 71
0
 91
1
 92
3
 72
0
 73
1
 93
4
 10
585542881.8080322
 20
218185901.6342086
 10
585543455.8011746
 20
218185668.5296074
 10
585548513.8858076
 20
218195602.0931949
 10
585547724.673392
 20
218195871.0496257
 97
0
 75
1
 76
1
 98
0
  0
HATCH
  5
67
330
17
100
AcDbEntity
  8
HATCH_MAT_GRASS
 62
7
100
AcDbHatch
 10
0.0
 20
0.0
 30
0.0
210
0.0
220
0.0
230
1.0
  2
SOLID
 70
1
 71
0
 91
1
 92
3
 72
0
 73
1
 93
6
 10
585483746.9577258
 20
218188239.4193975
 10
585484607.7120363
 20
218188953.1820432
 10
585485193.4010834
 20
218188236.8743794
 10
585486554.8097329
 20
218186605.1007232
 10
585485715.2246487
 20
218185908.5196135
 10
585484818.3582635
 20
218186984.2250613
 97
0
 75
1
 76
1
 98
0
  0
HATCH
  5
68
330
17
100
AcDbEntity
  8
HATCH_MAT_GRASS
 62
7
100
AcDbHatch
 10
0.0
 20
0.0
 30
0.0
210
0.0
220
0.0
230
1.0
  2
SOLID
 70
1
 71
0
 91
1
 92
3
 72
0
 73
1
 93
6
 10
585437682.7788032
 20
218173445.382789
 10
585438176.445273
 20
218172943.4770045
 10
585437504.5967332
 20
218172282.6576054
 10
585436648.3314382
 20
218171440.4488572
 10
585435396.0014596
 20
218170208.6772677
 10
585434902.3349898
 20
218170710.5830521
 97
0
 75
1
 76
1
 98
0
  0
HATCH
  5
69
330
17
100
AcDbEntity
  8
HATCH_MAT_GRASS
 62
7
100
AcDbHatch
 10
0.0
 20
0.0
 30
0.0
210
0.0
220
0.0
230
1.0
  2
SOLID
 70
1
 71
0
 91
1
 92
3
 72
0
 73
1
 93
4
 10
585522008.6388099
 20
218056391.6479186
 10
585521534.9900776
 20
218055869.2420389
 10
585523871.7261258
 20
218053750.5980677
 10
585524408.962452
 20
218054215.3511062
 97
0
 75
1
 76
1
 98
0
  0
HATCH
  5
6A
330
17
100
AcDbEntity
  8
HATCH_MAT_GRASS
 62
7
100
AcDbHatch
 10
0.0
 20
0.0
 30
0.0
210
0.0
220
0.0
230
1.0
  2
SOLID
 70
1
 71
0
 91
1
 92
3
 72
0
 73
1
 93
4
 10
585531639.9870569
 20
218063693.949626
 10
585531278.5919362
 20
218063309.7732185
 10
585533472.6436542
 20
218061320.4965776
 10
585533882.8267591
 20
218061660.438474
 97
0
 75
1
 76
1
 98
0
  0
HATCH
  5
6B
330
17
100
AcDbEntity
  8
HATCH_MAT_GRASS
 62
7
100
AcDbHatch
 10
0.0
 20
0.0
 30
0.0
210
0.0
220
0.0
230
1.0
  2
SOLID
 70
1
 71
0
 91
1
 92
3
 72
0
 73
1
 93
4
 10
585602192.8291223
 20
218108448.2628711
 10
585601331.2248615
 20
218105050.6187676
 10
585602693.2082928
 20
218104319.1386042
 10
585603646.8068358
 20
218108079.550506
 97
0
 75
1
 76
1
 98
0
  0
HATCH
  5
6C
330
17
100
AcDbEntity
  8
HATCH_MAT_GRASS
 62
7
100
AcDbHatch
 10
0.0
 20
0.0
 30
0.0
210
0.0
220
0.0
230
1.0
  2
SOLID
 70
1
 71
0
 91
1
 92
3
 72
0
 73
1
 93
4
 10
585372701.9657001
 20
218206626.1844077
 10
585371912.7697594
 20
218207429.7061794
 10
585373379.4068141
 20
218207649.1767613
 10
585374446.5956239
 20
218208343.3337576
 97
0
 75
1
 76
1
 98
0
  0
HATCH
  5
6D
330
17
100
AcDbEntity
  8
HATCH_MAT_GRASS
 62
7
100
AcDbHatch
 10
0.0
 20
0.0
 30
0.0
210
0.0
220
0.0
230
1.0
  2
SOLID
 70
1
 71
0
 91
1
 92
3
 72
0
 73
1
 93
6
 10
585467397.1641382
 20
218013002.2051303
 10
585468324.2116474
 20
218012431.8733632
 10
585469500.9013551
 20
218012467.517962
 10
585470534.9498456
 20
218012681.403741
 10
585471426.357118
 20
218013893.3382867
 10
585469607.8622009
 20
218015176.5620301
 97
0
 75
1
 76
1
 98
0
  0
HATCH
  5
6E
330
17
100
AcDbEntity
  8
HATCH_MAT_GRASS
 62
7
100
AcDbHatch
 10
0.0
 20
0.0
 30
0.0
210
0.0
220
0.0
230
1.0
  2
SOLID
 70
1
 71
0
 91
1
 92
3
 72
0
 73
1
 93
7
 10
585456307.9131815
 20
218023268.0314494
 10
585458019.4472529
 20
218025406.7437504
 10
585456165.3120992
 20
218026689.9674938
 10
585455487.826518
 20
218025941.4309187
 10
585455380.8656723
 20
218024729.4781869
 10
585455773.068818
 20
218024123.5200071
 10
585456022.6708815
 20
218023695.7666352
 97
0
 75
1
 76
1
 98
0
  0
HATCH
  5
6F
330
17
100
AcDbEntity
  8
HATCH_MAT_GRASS
 62
7
100
AcDbHatch
 10
0.0
 20
0.0
 30
0.0
210
0.0
220
0.0
230
1.0
  2
SOLID
 70
1
 71
0
 91
1
 92
3
 72
0
 73
1
 93
4
 10
585484053.5815878
 20
218080281.6588685
 10
585485607.9644068
 20
218081954.6961425
 10
585486561.4611458
 20
218081245.3504401
 10
585485084.153073
 20
218079409.6368425
 97
0
 75
1
 76
1
 98
0
  0
HATCH
  5
70
330
17
100
AcDbEntity
  8
HATCH_MAT_GRASS
 62
7
100
AcDbHatch
 10
0.0
 20
0.0
 30
0.0
210
0.0
220
0.0
230
1.0
  2
SOLID
 70
1
 71
0
 91
1
 92
3
 72
0
 73
1
 93
4
 10
585475833.9466653
 20
218073304.7008037
 10
585476876.1025065
 20
218074634.717176
 10
585477829.5992454
 20
218073925.3714735
 10
585476964.8017443
 20
218073016.5433199
 97
0
 75
1
 76
1
 98
0
  0
HATCH
  5
71
330
17
100
AcDbEntity
  8
HATCH_MAT_GRASS
 62
7
100
AcDbHatch
 10
0.0
 20
0.0
 30
0.0
210
0.0
220
0.0
230
1.0
  2
SOLID
 70
1
 71
0
 91
1
 92
3
 72
0
 73
1
 93
4
 10
585471975.6903614
 20
218064859.1859508
 10
585472884.797346
 20
218064194.1777646
 10
585474880.4499263
 20
218066521.6791372
 10
585473926.9933228
 20
218067053.6929605
 97
0
 75
1
 76
1
 98
0
  0
HATCH
  5
72
330
17
100
AcDbEntity
  8
HATCH_MAT_GRASS
 62
7
100
AcDbHatch
 10
0.0
 20
0.0
 30
0.0
210
0.0
220
0.0
230
1.0
  2
SOLID
 70
1
 71
0
 91
1
 92
3
 72
0
 73
1
 93
4
 10
585467208.2869377
 20
218059406.1624706
 10
585468117.4340576
 20
218058719.0037123
 10
585470113.0866379
 20
218061068.6738431
 10
585469381.3379935
 20
218061622.8382385
 97
0
 75
1
 76
1
 98
0
  0
HATCH
  5
73
330
17
100
AcDbEntity
  8
HATCH_MAT_GRASS
 62
7
100
AcDbHatch
 10
0.0
 20
0.0
 30
0.0
210
0.0
220
0.0
230
1.0
  2
SOLID
 70
1
 71
0
 91
1
 92
3
 72
0
 73
1
 93
4
 10
585499274.225338
 20
218094728.1231091
 10
585499737.5082803
 20
218093845.9556604
 10
585501723.0467391
 20
218094838.4031331
 10
585501414.2048228
 20
218095830.8324199
 97
0
 75
1
 76
1
 98
0
  0
HATCH
  5
74
330
17
100
AcDbEntity
  8
HATCH_MAT_GRASS
 62
7
100
AcDbHatch
 10
0.0
 20
0.0
 30
0.0
210
0.0
220
0.0
230
1.0
  2
SOLID
 70
1
 71
0
 91
1
 92
3
 72
0
 73
1
 93
5
 10
585584655.6300436
 20
218109875.8773284
 10
585587856.669144
 20
218108082.4629855
 10
585587891.8678913
 20
218109067.0904696
 10
585587540.0810952
 20
218110157.1968687
 10
585585394.3221124
 20
218111176.9779293
 97
0
 75
1
 76
1
 98
0
  0
HATCH
  5
75
330
17
100
AcDbEntity
  8
HATCH_MAT_GRASS
 62
7
100
AcDbHatch
 10
0.0
 20
0.0
 30
0.0
210
0.0
220
0.0
230
1.0
  2
SOLID
 70
1
 71
0
 91
1
 92
3
 72
0
 73
1
 93
4
 10
585468915.4925181
 20
218207867.0410917
 10
585469785.9987712
 20
218206817.2635321
 10
585468862.2714951
 20
218206051.2818618
 10
585467991.7652426
 20
218207101.0594223
 97
0
 75
1
 76
1
 98
0
  0
HATCH
  5
76
330
17
100
AcDbEntity
  8
HATCH_MAT_GRASS
 62
7
100
AcDbHatch
 10
0.0
 20
0.0
 30
0.0
210
0.0
220
0.0
230
1.0
  2
SOLID
 70
1
 71
0
 91
1
 92
3
 72
0
 73
1
 93
6
 10
585456608.6477468
 20
218216701.9943524
 10
585457616.7286321
 20
218215416.2427523
 10
585460814.7575772
 20
218218022.4994364
 10
585464499.468404
 20
218213504.983001
 10
585465194.6938329
 20
218214060.9841844
 10
585460675.7285457
 20
218218960.7525701
 97
0
 75
1
 76
1
 98
0
  0
HATCH
  5
77
330
17
100
AcDbEntity
  8
HATCH_MAT_GRASS
 62
7
100
AcDbHatch
 10
0.0
 20
0.0
 30
0.0
210
0.0
220
0.0
230
1.0
  2
SOLID
 70
1
 71
0
 91
1
 92
3
 72
0
 73
1
 93
4
 10
585389669.6490645
 20
218233930.9418513
 10
585385813.2657484
 20
218237852.4608669
 10
585386736.0842736
 20
218238760.7326205
 10
585390594.1535403
 20
218234840.8729794
 97
0
 75
1
 76
1
 98
0
  0
HATCH
  5
78
330
17
100
AcDbEntity
  8
HATCH_MAT_GRASS
 62
7
100
AcDbHatch
 10
0.0
 20
0.0
 30
0.0
210
0.0
220
0.0
230
1.0
  2
SOLID
 70
1
 71
0
 91
1
 92
3
 72
0
 73
1
 93
4
 10
585422560.3219489
 20
218259376.8707624
 10
585425911.140699
 20
218261683.6872575
 10
585423909.0530394
 20
218263930.8718607
 10
585421435.9904178
 20
218261010.0440911
 97
0
 75
1
 76
1
 98
0
  0
HATCH
  5
79
330
17
100
AcDbEntity
  8
HATCH_MAT_GRASS
 62
7
100
AcDbHatch
 10
0.0
 20
0.0
 30
0.0
210
0.0
220
0.0
230
1.0
  2
SOLID
 70
1
 71
0
 91
1
 92
3
 72
0
 73
1
 93
4
 10
585454536.3766845
 20
218266170.0777974
 10
585455481.4449891
 20
218265163.6998335
 10
585457248.3257796
 20
218266067.3813436
 10
585456590.8677638
 20
218267299.6842315
 97
0
 75
1
 76
1
 98
0
  0
HATCH
  5
7A
330
17
100
AcDbEntity
  8
HATCH_MAT_GRASS
 62
7
100
AcDbHatch
 10
0.0
 20
0.0
 30
0.0
210
0.0
220
0.0
230
1.0
  2
SOLID
 70
1
 71
0
 91
1
 92
3
 72
0
 73
1
 93
6
 10
585456015.6070507
 20
218264157.3218696
 10
585458111.1967814
 20
218261158.7199942
 10
585460638.2420805
 20
218262288.3264284
 10
585459569.8778219
 20
218264465.3930451
 10
585458542.65235
 20
218263890.3147269
 10
585457844.0956829
 20
218265184.2318499
 97
0
 75
1
 76
1
 98
0
  0
HATCH
  5
7B
330
17
100
AcDbEntity
  8
HATCH_MAT_GRASS
 62
7
100
AcDbHatch
 10
0.0
 20
0.0
 30
0.0
210
0.0
220
0.0
230
1.0
  2
SOLID
 70
1
 71
0
 91
1
 92
3
 72
0
 73
1
 93
4
 10
585454554.907813
 20
218247500.4828799
 10
585452563.1632103
 20
218250951.7761795
 10
585451069.2887615
 20
218250231.7692617
 10
585453040.7892802
 20
218246704.3244777
 97
0
 75
1
 76
1
 98
0
  0
HATCH
  5
7C
330
17
100
AcDbEntity
  8
HATCH_MAT_GRASS
 62
7
100
AcDbHatch
 10
0.0
 20
0.0
 30
0.0
210
0.0
220
0.0
230
1.0
  2
SOLID
 70
1
 71
0
 91
1
 92
3
 72
0
 73
1
 93
4
 10
585450532.7825963
 20
218251191.6959044
 10
585449862.2874539
 20
218252391.3580753
 10
585451433.5323939
 20
218253269.5320522
 10
585452104.0275351
 20
218252069.8698758
 97
0
 75
1
 76
1
 98
0
  0
HATCH
  5
7D
330
17
100
AcDbEntity
  8
HATCH_MAT_GRASS
 62
7
100
AcDbHatch
 10
0.0
 20
0.0
 30
0.0
210
0.0
220
0.0
230
1.0
  2
SOLID
 70
1
 71
0
 91
1
 92
3
 72
0
 73
1
 93
4
 10
585455074.5121509
 20
218243508.9877283
 10
585455462.2201318
 20
218242550.2207642
 10
585456747.83732
 20
218243203.0079451
 10
585456258.0650126
 20
218244120.9836667
 97
0
 75
1
 76
1
 98
0
  0
HATCH
  5
7E
330
17
100
AcDbEntity
  8
HATCH_MAT_GRASS
 62
7
100
AcDbHatch
 10
0.0
 20
0.0
 30
0.0
210
0.0
220
0.0
230
1.0
  2
SOLID
 70
1
 71
0
 91
1
 92
3
 72
0
 73
1
 93
4
 10
585457564.070985
 20
218242101.4261675
 10
585459502.6510239
 20
218238674.3071075
 10
585457951.7789657
 20
218237837.9138707
 10
585456176.4296055
 20
218241285.4376449
 97
0
 75
1
 76
1
 98
0
  0
HATCH
  5
7F
330
17
100
AcDbEntity
  8
HATCH_MAT_GRASS
 62
7
100
AcDbHatch
 10
0.0
 20
0.0
 30
0.0
210
0.0
220
0.0
230
1.0
  2
SOLID
 70
1
 71
0
 91
1
 92
3
 72
0
 73
1
 93
7
 10
585421278.1760404
 20
218204103.9019235
 10
585422760.2961556
 20
218202175.7837318
 10
585421643.6490085
 20
218201160.9856408
 10
585420831.54929
 20
218200897.1246794
 10
585419877.3301138
 20
218201079.8032484
 10
585419146.4243128
 20
218201363.9416218
 10
585418720.0659401
 20
218201972.8277508
 97
0
 75
1
 76
1
 98
0
  0
HATCH
  5
80
330
17
100
AcDbEntity
  8
HATCH_MAT_GRASS
 62
7
100
AcDbHatch
 10
0.0
 20
0.0
 30
0.0
210
0.0
220
0.0
230
1.0
  2
SOLID
 70
1
 71
0
 91
1
 92
3
 72
0
 73
1
 93
4
 10
585422191.8183253
 20
218204956.3352297
 10
585423673.898305
 20
218203210.877421
 10
585423958.1372201
 20
218203576.2163729
 10
585422679.0621024
 20
218205321.6741816
 97
0
 75
1
 76
1
 98
0
  0
HATCH
  5
81
330
17
100
AcDbEntity
  8
HATCH_MAT_GRASS
 62
7
100
AcDbHatch
 10
0.0
 20
0.0
 30
0.0
210
0.0
220
0.0
230
1.0
  2
SOLID
 70
1
 71
0
 91
1
 92
3
 72
0
 73
1
 93
6
 10
585423714.5153316
 20
218206113.2206936
 10
585425074.784367
 20
218204448.9452772
 10
585426353.8193495
 20
218205646.4037512
 10
585426658.3667778
 20
218206437.9502632
 10
585426658.3667778
 20
218207168.6099809
 10
585426272.6254318
 20
218208203.70367
 97
0
 75
1
 76
1
 98
0
  0
HATCH
  5
82
330
17
100
AcDbEntity
  8
HATCH_MAT_GRASS
 62
7
100
AcDbHatch
 10
0.0
 20
0.0
 30
0.0
210
0.0
220
0.0
230
1.0
  2
SOLID
 70
1
 71
0
 91
1
 92
3
 72
0
 73
1
 93
7
 10
585434173.1682557
 20
218214037.1789945
 10
585434660.4120325
 20
218213225.3368845
 10
585434010.7402848
 20
218212738.2425301
 10
585433300.1429971
 20
218212109.0608029
 10
585432691.0882758
 20
218211865.5136257
 10
585432000.7995015
 20
218211865.5136257
 10
585431412.0131582
 20
218212149.6519991
 97
0
 75
1
 76
1
 98
0
  0
HATCH
  5
83
330
17
100
AcDbEntity
  8
HATCH_MAT_GRASS
 62
7
100
AcDbHatch
 10
0.0
 20
0.0
 30
0.0
210
0.0
220
0.0
230
1.0
  2
SOLID
 70
1
 71
0
 91
1
 92
3
 72
0
 73
1
 93
4
 10
585435591.503818
 20
218215144.9618948
 10
585436159.9816482
 20
218214353.4153829
 10
585435693.0062491
 20
218214069.2588234
 10
585435205.762472
 20
218214820.2141392
 97
0
 75
1
 76
1
 98
0
  0
HATCH
  5
84
330
17
100
AcDbEntity
  8
HATCH_MAT_GRASS
 62
7
100
AcDbHatch
 10
0.0
 20
0.0
 30
0.0
210
0.0
220
0.0
230
1.0
  2
SOLID
 70
1
 71
0
 91
1
 92
3
 72
0
 73
1
 93
5
 10
585436812.5124089
 20
218216005.9065684
 10
585437259.1391593
 20
218215214.3600565
 10
585439330.0054824
 20
218216472.7053248
 10
585439573.6675063
 20
218216980.1134633
 10
585439492.4334532
 20
218217771.6599753
 97
0
 75
1
 76
1
 98
0
  0
HATCH
  5
85
330
17
100
AcDbEntity
  8
HATCH_MAT_GRASS
 62
7
100
AcDbHatch
 10
0.0
 20
0.0
 30
0.0
210
0.0
220
0.0
230
1.0
  2
SOLID
 70
1
 71
0
 91
1
 92
3
 72
0
 73
1
 93
4
 10
585233738.0462687
 20
218181141.0875998
 10
585234195.5898483
 20
218180504.6860227
 10
585238472.73934
 20
218184283.2681015
 10
585238094.7441266
 20
218184700.9100463
 97
0
 75
1
 76
1
 98
0
  0
HATCH
  5
86
330
17
100
AcDbEntity
  8
HATCH_MAT_GRASS
 62
7
100
AcDbHatch
 10
0.0
 20
0.0
 30
0.0
210
0.0
220
0.0
230
1.0
  2
SOLID
 70
1
 71
0
 91
1
 92
3
 72
0
 73
1
 93
4
 10
585230236.7542279
 20
218178058.557243
 10
585230952.9303364
 20
218177143.7458888
 10
585233419.7323976
 20
218179311.4648914
 10
585232783.1447906
 20
218180047.2894387
 97
0
 75
1
 76
1
 98
0
  0
HATCH
  5
87
330
17
100
AcDbEntity
  8
HATCH_MAT_GRASS
 62
7
100
AcDbHatch
 10
0.0
 20
0.0
 30
0.0
210
0.0
220
0.0
230
1.0
  2
SOLID
 70
1
 71
0
 91
1
 92
3
 72
0
 73
1
 93
4
 10
585222647.6105236
 20
218171431.3626139
 10
585223403.5608152
 20
218170615.9924159
 10
585225711.2661439
 20
218172724.0430876
 10
585224975.1828762
 20
218173539.4132854
 97
0
 75
1
 76
1
 98
0
  0
HATCH
  5
88
330
17
100
AcDbEntity
  8
HATCH_MAT_GRASS
 62
7
100
AcDbHatch
 10
0.0
 20
0.0
 30
0.0
210
0.0
220
0.0
230
1.0
  2
SOLID
 70
1
 71
0
 91
1
 92
3
 72
0
 73
1
 93
4
 10
585217654.3250589
 20
218167155.6111257
 10
585218370.5011674
 20
218166340.2227418
 10
585220896.9845707
 20
218168527.819064
 10
585220160.901303
 20
218169243.7662916
 97
0
 75
1
 76
1
 98
0
  0
HATCH
  5
89
330
17
100
AcDbEntity
  8
HATCH_MAT_GRASS
 62
7
100
AcDbHatch
 10
0.0
 20
0.0
 30
0.0
210
0.0
220
0.0
230
1.0
  2
SOLID
 70
1
 71
0
 91
1
 92
3
 72
0
 73
1
 93
4
 10
585209539.8777016
 20
218160894.1435071
 10
585210315.7351525
 20
218160158.3189598
 10
585212683.0816882
 20
218162166.9284751
 10
585212026.586922
 20
218163061.8625096
 97
0
 75
1
 76
1
 98
0
  0
HATCH
  5
8A
330
17
100
AcDbEntity
  8
HATCH_MAT_GRASS
 62
7
100
AcDbHatch
 10
0.0
 20
0.0
 30
0.0
210
0.0
220
0.0
230
1.0
  2
SOLID
 70
1
 71
0
 91
1
 92
3
 72
0
 73
1
 93
6
 10
585254317.1925582
 20
218071047.2701654
 10
585255159.2332866
 20
218071764.3267402
 10
585257654.1702642
 20
218067617.8232948
 10
585255533.4959077
 20
218066370.7533589
 10
585254098.8961083
 20
218069519.6081298
 10
585254972.1220437
 20
218070236.6647047
 97
0
 75
1
 76
1
 98
0
  0
HATCH
  5
8B
330
17
100
AcDbEntity
  8
HATCH_MAT_GRASS
 62
7
100
AcDbHatch
 10
0.0
 20
0.0
 30
0.0
210
0.0
220
0.0
230
1.0
  2
SOLID
 70
1
 71
0
 91
1
 92
3
 72
0
 73
1
 93
6
 10
585341703.823237
 20
217935511.8308086
 10
585341784.6851559
 20
217937553.1136937
 10
585342426.4570934
 20
217930609.331601
 10
585341784.6851559
 20
217930911.2404285
 10
585341323.5449104
 20
217930650.1200636
 10
585341559.2670008
 20
217932244.6264596
 97
0
 75
1
 76
1
 98
0
  0
HATCH
  5
8C
330
17
100
AcDbEntity
  8
HATCH_MAT_GRASS
 62
7
100
AcDbHatch
 10
0.0
 20
0.0
 30
0.0
210
0.0
220
0.0
230
1.0
  2
SOLID
 70
1
 71
0
 91
1
 92
3
 72
0
 73
1
 93
6
 10
585362036.0797497
 20
217904139.2050725
 10
585362406.5597136
 20
217904169.8876577
 10
585362958.1358215
 20
217898538.1120013
 10
585361764.3477095
 20
217898421.1923923
 10
585361377.9057262
 20
217902366.8936344
 10
585362201.7573482
 20
217902447.5816632
 97
0
 75
1
 76
1
 98
0
  0
HATCH
  5
8D
330
17
100
AcDbEntity
  8
HATCH_MAT_GRASS
 62
7
100
AcDbHatch
 10
0.0
 20
0.0
 30
0.0
210
0.0
220
0.0
230
1.0
  2
SOLID
 70
1
 71
0
 91
1
 92
3
 72
0
 73
1
 93
4
 10
585355655.547554
 20
217890867.5564816
 10
585356728.8130784
 20
217890874.0018368
 10
585356938.7347862
 20
217888730.6313508
 10
585355874.985069
 20
217888627.0264381
 97
0
 75
1
 76
1
 98
0
  0
HATCH
  5
8E
330
17
100
AcDbEntity
  8
HATCH_MAT_GRASS
 62
7
100
AcDbHatch
 10
0.0
 20
0.0
 30
0.0
210
0.0
220
0.0
230
1.0
  2
SOLID
 70
1
 71
0
 91
1
 92
3
 72
0
 73
1
 93
4
 10
585336827.1670913
 20
217890841.5549625
 10
585336640.96782
 20
217889054.5467713
 10
585337646.4972659
 20
217889017.3127098
 10
585337646.4972659
 20
217890785.7114289
 97
0
 75
1
 76
1
 98
0
  0
HATCH
  5
8F
330
17
100
AcDbEntity
  8
HATCH_MAT_GRASS
 62
7
100
AcDbHatch
 10
0.0
 20
0.0
 30
0.0
210
0.0
220
0.0
230
1.0
  2
SOLID
 70
1
 71
0
 91
1
 92
3
 72
0
 73
1
 93
7
 10
585332320.9512202
 20
217891455.8489489
 10
585335803.0210546
 20
217890953.2420296
 10
585335579.5886017
 20
217889222.077372
 10
585333903.728434
 20
217889426.8420341
 10
585333009.931896
 20
217889948.0433082
 10
585332600.2668087
 20
217890655.4148897
 10
585332507.1504915
 20
217891009.0855631
 97
0
 75
1
 76
1
 98
0
  0
HATCH
  5
90
330
17
100
AcDbEntity
  8
HATCH_MAT_GRASS
 62
7
100
AcDbHatch
 10
0.0
 20
0.0
 30
0.0
210
0.0
220
0.0
230
1.0
  2
SOLID
 70
1
 71
0
 91
1
 92
3
 72
0
 73
1
 93
4
 10
585320454.4664953
 20
217893327.3150546
 10
585321161.4806945
 20
217893306.9147908
 10
585320881.3637611
 20
217890705.4464664
 10
585320180.2539784
 20
217890780.9398574
 97
0
 75
1
 76
1
 98
0
  0
HATCH
  5
91
330
17
100
AcDbEntity
  8
HATCH_MAT_GRASS
 62
7
100
AcDbHatch
 10
0.0
 20
0.0
 30
0.0
210
0.0
220
0.0
230
1.0
  2
SOLID
 70
1
 71
0
 91
1
 92
3
 72
0
 73
1
 93
4
 10
585299653.1839097
 20
217895875.2861698
 10
585300522.4252309
 20
217895579.4545217
 10
585301132.7691602
 20
217897354.3990584
 10
585300485.4255908
 20
217897539.2843901
 97
0
 75
1
 76
1
 98
0
  0
HATCH
  5
92
330
17
100
AcDbEntity
  8
HATCH_MAT_GRASS
 62
7
100
AcDbHatch
 10
0.0
 20
0.0
 30
0.0
210
0.0
220
0.0
230
1.0
  2
SOLID
 70
1
 71
0
 91
1
 92
3
 72
0
 73
1
 93
4
 10
585269758.927355
 20
217917220.7409975
 10
585270523.3782706
 20
217918164.9781218
 10
585271295.7711955
 20
217917398.233173
 10
585270540.9359757
 20
217916473.9984928
 97
0
 75
1
 76
1
 98
0
  0
HATCH
  5
93
330
17
100
AcDbEntity
  8
HATCH_MAT_GRASS
 62
7
100
AcDbHatch
 10
0.0
 20
0.0
 30
0.0
210
0.0
220
0.0
230
1.0
  2
SOLID
 70
1
 71
0
 91
1
 92
3
 72
0
 73
1
 93
5
 10
585285370.4030429
 20
217904352.6754071
 10
585288632.3792523
 20
217902321.9854804
 10
585288230.076155
 20
217901675.7503685
 10
585284053.8235794
 20
217901990.1506191
 10
585284417.4951487
 20
217902821.982395
 97
0
 75
1
 76
1
 98
0
  0
HATCH
  5
94
330
17
100
AcDbEntity
  8
HATCH_MAT_GRASS
 62
7
100
AcDbHatch
 10
0.0
 20
0.0
 30
0.0
210
0.0
220
0.0
230
1.0
  2
SOLID
 70
1
 71
0
 91
1
 92
3
 72
0
 73
1
 93
5
 10
585279472.3382899
 20
217908024.4191334
 10
585282734.3144991
 20
217905993.7292066
 10
585281458.70535
 20
217903944.6686179
 10
585279283.3788927
 20
217905998.5562358
 10
585278958.1124789
 20
217907012.2964778
 97
0
 75
1
 76
1
 98
0
  0
HATCH
  5
95
330
17
100
AcDbEntity
  8
HATCH_MAT_GRASS
 62
7
100
AcDbHatch
 10
0.0
 20
0.0
 30
0.0
210
0.0
220
0.0
230
1.0
  2
SOLID
 70
1
 71
0
 91
1
 92
3
 72
0
 73
1
 93
4
 10
585268058.1408927
 20
217946686.7638743
 10
585269677.5217506
 20
217945364.1719879
 10
585271168.3104533
 20
217947744.4880338
 10
585269784.6840816
 20
217948856.3356117
 97
0
 75
1
 76
1
 98
0
  0
HATCH
  5
96
330
17
100
AcDbEntity
  8
HATCH_MAT_GRASS
 62
7
100
AcDbHatch
 10
0.0
 20
0.0
 30
0.0
210
0.0
220
0.0
230
1.0
  2
SOLID
 70
1
 71
0
 91
1
 92
3
 72
0
 73
1
 93
6
 10
585300942.053491
 20
217978867.6080617
 10
585303398.3424984
 20
217976177.3828701
 10
585302585.6182108
 20
217975310.71965
 10
585303398.3424984
 20
217974407.9712878
 10
585302495.3043911
 20
217973577.4234444
 10
585299515.2486109
 20
217977332.9086347
 97
0
 75
1
 76
1
 98
0
  0
HATCH
  5
97
330
17
100
AcDbEntity
  8
HATCH_MAT_GRASS
 62
7
100
AcDbHatch
 10
0.0
 20
0.0
 30
0.0
210
0.0
220
0.0
230
1.0
  2
SOLID
 70
1
 71
0
 91
1
 92
3
 72
0
 73
1
 93
11
 10
585334029.5071927
 20
217957916.2148154
 10
585334749.4821568
 20
217957700.278423
 10
585334173.5021856
 20
217953543.6389267
 10
585335271.4806871
 20
217953399.6914101
 10
585335559.4706728
 20
217953003.8130632
 10
585336693.4812859
 20
217952661.9339318
 10
585337323.4760609
 20
217953003.8130632
 10
585338907.4543449
 20
217952913.8496446
 10
585338997.467897
 20
217952428.0078792
 10
585338817.474156
 20
217951924.1613362
 10
585332463.5116013
 20
217952895.8448671
 97
0
 75
1
 76
1
 98
0
  0
HATCH
  5
98
330
17
100
AcDbEntity
  8
HATCH_MAT_GRASS
 62
7
100
AcDbHatch
 10
0.0
 20
0.0
 30
0.0
210
0.0
220
0.0
230
1.0
  2
SOLID
 70
1
 71
0
 91
1
 92
3
 72
0
 73
1
 93
9
 10
585377897.6684968
 20
217983927.9483139
 10
585379276.6307404
 20
217982746.360218
 10
585378882.6462941
 20
217981958.6398599
 10
585381515.192379
 20
217979523.8527264
 10
585381891.294222
 20
217979953.5183763
 10
585381909.2101884
 20
217980920.2736473
 10
585381783.8317865
 20
217981725.8929615
 10
585381676.3693509
 20
217982191.3716409
 10
585378542.3763841
 20
217984644.0577304
 97
0
 75
1
 76
1
 98
0
  0
HATCH
  5
99
330
17
100
AcDbEntity
  8
HATCH_MAT_GRASS
 62
7
100
AcDbHatch
 10
0.0
 20
0.0
 30
0.0
210
0.0
220
0.0
230
1.0
  2
SOLID
 70
1
 71
0
 91
1
 92
3
 72
0
 73
1
 93
9
 10
585377163.4141406
 20
217984572.4467888
 10
585375820.28383
 20
217985754.0348847
 10
585374996.4830045
 20
217985306.4702787
 10
585372328.1049865
 20
217987580.1214554
 10
585372722.089433
 20
217988009.7871053
 10
585373778.6977329
 20
217988349.9428575
 10
585374333.859151
 20
217988278.3319158
 10
585374871.1379656
 20
217987973.9891932
 10
585377808.1220278
 20
217985378.0812204
 97
0
 75
1
 76
1
 98
0
  0
HATCH
  5
9A
330
17
100
AcDbEntity
  8
HATCH_MAT_GRASS
 62
7
100
AcDbHatch
 10
0.0
 20
0.0
 30
0.0
210
0.0
220
0.0
230
1.0
  2
SOLID
 70
1
 71
0
 91
1
 92
3
 72
0
 73
1
 93
8
 10
585324373.5352709
 20
218058595.6507033
 10
585325047.1689363
 20
218057461.4706532
 10
585321501.7092766
 20
218055317.1485045
 10
585320828.0756112
 20
218056433.6110069
 10
585321714.4321853
 20
218056947.54083
 10
585322139.9113659
 20
218056717.1522401
 10
585323203.5259097
 20
218057337.4175843
 10
585323309.9207271
 20
218058028.5531196
 97
0
 75
1
 76
1
 98
0
  0
HATCH
  5
9B
330
17
100
AcDbEntity
  8
HATCH_MAT_GRASS
 62
7
100
AcDbHatch
 10
0.0
 20
0.0
 30
0.0
210
0.0
220
0.0
230
1.0
  2
SOLID
 70
1
 71
0
 91
1
 92
3
 72
0
 73
1
 93
4
 10
585247240.028397
 20
218086786.7181599
 10
585248694.0241759
 20
218087925.0252496
 10
585250428.3364354
 20
218085946.1172711
 10
585248956.7916838
 20
218084755.2622325
 97
0
 75
1
 76
1
 98
0
  0
HATCH
  5
9C
330
17
100
AcDbEntity
  8
HATCH_MAT_GRASS
 62
7
100
AcDbHatch
 10
0.0
 20
0.0
 30
0.0
210
0.0
220
0.0
230
1.0
  2
SOLID
 70
1
 71
0
 91
1
 92
3
 72
0
 73
1
 93
4
 10
585150507.3901147
 20
218103959.6150833
 10
585151357.2808578
 20
218104617.3866016
 10
585153605.4176964
 20
218102397.386941
 10
585152810.3424708
 20
218101767.0231992
 97
0
 75
1
 76
1
 98
0
  0
HATCH
  5
9D
330
17
100
AcDbEntity
  8
HATCH_MAT_GRASS
 62
7
100
AcDbHatch
 10
0.0
 20
0.0
 30
0.0
210
0.0
220
0.0
230
1.0
  2
SOLID
 70
1
 71
0
 91
1
 92
3
 72
0
 73
1
 93
10
 10
585239018.5014975
 20
218097885.885008
 10
585240355.0592841
 20
218099031.1612014
 10
585237081.8088799
 20
218102657.8464714
 10
585235772.5087181
 20
218101703.4572021
 10
585236672.6776017
 20
218100312.7657613
 10
585237681.9103477
 20
218100285.5091584
 10
585238309.3028038
 20
218099412.9199326
 10
585238309.3028038
 20
218098894.8177176
 10
585238554.7882432
 20
218098513.0589864
 10
585238800.2736828
 20
218098158.5719755
 97
0
 75
1
 76
1
 98
0
  0
HATCH
  5
9E
330
17
100
AcDbEntity
  8
HATCH_MAT_GRASS
 62
7
100
AcDbHatch
 10
0.0
 20
0.0
 30
0.0
210
0.0
220
0.0
230
1.0
  2
SOLID
 70
1
 71
0
 91
1
 92
3
 72
0
 73
1
 93
4
 10
585208468.1421489
 20
218105357.4141923
 10
585210459.3833796
 20
218106966.2491602
 10
585211959.6203679
 20
218105302.8707518
 10
585209995.6701254
 20
218103394.0922134
 97
0
 75
1
 76
1
 98
0
  0
HATCH
  5
9F
330
17
100
AcDbEntity
  8
HATCH_MAT_GRASS
 62
7
100
AcDbHatch
 10
0.0
 20
0.0
 30
0.0
210
0.0
220
0.0
230
1.0
  2
SOLID
 70
1
 71
0
 91
1
 92
3
 72
0
 73
1
 93
10
 10
585203503.7179297
 20
218100530.9244058
 10
585204212.9166235
 20
218100994.4831803
 10
585204813.0180914
 20
218100912.6680196
 10
585205494.9591603
 20
218101648.9137617
 10
585206231.415479
 20
218101648.9137617
 10
585207077.0357496
 20
218102576.046428
 10
585207131.5843623
 20
218102985.061762
 10
585207895.3316691
 20
218103966.7227515
 10
585209013.6950041
 20
218102821.4616754
 10
585204813.0180914
 20
218098922.0894379
 97
0
 75
1
 76
1
 98
0
  0
HATCH
  5
A0
330
17
100
AcDbEntity
  8
HATCH_MAT_GRASS
 62
7
100
AcDbHatch
 10
0.0
 20
0.0
 30
0.0
210
0.0
220
0.0
230
1.0
  2
SOLID
 70
1
 71
0
 91
1
 92
3
 72
0
 73
1
 93
4
 10
585161986.8884201
 20
218127738.4616076
 10
585164243.232573
 20
218124939.3309435
 10
585163808.2782817
 20
218124477.3443745
 10
585161606.3159263
 20
218127222.1130065
 97
0
 75
1
 76
1
 98
0
  0
HATCH
  5
A1
330
17
100
AcDbEntity
  8
HATCH_MAT_GRASS
 62
7
100
AcDbHatch
 10
0.0
 20
0.0
 30
0.0
210
0.0
220
0.0
230
1.0
  2
SOLID
 70
1
 71
0
 91
1
 92
3
 72
0
 73
1
 93
4
 10
585174549.5811105
 20
218138491.8286401
 10
585174984.5354016
 20
218138845.1213795
 10
585176833.116162
 20
218136834.1041249
 10
585176425.3527695
 20
218136507.9924016
 97
0
 75
1
 76
1
 98
0
  0
HATCH
  5
A2
330
17
100
AcDbEntity
  8
HATCH_MAT_GRASS
 62
7
100
AcDbHatch
 10
0.0
 20
0.0
 30
0.0
210
0.0
220
0.0
230
1.0
  2
SOLID
 70
1
 71
0
 91
1
 92
3
 72
0
 73
1
 93
12
 10
585226525.3678068
 20
218129712.1034569
 10
585227824.0251507
 20
218130760.6890059
 10
585227158.0316273
 20
218131592.8846417
 10
585226408.8306174
 20
218131659.461502
 10
585225826.1113068
 20
218132458.383825
 10
585225876.0558167
 20
218133157.4257403
 10
585225126.8214438
 20
218133806.5501278
 10
585222979.0407076
 20
218131909.1247279
 10
585223195.5002795
 20
218131709.3941471
 10
585225226.7104632
 20
218131526.3077815
 10
585225975.9448363
 20
218130777.333221
 10
585226475.423297
 20
218129861.9013924
 97
0
 75
1
 76
1
 98
0
  0
HATCH
  5
A3
330
17
100
AcDbEntity
  8
HATCH_MAT_GRASS
 62
7
100
AcDbHatch
 10
0.0
 20
0.0
 30
0.0
210
0.0
220
0.0
230
1.0
  2
SOLID
 70
1
 71
0
 91
1
 92
3
 72
0
 73
1
 93
9
 10
585256269.4085766
 20
218159335.2990423
 10
585257037.9601647
 20
218158593.4901111
 10
585257753.5312041
 20
218159388.2853945
 10
585258654.6008904
 20
218158408.0303197
 10
585259529.1469392
 20
218159017.3809289
 10
585258840.0995373
 20
218159865.1776819
 10
585257965.5201253
 20
218160024.1367386
 10
585257117.464351
 20
218159971.1503863
 10
585256560.9350471
 20
218159600.2459207
 97
0
 75
1
 76
1
 98
0
  0
HATCH
  5
A4
330
17
100
AcDbEntity
  8
HATCH_MAT_GRASS
 62
7
100
AcDbHatch
 10
0.0
 20
0.0
 30
0.0
210
0.0
220
0.0
230
1.0
  2
SOLID
 70
1
 71
0
 91
1
 92
3
 72
0
 73
1
 93
4
 10
585268292.6234827
 20
218078220.3291828
 10
585269475.0772675
 20
218075881.8698771
 10
585267907.046529
 20
218075008.1619665
 10
585266827.4177136
 20
218077295.2222429
 97
0
 75
1
 76
1
 98
0
  0
HATCH
  5
A5
330
17
100
AcDbEntity
  8
HATCH_MAT_GRASS
 62
7
100
AcDbHatch
 10
0.0
 20
0.0
 30
0.0
210
0.0
220
0.0
230
1.0
  2
SOLID
 70
1
 71
0
 91
1
 92
3
 72
0
 73
1
 93
12
 10
585268239.5762078
 20
218074072.6542819
 10
585269443.6492593
 20
218074431.1927457
 10
585269827.9250534
 20
218073534.8390275
 10
585269853.547888
 20
218072894.5734138
 10
585270237.8236822
 20
218071665.2900422
 10
585270775.8031213
 20
218071511.6220621
 10
585271390.6510643
 20
218070384.7739324
 10
585280024.0783768
 20
218074687.2959677
 10
585280229.0276911
 20
218073995.8127331
 10
585270750.1802866
 20
218069770.1322466
 10
585269930.4163921
 20
218071076.2571669
 10
585268803.1784816
 20
218073457.9974787
 97
0
 75
1
 76
1
 98
0
  0
HATCH
  5
A6
330
17
100
AcDbEntity
  8
HATCH_MAT_GRASS
 62
7
100
AcDbHatch
 10
0.0
 20
0.0
 30
0.0
210
0.0
220
0.0
230
1.0
  2
SOLID
 70
1
 71
0
 91
1
 92
3
 72
0
 73
1
 93
4
 10
585273081.4912487
 20
218063700.496468
 10
585275617.7181623
 20
218064878.5622187
 10
585276668.0542058
 20
218062368.7627372
 10
585274106.2044575
 20
218061395.5825876
 97
0
 75
1
 76
1
 98
0
  0
HATCH
  5
A7
330
17
100
AcDbEntity
  8
HATCH_MAT_GRASS
 62
7
100
AcDbHatch
 10
0.0
 20
0.0
 30
0.0
210
0.0
220
0.0
230
1.0
  2
SOLID
 70
1
 71
0
 91
1
 92
3
 72
0
 73
1
 93
9
 10
585287658.3819518
 20
218038602.4563014
 10
585290963.1938165
 20
218039498.8100196
 10
585291270.6011065
 20
218039985.4076531
 10
585291244.9782718
 20
218040574.4405284
 10
585290245.8545347
 20
218040190.2932541
 10
585290066.528055
 20
218039703.6956207
 10
585289016.1920115
 20
218039550.0276405
 10
585288401.3440684
 20
218039806.1308625
 10
585287453.4660006
 20
218039498.8100196
 97
0
 75
1
 76
1
 98
0
  0
HATCH
  5
A8
330
17
100
AcDbEntity
  8
HATCH_MAT_GRASS
 62
7
100
AcDbHatch
 10
0.0
 20
0.0
 30
0.0
210
0.0
220
0.0
230
1.0
  2
SOLID
 70
1
 71
0
 91
1
 92
3
 72
0
 73
1
 93
6
 10
585408300.5141968
 20
218142155.1203512
 10
585410646.167586
 20
218143079.0748529
 10
585412304.8309201
 20
218139715.1455702
 10
585410717.338392
 20
218139004.5481055
 10
585410385.7761942
 20
218140591.6873971
 10
585409271.7613033
 20
218140070.4443026
 97
0
 75
1
 76
1
 98
0
  0
HATCH
  5
A9
330
17
100
AcDbEntity
  8
HATCH_MAT_GRASS
 62
7
100
AcDbHatch
 10
0.0
 20
0.0
 30
0.0
210
0.0
220
0.0
230
1.0
  2
SOLID
 70
1
 71
0
 91
1
 92
3
 72
0
 73
1
 93
4
 10
585411357.0233006
 20
218138080.5936038
 10
585411878.6584294
 20
218136801.3403697
 10
585413205.333393
 20
218137369.996139
 10
585412755.2952427
 20
218138578.1303608
 97
0
 75
1
 76
1
 98
0
  0
HATCH
  5
AA
330
17
100
AcDbEntity
  8
HATCH_MAT_GRASS
 62
7
100
AcDbHatch
 10
0.0
 20
0.0
 30
0.0
210
0.0
220
0.0
230
1.0
  2
SOLID
 70
1
 71
0
 91
1
 92
3
 72
0
 73
1
 93
6
 10
585412162.9154807
 20
218132727.1099516
 10
585414864.4228995
 20
218133745.5934738
 10
585416286.1343288
 20
218130263.4288331
 10
585414722.0812877
 20
218129528.8287017
 10
585414177.0066719
 20
218130760.6692609
 10
585413158.0282466
 20
218130547.6085532
 97
0
 75
1
 76
1
 98
0
  0
HATCH
  5
AB
330
17
100
AcDbEntity
  8
HATCH_MAT_GRASS
 62
7
100
AcDbHatch
 10
0.0
 20
0.0
 30
0.0
210
0.0
220
0.0
230
1.0
  2
SOLID
 70
1
 71
0
 91
1
 92
3
 72
0
 73
1
 93
4
 10
585415058.3313828
 20
218128510.6415088
 10
585415507.0910157
 20
218127235.5368837
 10
585417184.0797668
 20
218127825.8246859
 10
585416640.7098411
 20
218129148.0456566
 97
0
 75
1
 76
1
 98
0
  0
HATCH
  5
AC
330
17
100
AcDbEntity
  8
HATCH_MAT_GRASS
 62
7
100
AcDbHatch
 10
0.0
 20
0.0
 30
0.0
210
0.0
220
0.0
230
1.0
  2
SOLID
 70
1
 71
0
 91
1
 92
3
 72
0
 73
1
 93
4
 10
585423654.656694
 20
218107050.1832125
 10
585425189.7300057
 20
218107616.7646773
 10
585423159.0180871
 20
218112456.7097948
 10
585421883.4838223
 20
218111913.5383382
 97
0
 75
1
 76
1
 98
0
  0
HATCH
  5
AD
330
17
100
AcDbEntity
  8
HATCH_MAT_GRASS
 62
7
100
AcDbHatch
 10
0.0
 20
0.0
 30
0.0
210
0.0
220
0.0
230
1.0
  2
SOLID
 70
1
 71
0
 91
1
 92
3
 72
0
 73
1
 93
4
 10
585424316.0763997
 20
218103603.2817488
 10
585426606.7535375
 20
218104524.2729583
 10
585425733.0999314
 20
218106601.8371057
 10
585423442.4227936
 20
218105775.3749167
 97
0
 75
1
 76
1
 98
0
  0
HATCH
  5
AE
330
17
100
AcDbEntity
  8
HATCH_MAT_GRASS
 62
7
100
AcDbHatch
 10
0.0
 20
0.0
 30
0.0
210
0.0
220
0.0
230
1.0
  2
SOLID
 70
1
 71
0
 91
1
 92
3
 72
0
 73
1
 93
5
 10
585537014.8345467
 20
218132430.1880751
 10
585538622.3571818
 20
218131498.5290137
 10
585538133.1111624
 20
218130590.2799606
 10
585537550.5333674
 20
218130776.6710387
 10
585536269.0326877
 20
218130823.1947259
 97
0
 75
1
 76
1
 98
0
  0
HATCH
  5
AF
330
17
100
AcDbEntity
  8
HATCH_MAT_GRASS
 62
7
100
AcDbHatch
 10
0.0
 20
0.0
 30
0.0
210
0.0
220
0.0
230
1.0
  2
SOLID
 70
1
 71
0
 91
1
 92
3
 72
0
 73
1
 93
6
 10
585539297.8405796
 20
218136925.2059829
 10
585541953.7475421
 20
218135551.127399
 10
585541045.1477919
 20
218133594.7619019
 10
585540020.2029516
 20
218133990.6577371
 10
585539367.7328682
 20
218132849.4939186
 10
585537713.7574315
 20
218133548.2382146
 97
0
 75
1
 76
1
 98
0
  0
HATCH
  5
B0
330
17
100
AcDbEntity
  8
HATCH_MAT_GRASS
 62
7
100
AcDbHatch
 10
0.0
 20
0.0
 30
0.0
210
0.0
220
0.0
230
1.0
  2
SOLID
 70
1
 71
0
 91
1
 92
3
 72
0
 73
1
 93
6
 10
585466351.6000259
 20
218099209.6084336
 10
585467162.6062759
 20
218099696.1810096
 10
585468321.7954508
 20
218097448.5238911
 10
585467603.2686313
 20
218097610.6159734
 10
585466954.207928
 20
218098050.9611913
 10
585466513.5455725
 20
218098862.0142609
 97
0
 75
1
 76
1
 98
0
  0
HATCH
  5
B1
330
17
100
AcDbEntity
  8
HATCH_MAT_GRASS
 62
7
100
AcDbHatch
 10
0.0
 20
0.0
 30
0.0
210
0.0
220
0.0
230
1.0
  2
SOLID
 70
1
 71
0
 91
1
 92
3
 72
0
 73
1
 93
5
 10
585457610.5785319
 20
218094103.6664489
 10
585458700.3015907
 20
218094613.6490331
 10
585459534.7473276
 20
218093246.3860212
 10
585458723.3149053
 20
218093223.2723422
 10
585457865.8558539
 20
218093709.8449182
 97
0
 75
1
 76
1
 98
0
  0
HATCH
  5
B2
330
17
100
AcDbEntity
  8
HATCH_MAT_GRASS
 62
7
100
AcDbHatch
 10
0.0
 20
0.0
 30
0.0
210
0.0
220
0.0
230
1.0
  2
SOLID
 70
1
 71
0
 91
1
 92
3
 72
0
 73
1
 93
11
 10
585459951.9701961
 20
218095378.1784154
 10
585461250.091603
 20
218095980.6157157
 10
585460809.4292475
 20
218096884.4198305
 10
585462803.0641594
 20
218097996.8397148
 10
585463359.2192599
 20
218096861.3061515
 10
585463428.6853758
 20
218095957.5020366
 10
585463243.3003422
 20
218095355.0647365
 10
585462826.0774738
 20
218094590.2390248
 10
585461551.395554
 20
218093871.9370004
 10
585460855.8820491
 20
218093617.0938729
 10
585460229.83466
 20
218094937.8331975
 97
0
 75
1
 76
1
 98
0
  0
HATCH
  5
B3
330
17
100
AcDbEntity
  8
HATCH_MAT_GRASS
 62
7
100
AcDbHatch
 10
0.0
 20
0.0
 30
0.0
210
0.0
220
0.0
230
1.0
  2
SOLID
 70
1
 71
0
 91
1
 92
3
 72
0
 73
1
 93
5
 10
585485218.2561918
 20
218107114.4866528
 10
585488631.4716705
 20
218108613.0235082
 10
585489484.668997
 20
218107160.7140108
 10
585485840.894201
 20
218105570.0187686
 10
585485633.348198
 20
218106284.4685132
 97
0
 75
1
 76
1
 98
0
  0
HATCH
  5
B4
330
17
100
AcDbEntity
  8
HATCH_MAT_GRASS
 62
7
100
AcDbHatch
 10
0.0
 20
0.0
 30
0.0
210
0.0
220
0.0
230
1.0
  2
SOLID
 70
1
 71
0
 91
1
 92
3
 72
0
 73
1
 93
4
 10
585489945.7876319
 20
218109304.655903
 10
585490891.4643888
 20
218109788.8578452
 10
585491629.595143
 20
218108313.4346688
 10
585490660.9050715
 20
218107806.1190476
 97
0
 75
1
 76
1
 98
0
  0
HATCH
  5
B5
330
17
100
AcDbEntity
  8
HATCH_MAT_GRASS
 62
7
100
AcDbHatch
 10
0.0
 20
0.0
 30
0.0
210
0.0
220
0.0
230
1.0
  2
SOLID
 70
1
 71
0
 91
1
 92
3
 72
0
 73
1
 93
5
 10
585492828.844532
 20
218108705.4782242
 10
585496887.7113339
 20
218110618.8759848
 10
585495988.4873784
 20
218111172.1226347
 10
585495757.5018885
 20
218112071.4818113
 10
585492367.2997245
 20
218110411.4455322
 97
0
 75
1
 76
1
 98
0
  0
HATCH
  5
B6
330
17
100
AcDbEntity
  8
HATCH_MAT_GRASS
 62
7
100
AcDbHatch
 10
0.0
 20
0.0
 30
0.0
210
0.0
220
0.0
230
1.0
  2
SOLID
 70
1
 71
0
 91
1
 92
3
 72
0
 73
1
 93
4
 10
585509951.1766932
 20
218120646.9530509
 10
585511735.5609121
 20
218119395.2584341
 10
585510555.9154577
 20
218118172.6040806
 10
585509231.7975289
 20
218119453.0426316
 97
0
 75
1
 76
1
 98
0
  0
HATCH
  5
B7
330
17
100
AcDbEntity
  8
HATCH_MAT_GRASS
 62
7
100
AcDbHatch
 10
0.0
 20
0.0
 30
0.0
210
0.0
220
0.0
230
1.0
  2
SOLID
 70
1
 71
0
 91
1
 92
3
 72
0
 73
1
 93
5
 10
585518613.5587405
 20
218135359.9950534
 10
585520110.7027006
 20
218134666.2883541
 10
585518869.262235
 20
218131818.5645692
 10
585518321.2044117
 20
218132512.2712685
 10
585517407.9167643
 20
218132950.2458527
 97
0
 75
1
 76
1
 98
0
  0
HATCH
  5
B8
330
17
100
AcDbEntity
  8
HATCH_MAT_GRASS
 62
7
100
AcDbHatch
 10
0.0
 20
0.0
 30
0.0
210
0.0
220
0.0
230
1.0
  2
SOLID
 70
1
 71
0
 91
1
 92
3
 72
0
 73
1
 93
4
 10
585519928.3008746
 20
218138135.1181799
 10
585521791.1008317
 20
218137441.4114806
 10
585520951.1148524
 20
218135944.3562713
 10
585519380.2430513
 20
218136820.6017689
 97
0
 75
1
 76
1
 98
0
  0
HATCH
  5
B9
330
17
100
AcDbEntity
  8
HATCH_MAT_GRASS
 62
7
100
AcDbHatch
 10
0.0
 20
0.0
 30
0.0
210
0.0
220
0.0
230
1.0
  2
SOLID
 70
1
 71
0
 91
1
 92
3
 72
0
 73
1
 93
5
 10
585520951.1148524
 20
218139558.9800724
 10
585522448.2588124
 20
218138536.6442703
 10
585523836.3026148
 20
218141749.741981
 10
585522996.3166356
 20
218141494.0098659
 10
585522119.679822
 20
218141968.7292731
 97
0
 75
1
 76
1
 98
0
  0
HATCH
  5
BA
330
17
100
AcDbEntity
  8
HATCH_MAT_GRASS
 62
7
100
AcDbHatch
 10
0.0
 20
0.0
 30
0.0
210
0.0
220
0.0
230
1.0
  2
SOLID
 70
1
 71
0
 91
1
 92
3
 72
0
 73
1
 93
5
 10
585525443.3990775
 20
218148869.6441017
 10
585527013.8447059
 20
218148066.2955917
 10
585526210.509561
 20
218146386.7015842
 10
585525735.3272336
 20
218147409.0373862
 10
585525004.8675843
 20
218147664.7695013
 97
0
 75
1
 76
1
 98
0
  0
HATCH
  5
BB
330
17
100
AcDbEntity
  8
HATCH_MAT_GRASS
 62
7
100
AcDbHatch
 10
0.0
 20
0.0
 30
0.0
210
0.0
220
0.0
230
1.0
  2
SOLID
 70
1
 71
0
 91
1
 92
3
 72
0
 73
1
 93
6
 10
585526721.4903773
 20
218153908.1297952
 10
585529351.4008178
 20
218152666.8067011
 10
585527598.1271908
 20
218149234.7216983
 10
585526173.8587267
 20
218150001.3253852
 10
585526794.7920457
 20
218151242.9448086
 10
585525735.3272336
 20
218151900.2030141
 97
0
 75
1
 76
1
 98
0
  0
HATCH
  5
BC
330
17
100
AcDbEntity
  8
HATCH_MAT_GRASS
 62
7
100
AcDbHatch
 10
0.0
 20
0.0
 30
0.0
210
0.0
220
0.0
230
1.0
  2
SOLID
 70
1
 71
0
 91
1
 92
3
 72
0
 73
1
 93
6
 10
585486762.7052985
 20
218156175.9373005
 10
585489885.2711383
 20
218157588.5386827
 10
585489224.2776052
 20
218158158.0834397
 10
585488335.2817894
 20
218158272.1701886
 10
585487560.5002012
 20
218157634.1733823
 10
585486466.5154175
 20
218157155.6016952
 97
0
 75
1
 76
1
 98
0
  0
HATCH
  5
BD
330
17
100
AcDbEntity
  8
HATCH_MAT_GRASS
 62
7
100
AcDbHatch
 10
0.0
 20
0.0
 30
0.0
210
0.0
220
0.0
230
1.0
  2
SOLID
 70
1
 71
0
 91
1
 92
3
 72
0
 73
1
 93
4
 10
585484552.1485889
 20
218156335.3624198
 10
585485235.7292641
 20
218156700.1436871
 10
585485759.9214277
 20
218155674.8445929
 10
585485121.9412091
 20
218155333.1770045
 97
0
 75
1
 76
1
 98
0
  0
HATCH
  5
BE
330
17
100
AcDbEntity
  8
HATCH_MAT_GRASS
 62
7
100
AcDbHatch
 10
0.0
 20
0.0
 30
0.0
210
0.0
220
0.0
230
1.0
  2
SOLID
 70
1
 71
0
 91
1
 92
3
 72
0
 73
1
 93
6
 10
585480791.6025304
 20
218153419.1865855
 10
585484119.1573384
 20
218154877.4226673
 10
585483458.1638051
 20
218155765.8176628
 10
585481703.1854882
 20
218154945.5783875
 10
585481088.218584
 20
218154490.1203793
 10
585480951.4172145
 20
218153943.3929722
 97
0
 75
1
 76
1
 98
0
  0
HATCH
  5
BF
330
17
100
AcDbEntity
  8
HATCH_MAT_GRASS
 62
7
100
AcDbHatch
 10
0.0
 20
0.0
 30
0.0
210
0.0
220
0.0
230
1.0
  2
SOLID
 70
1
 71
0
 91
1
 92
3
 72
0
 73
1
 93
6
 10
585471880.9468555
 20
218149132.2525382
 10
585474742.695131
 20
218150471.6606035
 10
585474470.3709095
 20
218150948.4543153
 10
585473857.1086953
 20
218151039.4273852
 10
585473516.1707026
 20
218150994.0890149
 10
585471472.247437
 20
218150131.1783321
 97
0
 75
1
 76
1
 98
0
  0
HATCH
  5
C0
330
17
100
AcDbEntity
  8
HATCH_MAT_GRASS
 62
7
100
AcDbHatch
 10
0.0
 20
0.0
 30
0.0
210
0.0
220
0.0
230
1.0
  2
SOLID
 70
1
 71
0
 91
1
 92
3
 72
0
 73
1
 93
4
 10
585469496.0855972
 20
218149313.9023489
 10
585470109.3478113
 20
218149518.0731801
 10
585470631.8352851
 20
218148564.4857566
 10
585469995.5597563
 20
218148224.0034851
 97
0
 75
1
 76
1
 98
0
  0
HATCH
  5
C1
330
17
100
AcDbEntity
  8
HATCH_MAT_GRASS
 62
7
100
AcDbHatch
 10
0.0
 20
0.0
 30
0.0
210
0.0
220
0.0
230
1.0
  2
SOLID
 70
1
 71
0
 91
1
 92
3
 72
0
 73
1
 93
6
 10
585468451.11065
 20
218148700.7971968
 10
585468951.0109814
 20
218147679.0540532
 10
585465816.512312
 20
218146294.0112883
 10
585465680.137115
 20
218146884.2990905
 10
585466157.0241321
 20
218147406.4311726
 10
585466270.8121872
 20
218147701.5750738
 97
0
 75
1
 76
1
 98
0
  0
HATCH
  5
C2
330
17
100
AcDbEntity
  8
HATCH_MAT_GRASS
 62
7
100
AcDbHatch
 10
0.0
 20
0.0
 30
0.0
210
0.0
220
0.0
230
1.0
  2
SOLID
 70
1
 71
0
 91
1
 92
3
 72
0
 73
1
 93
4
 10
585454117.8925062
 20
218142263.2805158
 10
585455548.9797301
 20
218142967.3587377
 10
585454935.717516
 20
218144193.2727125
 10
585453641.005489
 20
218143489.4908198
 97
0
 75
1
 76
1
 98
0
  0
HATCH
  5
C3
330
17
100
AcDbEntity
  8
HATCH_MAT_GRASS
 62
7
100
AcDbHatch
 10
0.0
 20
0.0
 30
0.0
210
0.0
220
0.0
230
1.0
  2
SOLID
 70
1
 71
0
 91
1
 92
3
 72
0
 73
1
 93
6
 10
585447690.3590004
 20
218137086.4090774
 10
585449870.6574633
 20
218138085.6312005
 10
585449098.43291
 20
218139743.0005167
 10
585448485.1706957
 20
218140310.7672984
 10
585447871.9084815
 20
218140424.2613889
 10
585446440.8212575
 20
218140174.4558581
 97
0
 75
1
 76
1
 98
0
  0
HATCH
  5
C4
330
17
100
AcDbEntity
  8
HATCH_MAT_GRASS
 62
7
100
AcDbHatch
 10
0.0
 20
0.0
 30
0.0
210
0.0
220
0.0
230
1.0
  2
SOLID
 70
1
 71
0
 91
1
 92
3
 72
0
 73
1
 93
4
 10
585373927.5100068
 20
218184515.2742383
 10
585372142.5655506
 20
218186328.8111089
 10
585372997.8467484
 20
218187170.5792191
 10
585374779.6789966
 20
218185360.2272336
 97
0
 75
1
 76
1
 98
0
  0
HATCH
  5
C5
330
17
100
AcDbEntity
  8
HATCH_MAT_GRASS
 62
7
100
AcDbHatch
 10
0.0
 20
0.0
 30
0.0
210
0.0
220
0.0
230
1.0
  2
SOLID
 70
1
 71
0
 91
1
 92
3
 72
0
 73
1
 93
4
 10
585365547.889671
 20
218193354.1346815
 10
585364553.1479709
 20
218194364.8130001
 10
585365408.4291686
 20
218195206.5811103
 10
585366400.058661
 20
218194199.0876768
 97
0
 75
1
 76
1
 98
0
  0
HATCH
  5
C6
330
17
100
AcDbEntity
  8
HATCH_MAT_GRASS
 62
7
100
AcDbHatch
 10
0.0
 20
0.0
 30
0.0
210
0.0
220
0.0
230
1.0
  2
SOLID
 70
1
 71
0
 91
1
 92
3
 72
0
 73
1
 93
4
 10
585358662.989514
 20
218200349.302654
 10
585357668.2478138
 20
218201359.9809726
 10
585358523.5290115
 20
218202201.7490829
 10
585359515.1585039
 20
218201194.2556493
 97
0
 75
1
 76
1
 98
0
  0
HATCH
  5
C7
330
17
100
AcDbEntity
  8
HATCH_MAT_GRASS
 62
7
100
AcDbHatch
 10
0.0
 20
0.0
 30
0.0
210
0.0
220
0.0
230
1.0
  2
SOLID
 70
1
 71
0
 91
1
 92
3
 72
0
 73
1
 93
4
 10
585327570.8216549
 20
218227674.2549349
 10
585326970.2147495
 20
218228284.4860407
 10
585327825.4959471
 20
218229126.2541509
 10
585328422.9906448
 20
218228519.2079302
 97
0
 75
1
 76
1
 98
0
  0
HATCH
  5
C8
330
17
100
AcDbEntity
  8
HATCH_MAT_GRASS
 62
7
100
AcDbHatch
 10
0.0
 20
0.0
 30
0.0
210
0.0
220
0.0
230
1.0
  2
SOLID
 70
1
 71
0
 91
1
 92
3
 72
0
 73
1
 93
4
 10
585345856.9354129
 20
218209095.9715634
 10
585345256.3285075
 20
218209706.2026691
 10
585346111.6097052
 20
218210547.9707794
 10
585346709.1044029
 20
218209940.9245587
 97
0
 75
1
 76
1
 98
0
  0
HATCH
  5
C9
330
17
100
AcDbEntity
  8
HATCH_MAT_GRASS
 62
7
100
AcDbHatch
 10
0.0
 20
0.0
 30
0.0
210
0.0
220
0.0
230
1.0
  2
SOLID
 70
1
 71
0
 91
1
 92
3
 72
0
 73
1
 93
4
 10
585337997.0029576
 20
218217081.8019394
 10
585337396.3960522
 20
218217692.0330451
 10
585338251.6772499
 20
218218533.8011553
 10
585338849.1719476
 20
218217926.7549346
 97
0
 75
1
 76
1
 98
0
  0
HATCH
  5
CA
330
17
100
AcDbEntity
  8
HATCH_MAT_GRASS
 62
7
100
AcDbHatch
 10
0.0
 20
0.0
 30
0.0
210
0.0
220
0.0
230
1.0
  2
SOLID
 70
1
 71
0
 91
1
 92
3
 72
0
 73
1
 93
4
 10
585344414.5617787
 20
218210561.4418905
 10
585341994.1539073
 20
218213020.6238662
 10
585342849.4351048
 20
218213862.3919765
 10
585345266.7307687
 20
218211406.3948858
 97
0
 75
1
 76
1
 98
0
  0
HATCH
  5
CB
330
17
100
AcDbEntity
  8
HATCH_MAT_GRASS
 62
7
100
AcDbHatch
 10
0.0
 20
0.0
 30
0.0
210
0.0
220
0.0
230
1.0
  2
SOLID
 70
1
 71
0
 91
1
 92
3
 72
0
 73
1
 93
4
 10
585349012.3298548
 20
218205890.0365128
 10
585346591.9219832
 20
218208349.2184885
 10
585347447.203181
 20
218209190.9865987
 10
585349864.4988447
 20
218206734.989508
 97
0
 75
1
 76
1
 98
0
  0
HATCH
  5
CC
330
17
100
AcDbEntity
  8
HATCH_MAT_GRASS
 62
7
100
AcDbHatch
 10
0.0
 20
0.0
 30
0.0
210
0.0
220
0.0
230
1.0
  2
SOLID
 70
1
 71
0
 91
1
 92
3
 72
0
 73
1
 93
4
 10
585341152.3903075
 20
218213875.8599085
 10
585338731.982436
 20
218216335.0418843
 10
585339587.2636337
 20
218217176.8099945
 10
585342004.5592974
 20
218214720.8129038
 97
0
 75
1
 76
1
 98
0
  0
HATCH
  5
CD
330
17
100
AcDbEntity
  8
HATCH_MAT_GRASS
 62
7
100
AcDbHatch
 10
0.0
 20
0.0
 30
0.0
210
0.0
220
0.0
230
1.0
  2
SOLID
 70
1
 71
0
 91
1
 92
3
 72
0
 73
1
 93
4
 10
585336554.6166286
 20
218218547.2709787
 10
585334134.2087572
 20
218221006.4529544
 10
585334989.489955
 20
218221848.2210647
 10
585337406.7856185
 20
218219392.223974
 97
0
 75
1
 76
1
 98
0
  0
HATCH
  5
CE
330
17
100
AcDbEntity
  8
HATCH_MAT_GRASS
 62
7
100
AcDbHatch
 10
0.0
 20
0.0
 30
0.0
210
0.0
220
0.0
230
1.0
  2
SOLID
 70
1
 71
0
 91
1
 92
3
 72
0
 73
1
 93
4
 10
585330729.6958061
 20
218224465.5245122
 10
585328309.2879348
 20
218226924.706488
 10
585329164.5691324
 20
218227766.4745982
 10
585331581.8647962
 20
218225310.4775075
 97
0
 75
1
 76
1
 98
0
  0
HATCH
  5
CF
330
17
100
AcDbEntity
  8
HATCH_MAT_GRASS
 62
7
100
AcDbHatch
 10
0.0
 20
0.0
 30
0.0
210
0.0
220
0.0
230
1.0
  2
SOLID
 70
1
 71
0
 91
1
 92
3
 72
0
 73
1
 93
4
 10
585326131.93954
 20
218229136.935256
 10
585323711.5316685
 20
218231596.1172317
 10
585324566.8128661
 20
218232437.885342
 10
585326984.1085299
 20
218229981.8882512
 97
0
 75
1
 76
1
 98
0
  0
HATCH
  5
D0
330
17
100
AcDbEntity
  8
HATCH_MAT_GRASS
 62
7
100
AcDbHatch
 10
0.0
 20
0.0
 30
0.0
210
0.0
220
0.0
230
1.0
  2
SOLID
 70
1
 71
0
 91
1
 92
3
 72
0
 73
1
 93
4
 10
585278984.7668611
 20
218211955.0672486
 10
585275126.7099909
 20
218215874.9142945
 10
585276062.3985156
 20
218216797.5930491
 10
585279920.452826
 20
218212877.7496636
 97
0
 75
1
 76
1
 98
0
  0
HATCH
  5
D1
330
17
100
AcDbEntity
  8
HATCH_MAT_GRASS
 62
7
100
AcDbHatch
 10
0.0
 20
0.0
 30
0.0
210
0.0
220
0.0
230
1.0
  2
SOLID
 70
1
 71
0
 91
1
 92
3
 72
0
 73
1
 93
5
 10
585362050.1657954
 20
218227883.8533602
 10
585362914.9672045
 20
218228735.0225455
 10
585362799.0114603
 20
218232689.9177763
 10
585362378.1311631
 20
218233117.5388417
 10
585359595.0307294
 20
218230378.3095751
 97
0
 75
1
 76
1
 98
0
  0
HATCH
  5
D2
330
17
100
AcDbEntity
  8
HATCH_MAT_GRASS
 62
7
100
AcDbHatch
 10
0.0
 20
0.0
 30
0.0
210
0.0
220
0.0
230
1.0
  2
SOLID
 70
1
 71
0
 91
1
 92
3
 72
0
 73
1
 93
4
 10
585377585.2614048
 20
218243174.0628086
 10
585378557.2084501
 20
218244130.6886506
 10
585377117.4402454
 20
218245519.838946
 10
585376182.3270814
 20
218244599.4663598
 97
0
 75
1
 76
1
 98
0
  0
HATCH
  5
D3
330
17
100
AcDbEntity
  8
HATCH_MAT_GRASS
 62
7
100
AcDbHatch
 10
0.0
 20
0.0
 30
0.0
210
0.0
220
0.0
230
1.0
  2
SOLID
 70
1
 71
0
 91
1
 92
3
 72
0
 73
1
 93
4
 10
585389379.4264759
 20
218253106.8402881
 10
585390459.77374
 20
218253871.962329
 10
585388122.9326276
 20
218256351.8471854
 10
585387234.3501848
 20
218255477.2718369
 97
0
 75
1
 76
1
 98
0
  0
HATCH
  5
D4
330
17
100
AcDbEntity
  8
HATCH_MAT_GRASS
 62
7
100
AcDbHatch
 10
0.0
 20
0.0
 30
0.0
210
0.0
220
0.0
230
1.0
  2
SOLID
 70
1
 71
0
 91
1
 92
3
 72
0
 73
1
 93
4
 10
585406593.3835491
 20
218267766.5432158
 10
585407673.7308131
 20
218268531.6652567
 10
585407043.4216993
 20
218269510.4406637
 10
585405884.2325244
 20
218268678.0518904
 97
0
 75
1
 76
1
 98
0
  0
HATCH
  5
D5
330
17
100
AcDbEntity
  8
HATCH_MAT_GRASS
 62
7
100
AcDbHatch
 10
0.0
 20
0.0
 30
0.0
210
0.0
220
0.0
230
1.0
  2
SOLID
 70
1
 71
0
 91
1
 92
3
 72
0
 73
1
 93
4
 10
585397895.9390075
 20
218262385.9592842
 10
585398976.2862715
 20
218263151.0813251
 10
585398345.9771577
 20
218264129.8567321
 10
585397186.7879828
 20
218263297.4679588
 97
0
 75
1
 76
1
 98
0
  0
HATCH
  5
D6
330
17
100
AcDbEntity
  8
HATCH_MAT_GRASS
 62
7
100
AcDbHatch
 10
0.0
 20
0.0
 30
0.0
210
0.0
220
0.0
230
1.0
  2
SOLID
 70
1
 71
0
 91
1
 92
3
 72
0
 73
1
 93
4
 10
585476933.889144
 20
218359633.2077405
 10
585477783.6770906
 20
218359951.7616498
 10
585475871.8672972
 20
218363614.9834426
 10
585475074.9247394
 20
218363163.6740436
 97
0
 75
1
 76
1
 98
0
  0
HATCH
  5
D7
330
17
100
AcDbEntity
  8
HATCH_MAT_GRASS
 62
7
100
AcDbHatch
 10
0.0
 20
0.0
 30
0.0
210
0.0
220
0.0
230
1.0
  2
SOLID
 70
1
 71
0
 91
1
 92
3
 72
0
 73
1
 93
4
 10
585479748.7584455
 20
218354323.8771417
 10
585480678.2406479
 20
218354907.9420304
 10
585478500.4992201
 20
218358730.5889425
 10
585477544.5943234
 20
218358199.5669838
 97
0
 75
1
 76
1
 98
0
  0
HATCH
  5
D8
330
17
100
AcDbEntity
  8
HATCH_MAT_GRASS
 62
7
100
AcDbHatch
 10
0.0
 20
0.0
 30
0.0
210
0.0
220
0.0
230
1.0
  2
SOLID
 70
1
 71
0
 91
1
 92
3
 72
0
 73
1
 93
4
 10
585460804.0958768
 20
218306447.2258362
 10
585462074.9422442
 20
218308235.8689961
 10
585460285.870128
 20
218309895.0162876
 10
585459144.5801978
 20
218309350.6595142
 97
0
 75
1
 76
1
 98
0
  0
HATCH
  5
D9
330
17
100
AcDbEntity
  8
HATCH_MAT_GRASS
 62
7
100
AcDbHatch
 10
0.0
 20
0.0
 30
0.0
210
0.0
220
0.0
230
1.0
  2
SOLID
 70
1
 71
0
 91
1
 92
3
 72
0
 73
1
 93
4
 10
585343993.3585025
 20
218235794.5852129
 10
585345418.7620535
 20
218237197.5195362
 10
585344462.1362118
 20
218238169.4665826
 10
585343036.7326607
 20
218236766.5322594
 97
0
 75
1
 76
1
 98
0
  0
HATCH
  5
DA
330
17
100
AcDbEntity
  8
HATCH_MAT_GRASS
 62
7
100
AcDbHatch
 10
0.0
 20
0.0
 30
0.0
210
0.0
220
0.0
230
1.0
  2
SOLID
 70
1
 71
0
 91
1
 92
3
 72
0
 73
1
 93
4
 10
585335580.6973968
 20
218270227.0018705
 10
585336545.7804255
 20
218271176.8718949
 10
585337387.5410197
 20
218270321.6297643
 10
585336415.5939734
 20
218269365.0039227
 97
0
 75
1
 76
1
 98
0
  0
HATCH
  5
DB
330
17
100
AcDbEntity
  8
HATCH_MAT_GRASS
 62
7
100
AcDbHatch
 10
0.0
 20
0.0
 30
0.0
210
0.0
220
0.0
230
1.0
  2
SOLID
 70
1
 71
0
 91
1
 92
3
 72
0
 73
1
 93
7
 10
585344098.9077189
 20
218278065.109905
 10
585343257.6642652
 20
218278919.0150046
 10
585342771.635241
 20
218278441.570082
 10
585342435.5032793
 20
218278111.3747841
 10
585342285.2000782
 20
218277963.726194
 10
585343126.9606724
 20
218277108.4840632
 10
585343758.8906846
 20
218277730.4527003
 97
0
 75
1
 76
1
 98
0
  0
HATCH
  5
DC
330
17
100
AcDbEntity
  8
HATCH_MAT_GRASS
 62
7
100
AcDbHatch
 10
0.0
 20
0.0
 30
0.0
210
0.0
220
0.0
230
1.0
  2
SOLID
 70
1
 71
0
 91
1
 92
3
 72
0
 73
1
 93
4
 10
585349429.4153839
 20
218281501.5768344
 10
585351116.6434869
 20
218283162.2084606
 10
585352028.5507972
 20
218282235.6961522
 10
585350334.4586767
 20
218280568.3087091
 97
0
 75
1
 76
1
 98
0
  0
HATCH
  5
DD
330
17
100
AcDbEntity
  8
HATCH_MAT_GRASS
 62
7
100
AcDbHatch
 10
0.0
 20
0.0
 30
0.0
210
0.0
220
0.0
230
1.0
  2
SOLID
 70
1
 71
0
 91
1
 92
3
 72
0
 73
1
 93
4
 10
585363292.6479714
 20
218293849.8373611
 10
585365129.8210257
 20
218295358.1225357
 10
585365891.2607439
 20
218294430.6477081
 10
585364054.0876893
 20
218292922.3625334
 97
0
 75
1
 76
1
 98
0
  0
HATCH
  5
DE
330
17
100
AcDbEntity
  8
HATCH_MAT_GRASS
 62
7
100
AcDbHatch
 10
0.0
 20
0.0
 30
0.0
210
0.0
220
0.0
230
1.0
  2
SOLID
 70
1
 71
0
 91
1
 92
3
 72
0
 73
1
 93
7
 10
585381369.913575
 20
218309669.6083606
 10
585380595.1512047
 20
218310586.1454558
 10
585380081.455648
 20
218310164.4109234
 10
585379795.2563645
 20
218309929.4466153
 10
585379556.7629828
 20
218309733.6479687
 10
585380318.2027009
 20
218308806.1731409
 10
585381047.3988636
 20
218309404.8297341
 97
0
 75
1
 76
1
 98
0
  0
HATCH
  5
DF
330
17
100
AcDbEntity
  8
HATCH_MAT_GRASS
 62
7
100
AcDbHatch
 10
0.0
 20
0.0
 30
0.0
210
0.0
220
0.0
230
1.0
  2
SOLID
 70
1
 71
0
 91
1
 92
3
 72
0
 73
1
 93
7
 10
585369444.1330831
 20
218299878.7626538
 10
585368880.1631827
 20
218300565.7085458
 10
585368695.2027752
 20
218300816.507395
 10
585369360.683356
 20
218301362.8547229
 10
585369734.4042393
 20
218301669.6727009
 10
585370495.8439573
 20
218300742.1978733
 10
585369766.6477946
 20
218300143.5412802
 97
0
 75
1
 76
1
 98
0
  0
HATCH
  5
E0
330
17
100
AcDbEntity
  8
HATCH_MAT_GRASS
 62
7
100
AcDbHatch
 10
0.0
 20
0.0
 30
0.0
210
0.0
220
0.0
230
1.0
  2
SOLID
 70
1
 71
0
 91
1
 92
3
 72
0
 73
1
 93
4
 10
585420745.9481782
 20
218341350.9267673
 10
585417996.7817237
 20
218344699.5628693
 10
585417692.4927628
 20
218344482.3327299
 10
585420457.6453619
 20
218341114.2371729
 97
0
 75
1
 76
1
 98
0
  0
HATCH
  5
E1
330
17
100
AcDbEntity
  8
HATCH_MAT_GRASS
 62
7
100
AcDbHatch
 10
0.0
 20
0.0
 30
0.0
210
0.0
220
0.0
230
1.0
  2
SOLID
 70
1
 71
0
 91
1
 92
3
 72
0
 73
1
 93
4
 10
585447320.9064177
 20
218356085.9645248
 10
585447889.5918134
 20
218355029.2730277
 10
585450930.9039919
 20
218356666.0305149
 10
585450362.2185966
 20
218357722.722011
 97
0
 75
1
 76
1
 98
0
  0
HATCH
  5
E2
330
17
100
AcDbEntity
  8
HATCH_MAT_GRASS
 62
7
100
AcDbHatch
 10
0.0
 20
0.0
 30
0.0
210
0.0
220
0.0
230
1.0
  2
SOLID
 70
1
 71
0
 91
1
 92
3
 72
0
 73
1
 93
4
 10
585453092.6627148
 20
218359192.1819243
 10
585453661.3481106
 20
218358135.4904272
 10
585456702.660289
 20
218359772.2479144
 10
585456133.9748937
 20
218360828.9394106
 97
0
 75
1
 76
1
 98
0
  0
HATCH
  5
E3
330
17
100
AcDbEntity
  8
HATCH_MAT_GRASS
 62
7
100
AcDbHatch
 10
0.0
 20
0.0
 30
0.0
210
0.0
220
0.0
230
1.0
  2
SOLID
 70
1
 71
0
 91
1
 92
3
 72
0
 73
1
 93
4
 10
585288384.3395534
 20
218216156.1445955
 10
585286701.2199545
 20
218217866.1746179
 10
585287202.7503597
 20
218218359.7498377
 10
585288885.8418491
 20
218216649.7186204
 97
0
 75
1
 76
1
 98
0
  0
HATCH
  5
E4
330
17
100
AcDbEntity
  8
HATCH_MAT_GRASS
 62
7
100
AcDbHatch
 10
0.0
 20
0.0
 30
0.0
210
0.0
220
0.0
230
1.0
  2
SOLID
 70
1
 71
0
 91
1
 92
3
 72
0
 73
1
 93
4
 10
585547263.6101966
 20
218092706.8401437
 10
585546724.7705078
 20
218091634.6219798
 10
585549807.844487
 20
218090085.2333591
 10
585550346.6841757
 20
218091157.4515224
 97
0
 75
1
 76
1
 98
0
  0
HATCH
  5
E5
330
17
100
AcDbEntity
  8
HATCH_MAT_GRASS
 62
7
100
AcDbHatch
 10
0.0
 20
0.0
 30
0.0
210
0.0
220
0.0
230
1.0
  2
SOLID
 70
1
 71
0
 91
1
 92
3
 72
0
 73
1
 93
4
 10
585541407.065236
 20
218095650.0274258
 10
585540868.2255473
 20
218094577.8092619
 10
585543951.2995265
 20
218093028.4206412
 10
585544490.1392152
 20
218094100.6388045
 97
0
 75
1
 76
1
 98
0
  0
HATCH
  5
E6
330
17
100
AcDbEntity
  8
HATCH_MAT_GRASS
 62
7
100
AcDbHatch
 10
0.0
 20
0.0
 30
0.0
210
0.0
220
0.0
230
1.0
  2
SOLID
 70
1
 71
0
 91
1
 92
3
 72
0
 73
1
 93
4
 10
585532329.3982095
 20
218100211.9789378
 10
585531790.5585208
 20
218099139.760774
 10
585534873.6325
 20
218097590.3721532
 10
585535412.4721887
 20
218098662.5903165
 97
0
 75
1
 76
1
 98
0
  0
HATCH
  5
E7
330
17
100
AcDbEntity
  8
HATCH_MAT_GRASS
 62
7
100
AcDbHatch
 10
0.0
 20
0.0
 30
0.0
210
0.0
220
0.0
230
1.0
  2
SOLID
 70
1
 71
0
 91
1
 92
3
 72
0
 73
1
 93
4
 10
585526472.8532491
 20
218103155.1662198
 10
585525934.0135603
 20
218102082.948056
 10
585529017.0875396
 20
218100533.5594353
 10
585529555.9272282
 20
218101605.7775986
 97
0
 75
1
 76
1
 98
0
  0
HATCH
  5
E8
330
17
100
AcDbEntity
  8
HATCH_MAT_GRASS
 62
7
100
AcDbHatch
 10
0.0
 20
0.0
 30
0.0
210
0.0
220
0.0
230
1.0
  2
SOLID
 70
1
 71
0
 91
1
 92
3
 72
0
 73
1
 93
4
 10
585571768.4630712
 20
218099306.1619643
 10
585570136.3270496
 20
218096097.5740981
 10
585571142.725692
 20
218095591.4979005
 10
585572774.8617135
 20
218098800.0857662
 97
0
 75
1
 76
1
 98
0
  0
HATCH
  5
E9
330
17
100
AcDbEntity
  8
HATCH_MAT_GRASS
 62
7
100
AcDbHatch
 10
0.0
 20
0.0
 30
0.0
210
0.0
220
0.0
230
1.0
  2
SOLID
 70
1
 71
0
 91
1
 92
3
 72
0
 73
1
 93
4
 10
585560194.5335717
 20
218107079.1547932
 10
585557792.9731485
 20
218102300.3740886
 10
585558422.0078055
 20
218101984.2548046
 10
585560823.5682286
 20
218106763.0355088
 97
0
 75
1
 76
1
 98
0
  0
HATCH
  5
EA
330
17
100
AcDbEntity
  8
HATCH_MAT_GRASS
 62
7
100
AcDbHatch
 10
0.0
 20
0.0
 30
0.0
210
0.0
220
0.0
230
1.0
  2
SOLID
 70
1
 71
0
 91
1
 92
3
 72
0
 73
1
 93
4
 10
585592478.9231296
 20
218096015.7621628
 10
585596108.7504582
 20
218100461.7984527
 10
585597441.7004263
 20
218099702.0066653
 10
585593367.0610662
 20
218095210.0926317
 97
0
 75
1
 76
1
 98
0
  0
HATCH
  5
EB
330
17
100
AcDbEntity
  8
HATCH_MAT_GRASS
 62
7
100
AcDbHatch
 10
0.0
 20
0.0
 30
0.0
210
0.0
220
0.0
230
1.0
  2
SOLID
 70
1
 71
0
 91
1
 92
3
 72
0
 73
1
 93
4
 10
585496604.0723133
 20
218244189.1970284
 10
585494931.2641101
 20
218247182.2160584
 10
585495255.2851876
 20
218247363.3886885
 10
585500154.1228737
 20
218245977.2468042
 97
0
 75
1
 76
1
 98
0
  0
HATCH
  5
EC
330
17
100
AcDbEntity
  8
HATCH_MAT_GRASS
 62
7
100
AcDbHatch
 10
0.0
 20
0.0
 30
0.0
210
0.0
220
0.0
230
1.0
  2
SOLID
 70
1
 71
0
 91
1
 92
3
 72
0
 73
1
 93
4
 10
585410584.9721807
 20
218193509.094153
 10
585413344.139988
 20
218190707.4934964
 10
585413844.1829798
 20
218191202.0713575
 10
585411085.015172
 20
218194003.6720141
 97
0
 75
1
 76
1
 98
0
  0
HATCH
  5
ED
330
17
100
AcDbEntity
  8
HATCH_MAT_GRASS
 62
7
100
AcDbHatch
 10
0.0
 20
0.0
 30
0.0
210
0.0
220
0.0
230
1.0
  2
SOLID
 70
1
 71
0
 91
1
 92
3
 72
0
 73
1
 93
4
 10
585373782.1315227
 20
218217261.7230613
 10
585373222.6437434
 20
218217833.5438564
 10
585376335.238475
 20
218220897.0734653
 10
585376896.412205
 20
218220326.9120446
 97
0
 75
1
 76
1
 98
0
  0
HATCH
  5
EE
330
17
100
AcDbEntity
  8
HATCH_MAT_GRASS
 62
7
100
AcDbHatch
 10
0.0
 20
0.0
 30
0.0
210
0.0
220
0.0
230
1.0
  2
SOLID
 70
1
 71
0
 91
1
 92
3
 72
0
 73
1
 93
4
 10
585416206.5107917
 20
218255002.693142
 10
585415439.9324754
 20
218256116.2039047
 10
585418767.0069348
 20
218258369.0037373
 10
585419515.990585
 20
218257281.050507
 97
0
 75
1
 76
1
 98
0
  0
HATCH
  5
EF
330
17
100
AcDbEntity
  8
HATCH_MAT_GRASS
 62
7
100
AcDbHatch
 10
0.0
 20
0.0
 30
0.0
210
0.0
220
0.0
230
1.0
  2
SOLID
 70
1
 71
0
 91
1
 92
3
 72
0
 73
1
 93
4
 10
585420504.409859
 20
218257961.5116288
 10
585419622.2792585
 20
218259242.8704894
 10
585420579.5023026
 20
218260137.9433646
 10
585421571.9026746
 20
218258696.4096403
 97
0
 75
1
 76
1
 98
0
  0
HATCH
  5
F0
330
17
100
AcDbEntity
  8
HATCH_MAT_GRASS
 62
7
100
AcDbHatch
 10
0.0
 20
0.0
 30
0.0
210
0.0
220
0.0
230
1.0
  2
SOLID
 70
1
 71
0
 91
1
 92
3
 72
0
 73
1
 93
4
 10
585401308.5856687
 20
218245995.4134236
 10
585399654.1002415
 20
218248398.673849
 10
585400839.4688313
 20
218249081.826528
 10
585402431.8829895
 20
218246768.7291363
 97
0
 75
1
 76
1
 98
0
  0
HATCH
  5
F1
330
17
100
AcDbEntity
  8
HATCH_MAT_GRASS
 62
7
100
AcDbHatch
 10
0.0
 20
0.0
 30
0.0
210
0.0
220
0.0
230
1.0
  2
SOLID
 70
1
 71
0
 91
1
 92
3
 72
0
 73
1
 93
4
 10
585382179.3930353
 20
218226649.1041917
 10
585378323.0097193
 20
218230570.6232073
 10
585379393.5633174
 20
218231624.3012247
 10
585383251.6325842
 20
218227704.4415836
 97
0
 75
1
 76
1
 98
0
  0
HATCH
  5
F2
330
17
100
AcDbEntity
  8
HATCH_MAT_GRASS
 62
7
100
AcDbHatch
 10
0.0
 20
0.0
 30
0.0
210
0.0
220
0.0
230
1.0
  2
SOLID
 70
1
 71
0
 91
1
 92
3
 72
0
 73
1
 93
7
 10
585532531.1894579
 20
218235941.3076747
 10
585531722.3654794
 20
218237039.3595106
 10
585530720.6385065
 20
218236312.7582983
 10
585529201.3814262
 20
218238407.2783325
 10
585529455.5064465
 20
218238591.6074995
 10
585533988.9235629
 20
218238076.0558747
 10
585534407.040029
 20
218237421.7140147
 97
0
 75
1
 76
1
 98
0
  0
HATCH
  5
F3
330
17
100
AcDbEntity
  8
HATCH_MAT_GRASS
 62
7
100
AcDbHatch
 10
0.0
 20
0.0
 30
0.0
210
0.0
220
0.0
230
1.0
  2
SOLID
 70
1
 71
0
 91
1
 92
3
 72
0
 73
1
 93
5
 10
585534050.6717137
 20
218233876.2908292
 10
585533167.2761776
 20
218234920.2523009
 10
585535035.2880398
 20
218236238.1666008
 10
585535126.5345323
 20
218235997.3522832
 10
585534473.1994437
 20
218234169.3491645
 97
0
 75
1
 76
1
 98
0
  0
HATCH
  5
F4
330
17
100
AcDbEntity
  8
HATCH_MAT_GRASS
 62
7
100
AcDbHatch
 10
0.0
 20
0.0
 30
0.0
210
0.0
220
0.0
230
1.0
  2
SOLID
 70
1
 71
0
 91
1
 92
3
 72
0
 73
1
 93
4
 10
585496460.976448
 20
218023103.6792287
 10
585497367.210362
 20
218022281.7681294
 10
585495010.1223631
 20
218019760.2710287
 10
585494143.6971238
 20
218020546.0889029
 97
0
 75
1
 76
1
 98
0
  0
HATCH
  5
F5
330
17
100
AcDbEntity
  8
HATCH_MAT_GRASS
 62
7
100
AcDbHatch
 10
0.0
 20
0.0
 30
0.0
210
0.0
220
0.0
230
1.0
  2
SOLID
 70
1
 71
0
 91
1
 92
3
 72
0
 73
1
 93
4
 10
585500936.5297568
 20
218028044.1461079
 10
585501821.7131641
 20
218027241.0890815
 10
585499507.207494
 20
218024531.5625861
 10
585498470.3134329
 20
218025471.6938927
 97
0
 75
1
 76
1
 98
0
  0
HATCH
  5
F6
330
17
100
AcDbEntity
  8
HATCH_MAT_GRASS
 62
7
100
AcDbHatch
 10
0.0
 20
0.0
 30
0.0
210
0.0
220
0.0
230
1.0
  2
SOLID
 70
1
 71
0
 91
1
 92
3
 72
0
 73
1
 93
4
 10
585508342.2514275
 20
218036217.3481141
 10
585509418.9541632
 20
218035241.1235824
 10
585506400.883476
 20
218031992.4433798
 10
585505363.9894149
 20
218032932.5746863
 97
0
 75
1
 76
1
 98
0
  0
HATCH
  5
F7
330
17
100
AcDbEntity
  8
HATCH_MAT_GRASS
 62
7
100
AcDbHatch
 10
0.0
 20
0.0
 30
0.0
210
0.0
220
0.0
230
1.0
  2
SOLID
 70
1
 71
0
 91
1
 92
3
 72
0
 73
1
 93
4
 10
585513180.2509203
 20
218041557.8644019
 10
585514256.953656
 20
218040581.6398703
 10
585511238.8829687
 20
218037332.9596676
 10
585510201.9889076
 20
218038273.0909741
 97
0
 75
1
 76
1
 98
0
  0
HATCH
  5
F8
330
17
100
AcDbEntity
  8
HATCH_MAT_GRASS
 62
7
100
AcDbHatch
 10
0.0
 20
0.0
 30
0.0
210
0.0
220
0.0
230
1.0
  2
SOLID
 70
1
 71
0
 91
1
 92
3
 72
0
 73
1
 93
6
 10
585558477.7705743
 20
218081578.1329995
 10
585559360.8288244
 20
218080778.6154854
 10
585559433.9488943
 20
218079284.8532938
 10
585556952.409027
 20
218079163.381235
 10
585556215.076373
 20
218078350.147952
 10
585555586.0772978
 20
218078920.4413318
 97
0
 75
1
 76
1
 98
0
  0
HATCH
  5
F9
330
17
100
AcDbEntity
  8
HATCH_MAT_GRASS
 62
7
100
AcDbHatch
 10
0.0
 20
0.0
 30
0.0
210
0.0
220
0.0
230
1.0
  2
SOLID
 70
1
 71
0
 91
1
 92
3
 72
0
 73
1
 93
6
 10
585468170.0289094
 20
217944921.367608
 10
585469178.471726
 20
217943998.1539037
 10
585469896.6328717
 20
217944797.1509317
 10
585470515.1063503
 20
217945491.7954843
 10
585469778.6813875
 20
217946163.158782
 10
585469507.0383765
 20
217946402.9168728
 97
0
 75
1
 76
1
 98
0
  0
HATCH
  5
FA
330
17
100
AcDbEntity
  8
HATCH_MAT_GRASS
 62
7
100
AcDbHatch
 10
0.0
 20
0.0
 30
0.0
210
0.0
220
0.0
230
1.0
  2
SOLID
 70
1
 71
0
 91
1
 92
3
 72
0
 73
1
 93
6
 10
585477324.0829906
 20
217975377.0064082
 10
585478213.0822723
 20
217974570.9791421
 10
585478508.0835474
 20
217974896.3476909
 10
585478893.6716222
 20
217975321.6279946
 10
585479123.5375026
 20
217975582.6000638
 10
585478237.932587
 20
217976384.9271938
 97
0
 75
1
 76
1
 98
0
  0
HATCH
  5
FB
330
17
100
AcDbEntity
  8
HATCH_MAT_GRASS
 62
7
100
AcDbHatch
 10
0.0
 20
0.0
 30
0.0
210
0.0
220
0.0
230
1.0
  2
SOLID
 70
1
 71
0
 91
1
 92
3
 72
0
 73
1
 93
6
 10
585483389.4489768
 20
217983126.3358586
 10
585484278.4482585
 20
217982320.3085925
 10
585484497.3807015
 20
217982561.7778242
 10
585484882.9687763
 20
217982987.0581279
 10
585485171.1038125
 20
217983319.7414626
 10
585484227.2297412
 20
217984050.3573272
 97
0
 75
1
 76
1
 98
0
  0
HATCH
  5
FC
330
17
100
AcDbEntity
  8
HATCH_MAT_GRASS
 62
7
100
AcDbHatch
 10
0.0
 20
0.0
 30
0.0
210
0.0
220
0.0
230
1.0
  2
SOLID
 70
1
 71
0
 91
1
 92
3
 72
0
 73
1
 93
4
 10
585501507.2154603
 20
218001340.9543451
 10
585500619.7608004
 20
218002145.5811522
 10
585497642.5883805
 20
217998860.407231
 10
585498530.0430405
 20
217998055.780424
 97
0
 75
1
 76
1
 98
0
  0
HATCH
  5
FD
330
17
100
AcDbEntity
  8
HATCH_MAT_GRASS
 62
7
100
AcDbHatch
 10
0.0
 20
0.0
 30
0.0
210
0.0
220
0.0
230
1.0
  2
SOLID
 70
1
 71
0
 91
1
 92
3
 72
0
 73
1
 93
4
 10
585527428.7136018
 20
218031847.568755
 10
585530466.4113464
 20
218035175.0542256
 10
585531275.4851563
 20
218034326.757095
 10
585528317.7129838
 20
218031041.541398
 97
0
 75
1
 76
1
 98
0
  0
HATCH
  5
FE
330
17
100
AcDbEntity
  8
HATCH_MAT_GRASS
 62
7
100
AcDbHatch
 10
0.0
 20
0.0
 30
0.0
210
0.0
220
0.0
230
1.0
  2
SOLID
 70
1
 71
0
 91
1
 92
3
 72
0
 73
1
 93
4
 10
585522408.9323512
 20
218026179.2667694
 10
585525446.6300958
 20
218029506.75224
 10
585526255.7039058
 20
218028658.4551093
 10
585523297.9317333
 20
218025373.2394124
 97
0
 75
1
 76
1
 98
0
  0
HATCH
  5
FF
330
17
100
AcDbEntity
  8
HATCH_MAT_GRASS
 62
7
100
AcDbHatch
 10
0.0
 20
0.0
 30
0.0
210
0.0
220
0.0
230
1.0
  2
SOLID
 70
1
 71
0
 91
1
 92
3
 72
0
 73
1
 93
4
 10
585541108.9433569
 20
218043795.0091959
 10
585543998.6376873
 20
218046173.5265232
 10
585544357.0463983
 20
218045848.5687878
 10
585541903.1304888
 20
218043141.6816204
 97
0
 75
1
 76
1
 98
0
  0
HATCH
  5
100
330
17
100
AcDbEntity
  8
HATCH_MAT_GRASS
 62
7
100
AcDbHatch
 10
0.0
 20
0.0
 30
0.0
210
0.0
220
0.0
230
1.0
  2
SOLID
 70
1
 71
0
 91
1
 92
3
 72
0
 73
1
 93
4
 10
585536294.403542
 20
218038742.5016494
 10
585538861.8266798
 20
218041528.3306573
 10
585539670.9004898
 20
218040680.0335267
 10
585537183.4029241
 20
218037936.4742924
 97
0
 75
1
 76
1
 98
0
  0
HATCH
  5
101
330
17
100
AcDbEntity
  8
HATCH_MAT_GRASS
 62
7
100
AcDbHatch
 10
0.0
 20
0.0
 30
0.0
210
0.0
220
0.0
230
1.0
  2
SOLID
 70
1
 71
0
 91
1
 92
3
 72
0
 73
1
 93
4
 10
585551858.5795624
 20
218055713.1882113
 10
585552282.0792121
 20
218056086.5946292
 10
585554581.9300005
 20
218053921.3633374
 10
585554282.1249549
 20
218053598.0301378
 97
0
 75
1
 76
1
 98
0
  0
HATCH
  5
102
330
17
100
AcDbEntity
  8
HATCH_MAT_GRASS
 62
7
100
AcDbHatch
 10
0.0
 20
0.0
 30
0.0
210
0.0
220
0.0
230
1.0
  2
SOLID
 70
1
 71
0
 91
1
 92
3
 72
0
 73
1
 93
4
 10
585555533.185308
 20
218059289.7522088
 10
585557681.2633725
 20
218057342.158677
 10
585555478.3497972
 20
218054910.1131416
 10
585553239.5985212
 20
218057019.9785185
 97
0
 75
1
 76
1
 98
0
  0
HATCH
  5
103
330
17
100
AcDbEntity
  8
HATCH_MAT_GRASS
 62
7
100
AcDbHatch
 10
0.0
 20
0.0
 30
0.0
210
0.0
220
0.0
230
1.0
  2
SOLID
 70
1
 71
0
 91
1
 92
3
 72
0
 73
1
 93
4
 10
585563963.2197455
 20
218068442.1942101
 10
585564439.572448
 20
218068960.3606127
 10
585567179.8573982
 20
218066475.8335167
 10
585566703.5020533
 20
218065957.6675746
 97
0
 75
1
 76
1
 98
0
  0
HATCH
  5
104
330
17
100
AcDbEntity
  8
HATCH_MAT_GRASS
 62
7
100
AcDbHatch
 10
0.0
 20
0.0
 30
0.0
210
0.0
220
0.0
230
1.0
  2
SOLID
 70
1
 71
0
 91
1
 92
3
 72
0
 73
1
 93
4
 10
585583550.5684097
 20
218086170.635054
 10
585586106.5029532
 20
218088989.7944473
 10
585587245.3615645
 20
218087957.1756361
 10
585584688.2741627
 20
218085138.6373134
 97
0
 75
1
 76
1
 98
0
  0
HATCH
  5
105
330
17
100
AcDbEntity
  8
HATCH_MAT_GRASS
 62
7
100
AcDbHatch
 10
0.0
 20
0.0
 30
0.0
210
0.0
220
0.0
230
1.0
  2
SOLID
 70
1
 71
0
 91
1
 92
3
 72
0
 73
1
 93
4
 10
585574465.7773628
 20
218076148.3117686
 10
585577021.7119064
 20
218078967.4711617
 10
585578158.549874
 20
218077936.684833
 10
585575601.4624722
 20
218075118.1465102
 97
0
 75
1
 76
1
 98
0
  0
HATCH
  5
106
330
17
100
AcDbEntity
  8
HATCH_MAT_GRASS
 62
7
100
AcDbHatch
 10
0.0
 20
0.0
 30
0.0
210
0.0
220
0.0
230
1.0
  2
SOLID
 70
1
 71
0
 91
1
 92
3
 72
0
 73
1
 93
4
 10
585298694.9561727
 20
217896362.1349728
 10
585299558.4366368
 20
217898194.4122246
 10
585296072.4059942
 20
217899809.0007591
 10
585298332.9261652
 20
217896604.7058493
 97
0
 75
1
 76
1
 98
0
  0
HATCH
  5
107
330
17
100
AcDbEntity
  8
HATCH_MAT_GRASS
 62
7
100
AcDbHatch
 10
0.0
 20
0.0
 30
0.0
210
0.0
220
0.0
230
1.0
  2
SOLID
 70
1
 71
0
 91
1
 92
3
 72
0
 73
1
 93
9
 10
585285207.3126546
 20
218123639.7246687
 10
585286438.3720421
 20
218122831.0680352
 10
585287189.6016972
 20
218121968.8018245
 10
585287878.8920879
 20
218120573.2686804
 10
585288436.1865197
 20
218121151.4589191
 10
585288281.1770962
 20
218123576.3238039
 10
585287800.767532
 20
218123301.6140743
 10
585287484.73846
 20
218123729.3209478
 10
585286546.3891258
 20
218124806.3643249
 97
0
 75
1
 76
1
 98
0
  0
HATCH
  5
108
330
17
100
AcDbEntity
  8
HATCH_MAT_GRASS
 62
7
100
AcDbHatch
 10
0.0
 20
0.0
 30
0.0
210
0.0
220
0.0
230
1.0
  2
SOLID
 70
1
 71
0
 91
1
 92
3
 72
0
 73
1
 93
4
 10
585391784.1612314
 20
217901657.788539
 10
585393543.6345319
 20
217899515.1243203
 10
585392616.2415427
 20
217898753.5849295
 10
585390856.7682421
 20
217900896.2491483
 97
0
 75
1
 76
1
 98
0
  0
HATCH
  5
109
330
17
100
AcDbEntity
  8
HATCH_MAT_GRASS
 62
7
100
AcDbHatch
 10
0.0
 20
0.0
 30
0.0
210
0.0
220
0.0
230
1.0
  2
SOLID
 70
1
 71
0
 91
1
 92
3
 72
0
 73
1
 93
4
 10
585551809.7657585
 20
218073483.0660283
 10
585552009.8913746
 20
218069394.720939
 10
585550599.3940028
 20
218067868.0467019
 10
585548554.7279266
 20
218069886.3729008
 97
0
 75
1
 76
1
 98
0
  0
HATCH
  5
10A
330
17
100
AcDbEntity
  8
HATCH_MAT_GRASS
 62
7
100
AcDbHatch
 10
0.0
 20
0.0
 30
0.0
210
0.0
220
0.0
230
1.0
  2
SOLID
 70
1
 71
0
 91
1
 92
3
 72
0
 73
1
 93
4
 10
585408439.4099442
 20
218331133.671723
 10
585407297.2612352
 20
218332524.8720253
 10
585410225.2585945
 20
218334928.7015485
 10
585411367.4068242
 20
218333537.5031286
 97
0
 75
1
 76
1
 98
0
  0
HATCH
  5
10B
330
17
100
AcDbEntity
  8
HATCH_MAT_GRASS
 62
7
100
AcDbHatch
 10
0.0
 20
0.0
 30
0.0
210
0.0
220
0.0
230
1.0
  2
SOLID
 70
1
 71
0
 91
1
 92
3
 72
0
 73
1
 93
4
 10
585295335.8500141
 20
218232538.2945305
 10
585296177.6072842
 20
218231683.0525979
 10
585298877.5773591
 20
218234340.4416533
 10
585298035.8223207
 20
218235195.6742676
 97
0
 75
1
 76
1
 98
0
  0
HATCH
  5
10C
330
17
100
AcDbEntity
  8
HATCH_MAT_GRASS
 62
7
100
AcDbHatch
 10
0.0
 20
0.0
 30
0.0
210
0.0
220
0.0
230
1.0
  2
SOLID
 70
1
 71
0
 91
1
 92
3
 72
0
 73
1
 93
5
 10
585322442.0338595
 20
218168459.6202436
 10
585321312.2751682
 20
218169607.473027
 10
585321144.302807
 20
218171072.4722624
 10
585323176.9278055
 20
218173073.0561505
 10
585325121.7455282
 20
218171097.0904611
 97
0
 75
1
 76
1
 98
0
  0
HATCH
  5
10D
330
17
100
AcDbEntity
  8
HATCH_MAT_GRASS
 62
7
100
AcDbHatch
 10
0.0
 20
0.0
 30
0.0
210
0.0
220
0.0
230
1.0
  2
SOLID
 70
1
 71
0
 91
1
 92
3
 72
0
 73
1
 93
4
 10
585313453.4774182
 20
218174170.7366221
 10
585315317.0895718
 20
218176108.4513517
 10
585313965.7463285
 20
218177481.1531944
 10
585313476.0887663
 20
218176999.214447
 97
0
 75
1
 76
1
 98
0
  0
HATCH
  5
10E
330
17
100
AcDbEntity
  8
HATCH_MAT_GRASS
 62
7
100
AcDbHatch
 10
0.0
 20
0.0
 30
0.0
210
0.0
220
0.0
230
1.0
  2
SOLID
 70
1
 71
0
 91
1
 92
3
 72
0
 73
1
 93
5
 10
585307869.9648936
 20
218183674.8482821
 10
585305954.6195378
 20
218181789.6953092
 10
585304770.0768502
 20
218183072.5178324
 10
585305081.4905564
 20
218185527.9751899
 10
585305571.4323596
 20
218186010.1938365
 97
0
 75
1
 76
1
 98
0
  0
HATCH
  5
10F
330
17
100
AcDbEntity
  8
HATCH_MAT_GRASS
 62
7
100
AcDbHatch
 10
0.0
 20
0.0
 30
0.0
210
0.0
220
0.0
230
1.0
  2
SOLID
 70
1
 71
0
 91
1
 92
3
 72
0
 73
1
 93
4
 10
585188132.8993095
 20
218147038.7477745
 10
585187165.2686939
 20
218148149.4003912
 10
585184300.4032583
 20
218146101.8062416
 10
585185490.4047405
 20
218144736.7368444
 97
0
 75
1
 76
1
 98
0
  0
HATCH
  5
110
330
17
100
AcDbEntity
  8
HATCH_MAT_GRASS
 62
7
100
AcDbHatch
 10
0.0
 20
0.0
 30
0.0
210
0.0
220
0.0
230
1.0
  2
SOLID
 70
1
 71
0
 91
1
 92
3
 72
0
 73
1
 93
5
 10
585159927.6740375
 20
218121132.2249767
 10
585159500.6230162
 20
218121622.0181312
 10
585159572.9147661
 20
218125673.211341
 10
585160167.5023439
 20
218126191.2321291
 10
585162867.1657377
 20
218123692.7873075
 97
0
 75
1
 76
1
 98
0
  0
HATCH
  5
111
330
17
100
AcDbEntity
  8
HATCH_MAT_GRASS
 62
7
100
AcDbHatch
 10
0.0
 20
0.0
 30
0.0
210
0.0
220
0.0
230
1.0
  2
SOLID
 70
1
 71
0
 91
1
 92
3
 72
0
 73
1
 93
4
 10
585285069.927922
 20
218212893.4836361
 10
585283386.6210465
 20
218214603.7922724
 10
585285845.7408189
 20
218217024.1849686
 10
585287528.8443815
 20
218215314.082909
 97
0
 75
1
 76
1
 98
0
  0
HATCH
  5
112
330
17
100
AcDbEntity
  8
HATCH_MAT_GRASS
 62
7
100
AcDbHatch
 10
0.0
 20
0.0
 30
0.0
210
0.0
220
0.0
230
1.0
  2
SOLID
 70
1
 71
0
 91
1
 92
3
 72
0
 73
1
 93
4
 10
585281036.2794833
 20
218208923.5568284
 10
585279352.9987869
 20
218210633.7414754
 10
585281812.2085619
 20
218213054.1767096
 10
585283495.4595078
 20
218211343.9627812
 97
0
 75
1
 76
1
 98
0
  0
HATCH
  5
113
330
17
100
AcDbEntity
  8
HATCH_MAT_GRASS
 62
7
100
AcDbHatch
 10
0.0
 20
0.0
 30
0.0
210
0.0
220
0.0
230
1.0
  2
SOLID
 70
1
 71
0
 91
1
 92
3
 72
0
 73
1
 93
4
 10
585274518.7164557
 20
218205875.6271771
 10
585277218.6342134
 20
218208533.0480723
 10
585278586.2502974
 20
218207143.5538778
 10
585275886.3190367
 20
218204486.1196922
 97
0
 75
1
 76
1
 98
0
  0
HATCH
  5
114
330
17
100
AcDbEntity
  8
HATCH_MAT_GRASS
 62
7
100
AcDbHatch
 10
0.0
 20
0.0
 30
0.0
210
0.0
220
0.0
230
1.0
  2
SOLID
 70
1
 71
0
 91
1
 92
3
 72
0
 73
1
 93
4
 10
585290424.1765393
 20
218227704.0238475
 10
585291265.9122854
 20
218226848.7826377
 10
585293965.8771645
 20
218229506.1769724
 10
585293124.1198941
 20
218230361.4189049
 97
0
 75
1
 76
1
 98
0
  0
HATCH
  5
115
330
17
100
AcDbEntity
  8
HATCH_MAT_GRASS
 62
7
100
AcDbHatch
 10
0.0
 20
0.0
 30
0.0
210
0.0
220
0.0
230
1.0
  2
SOLID
 70
1
 71
0
 91
1
 92
3
 72
0
 73
1
 93
4
 10
585233361.9896771
 20
217953205.5147631
 10
585234310.2405217
 20
217950600.216971
 10
585235437.8716673
 20
217951010.6411418
 10
585234489.6208227
 20
217953615.938934
 97
0
 75
1
 76
1
 98
0
  0
HATCH
  5
116
330
17
100
AcDbEntity
  8
HATCH_MAT_GRASS
 62
7
100
AcDbHatch
 10
0.0
 20
0.0
 30
0.0
210
0.0
220
0.0
230
1.0
  2
SOLID
 70
1
 71
0
 91
1
 92
3
 72
0
 73
1
 93
3
 10
585470072.7339836
 20
217973471.0808582
 10
585469057.9688381
 20
217974391.1360174
 10
585468004.5880315
 20
217973513.7564926
 97
0
 75
1
 76
1
 98
0
  0
HATCH
  5
117
330
17
100
AcDbEntity
  8
HATCH_MAT_GRASS
 62
7
100
AcDbHatch
 10
0.0
 20
0.0
 30
0.0
210
0.0
220
0.0
230
1.0
  2
SOLID
 70
1
 71
0
 91
1
 92
3
 72
0
 73
1
 93
6
 10
585480538.4866041
 20
217980496.4016887
 10
585481297.0284703
 20
217979808.6559966
 10
585482940.5255562
 20
217981621.3337945
 10
585483829.4391084
 20
217980815.3842563
 10
585486024.6473074
 20
217983236.5660123
 10
585484587.4159511
 20
217984539.6577958
 97
0
 75
1
 76
1
 98
0
  0
HATCH
  5
118
330
17
100
AcDbEntity
  8
HATCH_MAT_GRASS
 62
7
100
AcDbHatch
 10
0.0
 20
0.0
 30
0.0
210
0.0
220
0.0
230
1.0
  2
SOLID
 70
1
 71
0
 91
1
 92
3
 72
0
 73
1
 93
4
 10
585279363.8741629
 20
218207908.9287229
 10
585277996.2488132
 20
218209298.3997357
 10
585278497.7792182
 20
218209791.9749555
 10
585279865.3764586
 20
218208402.5027478
 97
0
 75
1
 76
1
 98
0
  0
HATCH
  5
119
330
17
100
AcDbEntity
  8
HATCH_MAT_GRASS
 62
7
100
AcDbHatch
 10
0.0
 20
0.0
 30
0.0
210
0.0
220
0.0
230
1.0
  2
SOLID
 70
1
 71
0
 91
1
 92
3
 72
0
 73
1
 93
5
 10
585174567.5343746
 20
218093289.9708426
 10
585173663.028526
 20
218092501.3840243
 10
585174906.3589386
 20
218091075.2891365
 10
585175255.3942847
 20
218091334.3190786
 10
585175821.0020229
 20
218091827.4400544
 97
0
 75
1
 76
1
 98
0
  0
HATCH
  5
11A
330
17
100
AcDbEntity
  8
HATCH_MAT_GRASS
 62
7
100
AcDbHatch
 10
0.0
 20
0.0
 30
0.0
210
0.0
220
0.0
230
1.0
  2
SOLID
 70
1
 71
0
 91
1
 92
3
 72
0
 73
1
 93
4
 10
585541539.3175881
 20
218066416.0808649
 10
585540720.2146779
 20
218065737.2440396
 10
585544229.7775052
 20
218061502.5104285
 10
585545375.6047239
 20
218062626.5679004
 97
0
 75
1
 76
1
 98
0
  0
HATCH
  5
11B
330
17
100
AcDbEntity
  8
HATCH_MAT_GRASS
 62
7
100
AcDbHatch
 10
0.0
 20
0.0
 30
0.0
210
0.0
220
0.0
230
1.0
  2
SOLID
 70
1
 71
0
 91
1
 92
3
 72
0
 73
1
 93
5
 10
585528226.105443
 20
218059894.8907927
 10
585529821.2161342
 20
218058448.9738194
 10
585530572.2044319
 20
218058916.7388466
 10
585532504.8318444
 20
218060578.6929648
 10
585530479.907911
 20
218062413.604906
 97
0
 75
1
 76
1
 98
0
  0
HATCH
  5
11C
330
17
100
AcDbEntity
  8
HATCH_MAT_GRASS
 62
7
100
AcDbHatch
 10
0.0
 20
0.0
 30
0.0
210
0.0
220
0.0
230
1.0
  2
SOLID
 70
1
 71
0
 91
1
 92
3
 72
0
 73
1
 93
4
 10
585516551.0347486
 20
218047417.6056861
 10
585515080.7798496
 20
218048750.6388633
 10
585517398.4443443
 20
218051306.8825014
 10
585519179.8469323
 20
218049691.7416489
 97
0
 75
1
 76
1
 98
0
  0
HATCH
  5
11D
330
17
100
AcDbEntity
  8
HATCH_MAT_GRASS
 62
7
100
AcDbHatch
 10
0.0
 20
0.0
 30
0.0
210
0.0
220
0.0
230
1.0
  2
SOLID
 70
1
 71
0
 91
1
 92
3
 72
0
 73
1
 93
4
 10
585517530.376743
 20
218046682.0141668
 10
585519048.6121215
 20
218047911.3298277
 10
585522666.8867332
 20
218043728.7459629
 10
585521731.4528607
 20
218042873.0325769
 97
0
 75
1
 76
1
 98
0
  0
HATCH
  5
11E
330
17
100
AcDbEntity
  8
HATCH_MAT_GRASS
 62
7
100
AcDbHatch
 10
0.0
 20
0.0
 30
0.0
210
0.0
220
0.0
230
1.0
  2
SOLID
 70
1
 71
0
 91
1
 92
3
 72
0
 73
1
 93
4
 10
585487407.1519854
 20
218301745.851698
 10
585488677.1883204
 20
218299736.5889705
 10
585489777.3098958
 20
218300431.9656153
 10
585488457.8852955
 20
218302410.0104782
 97
0
 75
1
 76
1
 98
0
  0
HATCH
  5
11F
330
17
100
AcDbEntity
  8
HATCH_MAT_GRASS
 62
7
100
AcDbHatch
 10
0.0
 20
0.0
 30
0.0
210
0.0
220
0.0
230
1.0
  2
SOLID
 70
1
 71
0
 91
1
 92
3
 72
0
 73
1
 93
4
 10
585497212.658914
 20
218287667.1442726
 10
585496165.1623185
 20
218287081.6949721
 10
585497324.839808
 20
218285006.7787992
 10
585498372.3364055
 20
218285592.2280999
 97
0
 75
1
 76
1
 98
0
  0
HATCH
  5
120
330
17
100
AcDbEntity
  8
HATCH_MAT_GRASS
 62
7
100
AcDbHatch
 10
0.0
 20
0.0
 30
0.0
210
0.0
220
0.0
230
1.0
  2
SOLID
 70
1
 71
0
 91
1
 92
3
 72
0
 73
1
 93
4
 10
585438726.9506577
 20
218351460.8615754
 10
585439295.6360534
 20
218350404.1700783
 10
585442336.9482319
 20
218352040.9275655
 10
585441768.2628366
 20
218353097.6190617
 97
0
 75
1
 76
1
 98
0
  0
HATCH
  5
121
330
17
100
AcDbEntity
  8
HATCH_MAT_GRASS
 62
7
100
AcDbHatch
 10
0.0
 20
0.0
 30
0.0
210
0.0
220
0.0
230
1.0
  2
SOLID
 70
1
 71
0
 91
1
 92
3
 72
0
 73
1
 93
4
 10
585445727.0737264
 20
218096949.3993819
 10
585441949.0357678
 20
218095119.5166138
 10
585443072.0409678
 20
218093295.4267253
 10
585446664.6484303
 20
218095013.6508828
 97
0
 75
1
 76
1
 98
0
  0
HATCH
  5
122
330
17
100
AcDbEntity
  8
HATCH_MAT_GRASS
 62
7
100
AcDbHatch
 10
0.0
 20
0.0
 30
0.0
210
0.0
220
0.0
230
1.0
  2
SOLID
 70
1
 71
0
 91
1
 92
3
 72
0
 73
1
 93
4
 10
585409268.4882005
 20
218251741.926767
 10
585408509.7919363
 20
218252852.6400899
 10
585409793.9696083
 20
218253383.6135764
 10
585410391.7855214
 20
218252515.2424795
 97
0
 75
1
 76
1
 98
0
  0
HATCH
  5
123
330
17
100
AcDbEntity
  8
HATCH_MAT_GRASS
 62
7
100
AcDbHatch
 10
0.0
 20
0.0
 30
0.0
210
0.0
220
0.0
230
1.0
  2
SOLID
 70
1
 71
0
 91
1
 92
3
 72
0
 73
1
 93
4
 10
585316872.2221051
 20
218240966.992742
 10
585313807.8627487
 20
218244080.4303896
 10
585314666.5841792
 20
218244925.6154702
 10
585317496.064164
 20
218241479.1555599
 97
0
 75
1
 76
1
 98
0
  0
HATCH
  5
124
330
17
100
AcDbEntity
  8
HATCH_MAT_GRASS
 62
7
100
AcDbHatch
 10
0.0
 20
0.0
 30
0.0
210
0.0
220
0.0
230
1.0
  2
SOLID
 70
1
 71
0
 91
1
 92
3
 72
0
 73
1
 93
5
 10
585368121.4982167
 20
218117654.8244657
 10
585368411.7687722
 20
218117757.4819892
 10
585367340.326817
 20
218119440.9404493
 10
585367087.2385995
 20
218119279.8617291
 10
585367604.3684082
 20
218118467.3430974
 97
0
 75
1
 76
1
 98
0
  0
HATCH
  5
125
330
17
100
AcDbEntity
  8
HATCH_MAT_GRASS
 62
7
100
AcDbHatch
 10
0.0
 20
0.0
 30
0.0
210
0.0
220
0.0
230
1.0
  2
SOLID
 70
1
 71
0
 91
1
 92
3
 72
0
 73
1
 93
5
 10
585301975.5363362
 20
218189663.6813326
 10
585303326.6332349
 20
218188290.7369837
 10
585302836.8912177
 20
218187808.714898
 10
585302424.6437422
 20
218187496.6808632
 10
585301164.2046751
 20
218188777.3069707
 97
0
 75
1
 76
1
 98
0
  0
HATCH
  5
126
330
17
100
AcDbEntity
  8
HATCH_MAT_GRASS
 62
7
100
AcDbHatch
 10
0.0
 20
0.0
 30
0.0
210
0.0
220
0.0
230
1.0
  2
SOLID
 70
1
 71
0
 91
1
 92
3
 72
0
 73
1
 93
7
 10
585365578.7876486
 20
217988548.1121272
 10
585362589.5360901
 20
217991110.9779784
 10
585363175.333999
 20
217991794.2354774
 10
585361987.2251257
 20
217992812.8729522
 10
585361272.2090801
 20
217992274.649667
 10
585362426.881847
 20
217993621.426115
 10
585366750.3834662
 20
217989914.6271251
 97
0
 75
1
 76
1
 98
0
  0
HATCH
  5
127
330
17
100
AcDbEntity
  8
HATCH_MAT_GRASS
 62
7
100
AcDbHatch
 10
0.0
 20
0.0
 30
0.0
210
0.0
220
0.0
230
1.0
  2
SOLID
 70
1
 71
0
 91
1
 92
3
 72
0
 73
1
 93
4
 10
585425656.1770477
 20
217929917.1139617
 10
585426699.4941607
 20
217930773.8457763
 10
585424902.7904981
 20
217933080.0303306
 10
585423859.4733851
 20
217932223.298516
 97
0
 75
1
 76
1
 98
0
  0
HATCH
  5
128
330
17
100
AcDbEntity
  8
HATCH_MAT_GRASS
 62
7
100
AcDbHatch
 10
0.0
 20
0.0
 30
0.0
210
0.0
220
0.0
230
1.0
  2
SOLID
 70
1
 71
0
 91
1
 92
3
 72
0
 73
1
 93
4
 10
585418473.8033527
 20
217938781.8990185
 10
585419517.1204659
 20
217939638.6308332
 10
585421371.78619
 20
217937380.0424909
 10
585420328.4690768
 20
217936523.3106762
 97
0
 75
1
 76
1
 98
0
  0
HATCH
  5
129
330
17
100
AcDbEntity
  8
HATCH_MAT_GRASS
 62
7
100
AcDbHatch
 10
0.0
 20
0.0
 30
0.0
210
0.0
220
0.0
230
1.0
  2
SOLID
 70
1
 71
0
 91
1
 92
3
 72
0
 73
1
 93
11
 10
585412833.5850704
 20
217953142.6101235
 10
585411562.7442713
 20
217952426.7758776
 10
585411713.657531
 20
217952158.8552959
 10
585411190.8856645
 20
217951864.3903991
 10
585411541.2437948
 20
217951242.3896929
 10
585412081.98212
 20
217951091.3265813
 10
585412643.2382329
 20
217950094.9127171
 10
585412492.1751212
 20
217949554.174392
 10
585412986.876148
 20
217948675.917656
 10
585413343.1037914
 20
217948876.5721729
 10
585413944.2422171
 20
217951815.694085
 97
0
 75
1
 76
1
 98
0
  0
HATCH
  5
12A
330
17
100
AcDbEntity
  8
HATCH_MAT_GRASS
 62
7
100
AcDbHatch
 10
0.0
 20
0.0
 30
0.0
210
0.0
220
0.0
230
1.0
  2
SOLID
 70
1
 71
0
 91
1
 92
3
 72
0
 73
1
 93
8
 10
585229967.6704136
 20
218004630.4858188
 10
585231048.864281
 20
218004630.4858188
 10
585231445.864281
 20
218005027.4858188
 10
585232589.4765462
 20
218005027.4858188
 10
585232986.4765462
 20
218004630.4858188
 10
585234067.6704133
 20
218004630.4858181
 10
585234067.6704143
 20
218005530.485819
 10
585229967.6704154
 20
218005530.4858188
 97
0
 75
1
 76
1
 98
0
  0
HATCH
  5
12B
330
17
100
AcDbEntity
  8
HATCH_MAT_GRASS
 62
7
100
AcDbHatch
 10
0.0
 20
0.0
 30
0.0
210
0.0
220
0.0
230
1.0
  2
SOLID
 70
1
 71
0
 91
1
 92
3
 72
0
 73
1
 93
5
 10
585172599.5233486
 20
218133060.5596728
 10
585175457.8713486
 20
218135547.7071873
 10
585173608.7028573
 20
218137751.5993563
 10
585172147.7588879
 20
218136628.7558343
 10
585171949.2100098
 20
218133812.0274718
 97
0
 75
1
 76
1
 98
0
  0
HATCH
  5
12C
330
17
100
AcDbEntity
  8
HATCH_MAT_GRASS
 62
7
100
AcDbHatch
 10
0.0
 20
0.0
 30
0.0
210
0.0
220
0.0
230
1.0
  2
SOLID
 70
1
 71
0
 91
1
 92
3
 72
0
 73
1
 93
4
 10
585176163.0974388
 20
218139462.9011133
 10
585177797.720334
 20
218137586.2469432
 10
585180736.0991355
 20
218140146.6918436
 10
585179100.5155528
 20
218142024.0251528
 97
0
 75
1
 76
1
 98
0
  0
HATCH
  5
12D
330
17
100
AcDbEntity
  8
HATCH_MAT_GRASS
 62
7
100
AcDbHatch
 10
0.0
 20
0.0
 30
0.0
210
0.0
220
0.0
230
1.0
  2
SOLID
 70
1
 71
0
 91
1
 92
3
 72
0
 73
1
 93
4
 10
585193117.4641689
 20
218151978.3643932
 10
585193142.6031288
 20
218152421.5574241
 10
585188146.0754794
 20
218148850.408617
 10
585188808.5636196
 20
218148090.0004872
 97
0
 75
1
 76
1
 98
0
  0
HATCH
  5
12E
330
17
100
AcDbEntity
  8
HATCH_MAT_GRASS
 62
7
100
AcDbHatch
 10
0.0
 20
0.0
 30
0.0
210
0.0
220
0.0
230
1.0
  2
SOLID
 70
1
 71
0
 91
1
 92
3
 72
0
 73
1
 93
6
 10
585193142.6031288
 20
218152421.5574241
 10
585192610.9644867
 20
218152041.5814015
 10
585193117.465531
 20
218151978.3628297
 10
585196045.56043
 20
218148617.4767543
 10
585197675.8328762
 20
218150037.8142268
 10
585197242.9673992
 20
218150534.6599931
 97
0
 75
1
 76
1
 98
0
  0
HATCH
  5
12F
330
17
100
AcDbEntity
  8
HATCH_MAT_GRASS
 62
7
100
AcDbHatch
 10
0.0
 20
0.0
 30
0.0
210
0.0
220
0.0
230
1.0
  2
SOLID
 70
1
 71
0
 91
1
 92
3
 72
0
 73
1
 93
10
 10
585211300.4519145
 20
218053012.4864021
 10
585214501.7510028
 20
218049338.0148097
 10
585215358.6000962
 20
218049809.3935189
 10
585215214.9621755
 20
218050070.4914846
 10
585214919.2555867
 20
218049907.8143094
 10
585214302.5553966
 20
218051028.8216624
 10
585213763.3602726
 20
218051185.3036689
 10
585213212.1317902
 20
218052187.2997632
 10
585213368.6137968
 20
218052726.4948871
 10
585212767.3378185
 20
218053819.4648777
 97
0
 75
1
 76
1
 98
0
  0
HATCH
  5
130
330
17
100
AcDbEntity
  8
HATCH_MAT_GRASS
 62
7
100
AcDbHatch
 10
0.0
 20
0.0
 30
0.0
210
0.0
220
0.0
230
1.0
  2
SOLID
 70
1
 71
0
 91
1
 92
3
 72
0
 73
1
 93
12
 10
585208853.7728425
 20
218061093.8321672
 10
585207331.4315163
 20
218060256.3459601
 10
585205057.7828245
 20
218064428.6457976
 10
585205331.6507152
 20
218064607.8850875
 10
585205822.947196
 20
218064929.4256382
 10
585206216.7199324
 20
218065187.1394779
 10
585206817.9959164
 20
218064094.1694904
 10
585206661.5139099
 20
218063554.9743665
 10
585207212.7423924
 20
218062552.9782722
 10
585207751.9375163
 20
218062396.4962657
 10
585208368.6377064
 20
218061275.4889127
 10
585208664.3442953
 20
218061438.166088
 97
0
 75
1
 76
1
 98
0
  0
HATCH
  5
131
330
17
100
AcDbEntity
  8
HATCH_MAT_GRASS
 62
7
100
AcDbHatch
 10
0.0
 20
0.0
 30
0.0
210
0.0
220
0.0
230
1.0
  2
SOLID
 70
1
 71
0
 91
1
 92
3
 72
0
 73
1
 93
8
 10
585326012.6254783
 20
218059549.3070766
 10
585326603.4762138
 20
218058504.8286981
 10
585323063.6688341
 20
218056502.2671276
 10
585322472.7629386
 20
218057546.8430444
 10
585323437.151356
 20
218058092.3877082
 10
585323978.1652851
 20
218057942.3146304
 10
585324973.550143
 20
218058505.3936635
 10
585325123.6232208
 20
218059046.4075925
 97
0
 75
1
 76
1
 98
0
  0
HATCH
  5
132
330
17
100
AcDbEntity
  8
HATCH_MAT_GRASS
 62
7
100
AcDbHatch
 10
0.0
 20
0.0
 30
0.0
210
0.0
220
0.0
230
1.0
  2
SOLID
 70
1
 71
0
 91
1
 92
3
 72
0
 73
1
 93
4
 10
585518864.7698734
 20
218020483.7531484
 10
585517977.3152134
 20
218021288.3799556
 10
585514996.9262519
 20
218018006.1223693
 10
585515884.380912
 20
218017201.4955623
 97
0
 75
1
 76
1
 98
0
  0
HATCH
  5
133
330
17
100
AcDbEntity
  8
HATCH_MAT_GRASS
 62
7
100
AcDbHatch
 10
0.0
 20
0.0
 30
0.0
210
0.0
220
0.0
230
1.0
  2
SOLID
 70
1
 71
0
 91
1
 92
3
 72
0
 73
1
 93
4
 10
585514023.4769336
 20
218015145.6330688
 10
585513136.0222737
 20
218015950.259876
 10
585510158.8498538
 20
218012665.0859548
 10
585511046.3045138
 20
218011860.4591477
 97
0
 75
1
 76
1
 98
0
  0
HATCH
  5
134
330
17
100
AcDbEntity
  8
HATCH_MAT_GRASS
 62
7
100
AcDbHatch
 10
0.0
 20
0.0
 30
0.0
210
0.0
220
0.0
230
1.0
  2
SOLID
 70
1
 71
0
 91
1
 92
3
 72
0
 73
1
 93
4
 10
585506613.1540486
 20
218006970.9625527
 10
585505725.6993886
 20
218007775.5893599
 10
585502726.941747
 20
218004469.7008339
 10
585503614.396407
 20
218003665.0740268
 97
0
 75
1
 76
1
 98
0
  0
HATCH
  5
135
330
17
100
AcDbEntity
  8
HATCH_MAT_GRASS
 62
7
100
AcDbHatch
 10
0.0
 20
0.0
 30
0.0
210
0.0
220
0.0
230
1.0
  2
SOLID
 70
1
 71
0
 91
1
 92
3
 72
0
 73
1
 93
4
 10
585490863.4747946
 20
217989600.0197359
 10
585491704.0287106
 20
217990527.0998233
 10
585490813.8494734
 20
217991328.6776506
 10
585489931.9691592
 20
217990441.5035072
 97
0
 75
1
 76
1
 98
0
  0
HATCH
  5
136
330
17
100
AcDbEntity
  8
HATCH_MAT_GRASS
 62
7
100
AcDbHatch
 10
0.0
 20
0.0
 30
0.0
210
0.0
220
0.0
230
1.0
  2
SOLID
 70
1
 71
0
 91
1
 92
3
 72
0
 73
1
 93
5
 10
585142996.0272865
 20
218133868.3782522
 10
585144926.1616781
 20
218133328.6186077
 10
585142996.0272864
 20
218133868.3782522
 10
585142538.9842466
 20
218136482.6525383
 10
585146423.9610068
 20
218144621.0207149
 97
0
 75
1
 76
1
 98
0
  0
HATCH
  5
137
330
17
100
AcDbEntity
  8
HATCH_MAT_GRASS
 62
7
100
AcDbHatch
 10
0.0
 20
0.0
 30
0.0
210
0.0
220
0.0
230
1.0
  2
SOLID
 70
1
 71
0
 91
1
 92
3
 72
0
 73
1
 93
5
 10
585204461.0338699
 20
218181030.51366
 10
585203124.4515201
 20
218180077.77538
 10
585203041.6733398
 20
218180021.98482
 10
585204461.0338699
 20
218181030.51366
 10
585207870.42874
 20
218183460.7874
 97
0
 75
1
 76
1
 98
0
  0
HATCH
  5
138
330
17
100
AcDbEntity
  8
HATCH_MAT_GRASS
 62
7
100
AcDbHatch
 10
0.0
 20
0.0
 30
0.0
210
0.0
220
0.0
230
1.0
  2
SOLID
 70
1
 71
0
 91
1
 92
3
 72
0
 73
1
 93
7
 10
585293891.4179
 20
218279713.66178
 10
585291021.67169
 20
218276448.1472101
 10
585293891.4179
 20
218279713.66178
 10
585294318.4172499
 20
218280199.54885
 10
585295018.7907499
 20
218280965.41645
 10
585294318.4172499
 20
218280199.54885
 10
585295018.7907499
 20
218280965.41645
 97
0
 75
1
 76
1
 98
0
  0
HATCH
  5
139
330
17
100
AcDbEntity
  8
HATCH_MAT_GRASS
 62
7
100
AcDbHatch
 10
0.0
 20
0.0
 30
0.0
210
0.0
220
0.0
230
1.0
  2
SOLID
 70
1
 71
0
 91
1
 92
3
 72
0
 73
1
 93
8
 10
585307343.9026401
 20
218294155.31347
 10
585303508.8457599
 20
218290137.7068
 10
585303192.06164
 20
218289805.84366
 10
585307343.9026401
 20
218294155.31347
 10
585307983.85213
 20
218294825.72474
 10
585308504.4795101
 20
218295352.11162
 10
585307983.85213
 20
218294825.72474
 10
585308504.4795101
 20
218295352.11162
 97
0
 75
1
 76
1
 98
0
  0
HATCH
  5
13A
330
17
100
AcDbEntity
  8
HATCH_MAT_GRASS
 62
7
100
AcDbHatch
 10
0.0
 20
0.0
 30
0.0
210
0.0
220
0.0
230
1.0
  2
SOLID
 70
1
 71
0
 91
1
 92
3
 72
0
 73
1
 93
7
 10
585363275.943
 20
218346083.7557301
 10
585360307.7402099
 20
218343501.55825
 10
585360150.1261399
 20
218343364.44139
 10
585360016.5441
 20
218343245.1908601
 10
585359716.5530599
 20
218342977.38473
 10
585363275.943
 20
218346083.75573
 10
585364597.14434
 20
218347128.2419
 97
0
 75
1
 76
1
 98
0
  0
HATCH
  5
13B
330
17
100
AcDbEntity
  8
HATCH_MAT_GRASS
 62
7
100
AcDbHatch
 10
0.0
 20
0.0
 30
0.0
210
0.0
220
0.0
230
1.0
  2
SOLID
 70
1
 71
0
 91
1
 92
3
 72
0
 73
1
 93
6
 10
585379536.3397
 20
218359129.54528
 10
585378741.4256
 20
218358500.57431
 10
585378656.32495
 20
218358431.20811
 10
585378243.71736
 20
218358094.88842
 10
585379536.3397
 20
218359129.54528
 10
585383373.5033399
 20
218362165.67771
 97
0
 75
1
 76
1
 98
0
  0
HATCH
  5
13C
330
17
100
AcDbEntity
  8
HATCH_MAT_GRASS
 62
7
100
AcDbHatch
 10
0.0
 20
0.0
 30
0.0
210
0.0
220
0.0
230
1.0
  2
SOLID
 70
1
 71
0
 91
1
 92
3
 72
0
 73
1
 93
11
 10
585395465.80679
 20
218371734.59314
 10
585393553.58176
 20
218370106.63569
 10
585393076.47142
 20
218369717.48257
 10
585392875.49896
 20
218369560.54421
 10
585395465.80679
 20
218371734.59314
 10
585395598.5318
 20
218371847.58752
 10
585395722.3523599
 20
218371953.00116
 10
585397463.53893
 20
218373435.34638
 10
585395598.5318
 20
218371847.58752
 10
585395722.3523599
 20
218371953.00116
 10
585397463.53893
 20
218373435.34638
 97
0
 75
1
 76
1
 98
0
  0
HATCH
  5
13D
330
17
100
AcDbEntity
  8
HATCH_MAT_GRASS
 62
7
100
AcDbHatch
 10
0.0
 20
0.0
 30
0.0
210
0.0
220
0.0
230
1.0
  2
SOLID
 70
1
 71
0
 91
1
 92
3
 72
0
 73
1
 93
4
 10
585177450.5755486
 20
218163132.803339
 10
585177611.4916021
 20
218162879.611665
 10
585178877.4499716
 20
218163684.1919322
 10
585178716.5339183
 20
218163937.3836061
 97
0
 75
1
 76
1
 98
0
  0
HATCH
  5
13E
330
17
100
AcDbEntity
  8
HATCH_MAT_GRASS
 62
7
100
AcDbHatch
 10
0.0
 20
0.0
 30
0.0
210
0.0
220
0.0
230
1.0
  2
SOLID
 70
1
 71
0
 91
1
 92
3
 72
0
 73
1
 93
4
 10
585177078.2272714
 20
218163718.670824
 10
585177239.1433249
 20
218163465.47915
 10
585178505.1016943
 20
218164270.0594172
 10
585178344.185641
 20
218164523.2510912
 97
0
 75
1
 76
1
 98
0
  0
HATCH
  5
13F
330
17
100
AcDbEntity
  8
HATCH_MAT_GRASS
 62
7
100
AcDbHatch
 10
0.0
 20
0.0
 30
0.0
210
0.0
220
0.0
230
1.0
  2
SOLID
 70
1
 71
0
 91
1
 92
3
 72
0
 73
1
 93
4
 10
585176695.8475744
 20
218164320.322141
 10
585176856.763628
 20
218164067.1304671
 10
585178122.7219975
 20
218164871.7107342
 10
585177961.805944
 20
218165124.9024082
 97
0
 75
1
 76
1
 98
0
  0
HATCH
  5
140
330
17
100
AcDbEntity
  8
HATCH_MAT_GRASS
 62
7
100
AcDbHatch
 10
0.0
 20
0.0
 30
0.0
210
0.0
220
0.0
230
1.0
  2
SOLID
 70
1
 71
0
 91
1
 92
3
 72
0
 73
1
 93
4
 10
585176347.684811
 20
218164868.1351835
 10
585176508.6008644
 20
218164614.9435096
 10
585177774.559234
 20
218165419.5237768
 10
585177613.6431806
 20
218165672.7154507
 97
0
 75
1
 76
1
 98
0
  0
HATCH
  5
141
330
17
100
AcDbEntity
  8
HATCH_MAT_GRASS
 62
7
100
AcDbHatch
 10
0.0
 20
0.0
 30
0.0
210
0.0
220
0.0
230
1.0
  2
SOLID
 70
1
 71
0
 91
1
 92
3
 72
0
 73
1
 93
4
 10
585175976.5151061
 20
218165452.1482563
 10
585176137.4311597
 20
218165198.9565824
 10
585177403.3895292
 20
218166003.5368496
 10
585177242.4734758
 20
218166256.7285235
 97
0
 75
1
 76
1
 98
0
  0
HATCH
  5
142
330
17
100
AcDbEntity
  8
HATCH_MAT_GRASS
 62
7
100
AcDbHatch
 10
0.0
 20
0.0
 30
0.0
210
0.0
220
0.0
230
1.0
  2
SOLID
 70
1
 71
0
 91
1
 92
3
 72
0
 73
1
 93
4
 10
585175599.7372733
 20
218166044.9853792
 10
585175760.6533269
 20
218165791.7937052
 10
585177026.6116964
 20
218166596.3739725
 10
585176865.695643
 20
218166849.5656464
 97
0
 75
1
 76
1
 98
0
  0
HATCH
  5
143
330
17
100
AcDbEntity
  8
HATCH_MAT_GRASS
 62
7
100
AcDbHatch
 10
0.0
 20
0.0
 30
0.0
210
0.0
220
0.0
230
1.0
  2
SOLID
 70
1
 71
0
 91
1
 92
3
 72
0
 73
1
 93
12
 10
585162772.4590734
 20
218152200.5684882
 10
585162574.1382577
 20
218152254.9406015
 10
585162352.8827292
 20
218152335.4294271
 10
585162168.4828433
 20
218152590.191877
 10
585162210.1233546
 20
218152778.263474
 10
585162224.7605946
 20
218153009.6418998
 10
585162474.6748111
 20
218153176.8785742
 10
585162733.9393799
 20
218153260.3656949
 10
585162972.6520385
 20
218153112.7538649
 10
585163095.8503174
 20
218152898.9062563
 10
585163193.8854647
 20
218152671.5135142
 10
585163048.7916259
 20
218152423.3815343
 97
0
 75
1
 76
1
 98
0
  0
HATCH
  5
144
330
17
100
AcDbEntity
  8
HATCH_MAT_GRASS
 62
7
100
AcDbHatch
 10
0.0
 20
0.0
 30
0.0
210
0.0
220
0.0
230
1.0
  2
SOLID
 70
1
 71
0
 91
1
 92
3
 72
0
 73
1
 93
12
 10
585162037.8841258
 20
218153479.7243252
 10
585162056.3814552
 20
218153799.5769113
 10
585161972.5567099
 20
218153930.4559871
 10
585161942.4911059
 20
218154136.9776944
 10
585161986.8640224
 20
218154265.8879604
 10
585162335.6587642
 20
218154385.9895667
 10
585162662.8430722
 20
218154215.681592
 10
585162783.2215137
 20
218154069.0742296
 10
585162843.1814466
 20
218153834.9695611
 10
585162734.8313864
 20
218153716.3860138
 10
585162605.3747191
 20
218153461.6554071
 10
585162227.7522504
 20
218153353.65982
 97
0
 75
1
 76
1
 98
0
  0
HATCH
  5
145
330
17
100
AcDbEntity
  8
HATCH_MAT_GRASS
 62
7
100
AcDbHatch
 10
0.0
 20
0.0
 30
0.0
210
0.0
220
0.0
230
1.0
  2
SOLID
 70
1
 71
0
 91
1
 92
3
 72
0
 73
1
 93
12
 10
585160878.5481869
 20
218154618.2588191
 10
585160900.159243
 20
218154793.282839
 10
585160941.0966561
 20
218154991.000043
 10
585161134.4845918
 20
218155178.9966197
 10
585161299.2361703
 20
218155166.9221232
 10
585161497.3987254
 20
218155183.1196979
 10
585161670.2306035
 20
218154991.7231602
 10
585161773.1475725
 20
218154782.0328226
 10
585161677.4075726
 20
218154561.1987791
 10
585161511.1707634
 20
218154430.1997617
 10
585161330.3268918
 20
218154318.8792646
 10
585161101.810883
 20
218154411.3173814
 97
0
 75
1
 76
1
 98
0
  0
HATCH
  5
146
330
17
100
AcDbEntity
  8
HATCH_MAT_GRASS
 62
7
100
AcDbHatch
 10
0.0
 20
0.0
 30
0.0
210
0.0
220
0.0
230
1.0
  2
SOLID
 70
1
 71
0
 91
1
 92
3
 72
0
 73
1
 93
12
 10
585160755.7494586
 20
218153360.8309675
 10
585160780.949343
 20
218153564.9202579
 10
585160828.685006
 20
218153795.4712641
 10
585161054.1878062
 20
218154014.6873923
 10
585161246.2987677
 20
218154000.6077509
 10
585161477.3690822
 20
218154019.495167
 10
585161678.9021941
 20
218153796.3144654
 10
585161798.9100146
 20
218153551.8020137
 10
585161687.2710027
 20
218153294.2952823
 10
585161493.4281665
 20
218153141.5419827
 10
585161282.5525535
 20
218153011.7351067
 10
585161016.0881554
 20
218153119.5239101
 97
0
 75
1
 76
1
 98
0
  0
HATCH
  5
147
330
17
100
AcDbEntity
  8
HATCH_MAT_GRASS
 62
7
100
AcDbHatch
 10
0.0
 20
0.0
 30
0.0
210
0.0
220
0.0
230
1.0
  2
SOLID
 70
1
 71
0
 91
1
 92
3
 72
0
 73
1
 93
12
 10
585160642.0942148
 20
218154018.1059596
 10
585160322.0034772
 20
218154004.3310594
 10
585160200.2214952
 20
218153907.7646611
 10
585159997.7722757
 20
218153857.0747248
 10
585159865.051943
 20
218153888.2536563
 10
585159710.4695886
 20
218154223.1961342
 10
585159846.9975336
 20
218154565.8541237
 10
585159980.7505654
 20
218154700.3710909
 10
585160207.635323
 20
218154783.5786395
 10
585160336.5176721
 20
218154687.7082412
 10
585160602.9797525
 20
218154584.5352297
 10
585160748.4176857
 20
218154219.693369
 97
0
 75
1
 76
1
 98
0
  0
HATCH
  5
148
330
17
100
AcDbEntity
  8
HATCH_MAT_GRASS
 62
7
100
AcDbHatch
 10
0.0
 20
0.0
 30
0.0
210
0.0
220
0.0
230
1.0
  2
SOLID
 70
1
 71
0
 91
1
 92
3
 72
0
 73
1
 93
12
 10
585163755.8100994
 20
218153557.8964701
 10
585163858.4640604
 20
218153327.0133216
 10
585163964.5298085
 20
218153265.5759637
 10
585164060.256831
 20
218153131.6851144
 10
585164075.7523052
 20
218153025.2872287
 10
585163874.6828691
 20
218152815.0220961
 10
585163583.7845418
 20
218152816.1277118
 10
585163446.4115067
 20
218152875.3762908
 10
585163319.7598041
 20
218153017.7949614
 10
585163352.8412054
 20
218153140.0807419
 10
585163351.5029593
 20
218153365.4267085
 10
585163577.1548913
 20
218153577.6268422
 97
0
 75
1
 76
1
 98
0
  0
HATCH
  5
149
330
17
100
AcDbEntity
  8
HATCH_MAT_GRASS
 62
7
100
AcDbHatch
 10
0.0
 20
0.0
 30
0.0
210
0.0
220
0.0
230
1.0
  2
SOLID
 70
1
 71
0
 91
1
 92
3
 72
0
 73
1
 93
12
 10
585316583.5057398
 20
218305021.0775005
 10
585316484.7914786
 20
218305201.4741947
 10
585316388.9204915
 20
218305416.5118979
 10
585316443.9815248
 20
218305726.1495997
 10
585316608.1607449
 20
218305826.8970139
 10
585316784.7174824
 20
218305977.1565997
 10
585317078.6439936
 20
218305913.6552061
 10
585317318.8433915
 20
218305785.2322128
 10
585317378.5769083
 20
218305510.9971081
 10
585317310.4088172
 20
218305273.8015621
 10
585317215.0144517
 20
218305045.2884021
 10
585316935.7556263
 20
218304977.1986825
 97
0
 75
1
 76
1
 98
0
  0
HATCH
  5
14A
330
17
100
AcDbEntity
  8
HATCH_MAT_GRASS
 62
7
100
AcDbHatch
 10
0.0
 20
0.0
 30
0.0
210
0.0
220
0.0
230
1.0
  2
SOLID
 70
1
 71
0
 91
1
 92
3
 72
0
 73
1
 93
12
 10
585316992.8951209
 20
218306438.2014696
 10
585317235.7564182
 20
218306647.1661035
 10
585317271.6221957
 20
218306798.3929743
 10
585317399.240264
 20
218306963.525602
 10
585317522.7750518
 20
218307021.1968136
 10
585317851.5187767
 20
218306853.8357331
 10
585317956.4105026
 20
218306500.2086648
 10
585317934.6356723
 20
218306311.7662475
 10
585317807.9561933
 20
218306105.9690198
 10
585317647.3895621
 20
218306101.480123
 10
585317374.2519329
 20
218306017.5602433
 10
585317034.181262
 20
218306214.06397
 97
0
 75
1
 76
1
 98
0
  0
HATCH
  5
14B
330
17
100
AcDbEntity
  8
HATCH_MAT_GRASS
 62
7
100
AcDbHatch
 10
0.0
 20
0.0
 30
0.0
210
0.0
220
0.0
230
1.0
  2
SOLID
 70
1
 71
0
 91
1
 92
3
 72
0
 73
1
 93
12
 10
585316016.4406267
 20
218307277.5712074
 10
585316180.7136225
 20
218307401.2718765
 10
585316379.6755135
 20
218307527.1552584
 10
585316694.0171516
 20
218307517.3288447
 10
585316817.3906761
 20
218307369.3969979
 10
585316991.5438896
 20
218307216.3581698
 10
585316971.0993475
 20
218306916.3461008
 10
585316878.6629705
 20
218306660.1357726
 10
585316615.9105388
 20
218306561.4740007
 10
585316371.3631943
 20
218306594.7187298
 10
585316131.4806211
 20
218306656.1573191
 10
585316023.8254474
 20
218306922.6757333
 97
0
 75
1
 76
1
 98
0
  0
HATCH
  5
14C
330
17
100
AcDbEntity
  8
HATCH_MAT_GRASS
 62
7
100
AcDbHatch
 10
0.0
 20
0.0
 30
0.0
210
0.0
220
0.0
230
1.0
  2
SOLID
 70
1
 71
0
 91
1
 92
3
 72
0
 73
1
 93
12
 10
585317005.9958535
 20
218308063.0549965
 10
585317146.8739955
 20
218308169.1388989
 10
585317317.5008322
 20
218308277.0946642
 10
585317587.0756685
 20
218308268.667674
 10
585317692.8790164
 20
218308141.8034648
 10
585317842.23029
 20
218308010.5595821
 10
585317824.6973467
 20
218307753.2735766
 10
585317745.4252487
 20
218307533.5513095
 10
585317520.0925684
 20
218307448.9404029
 10
585317310.3723074
 20
218307477.4506011
 10
585317104.6524864
 20
218307530.1394453
 10
585317012.3289689
 20
218307758.7017777
 97
0
 75
1
 76
1
 98
0
  0
HATCH
  5
14D
330
17
100
AcDbEntity
  8
HATCH_MAT_GRASS
 62
7
100
AcDbHatch
 10
0.0
 20
0.0
 30
0.0
210
0.0
220
0.0
230
1.0
  2
SOLID
 70
1
 71
0
 91
1
 92
3
 72
0
 73
1
 93
4
 10
585347909.0899704
 20
218337867.7735951
 10
585347909.0899704
 20
218332244.1439489
 10
585348409.0857347
 20
218332242.0858527
 10
585348409.0857347
 20
218337865.7154989
 97
0
 75
1
 76
1
 98
0
  0
HATCH
  5
14E
330
17
100
AcDbEntity
  8
HATCH_MAT_GRASS
 62
7
100
AcDbHatch
 10
0.0
 20
0.0
 30
0.0
210
0.0
220
0.0
230
1.0
  2
SOLID
 70
1
 71
0
 91
1
 92
3
 72
0
 73
1
 93
4
 10
585348332.79753
 20
218338371.1098106
 10
585349706.5221007
 20
218333790.1163012
 10
585350185.4517418
 20
218333933.7352377
 10
585348811.7271711
 20
218338514.7287471
 97
0
 75
1
 76
1
 98
0
  0
HATCH
  5
14F
330
17
100
AcDbEntity
  8
HATCH_MAT_GRASS
 62
7
100
AcDbHatch
 10
0.0
 20
0.0
 30
0.0
210
0.0
220
0.0
230
1.0
  2
SOLID
 70
1
 71
0
 91
1
 92
3
 72
0
 73
1
 93
12
 10
585378036.1696562
 20
218358650.6562347
 10
585378351.7849033
 20
218358595.5668178
 10
585378491.4207538
 20
218358663.8145264
 10
585378700.0285083
 20
218358669.9757679
 10
585378822.9933656
 20
218358611.0991484
 10
585378902.26466
 20
218358250.8239346
 10
585378695.5264422
 20
218357945.3510439
 10
585378536.07044
 20
218357842.5966217
 10
585378296.6306115
 20
218357809.9047594
 10
585378191.2678472
 20
218357931.1502999
 10
585377953.0806369
 20
218358088.9906097
 10
585377889.1443418
 20
218358476.513417
 97
0
 75
1
 76
1
 98
0
  0
HATCH
  5
150
330
17
100
AcDbEntity
  8
HATCH_MAT_GRASS
 62
7
100
AcDbHatch
 10
0.0
 20
0.0
 30
0.0
210
0.0
220
0.0
230
1.0
  2
SOLID
 70
1
 71
0
 91
1
 92
3
 72
0
 73
1
 93
12
 10
585377676.6830453
 20
218358115.0600134
 10
585377618.0933678
 20
218357948.7239229
 10
585377535.7660973
 20
218357764.3596501
 10
585377306.6063507
 20
218357622.1365258
 10
585377148.262233
 20
218357669.2111088
 10
585376951.2279564
 20
218357695.8241425
 10
585376823.3913076
 20
218357919.7912917
 10
585376767.76519
 20
218358146.6561749
 10
585376908.5740492
 20
218358341.8655176
 10
585377099.0069503
 20
218358434.2274661
 10
585377299.4940763
 20
218358504.2394032
 10
585377502.9142534
 20
218358365.0108028
 97
0
 75
1
 76
1
 98
0
  0
HATCH
  5
151
330
17
100
AcDbEntity
  8
HATCH_MAT_GRASS
 62
7
100
AcDbHatch
 10
0.0
 20
0.0
 30
0.0
210
0.0
220
0.0
230
1.0
  2
SOLID
 70
1
 71
0
 91
1
 92
3
 72
0
 73
1
 93
12
 10
585378065.9009033
 20
218359317.0224873
 10
585377997.5815624
 20
218359123.0638827
 10
585377901.5826576
 20
218358908.0832551
 10
585377634.3676198
 20
218358742.2419233
 10
585377449.7281702
 20
218358797.1339219
 10
585377219.9735014
 20
218358828.1664349
 10
585377070.9077277
 20
218359089.3265695
 10
585377006.0440885
 20
218359353.8656486
 10
585377170.2362959
 20
218359581.4923269
 10
585377392.2933352
 20
218359689.1923131
 10
585377626.0742488
 20
218359770.8307452
 10
585377863.2752897
 20
218359608.4812215
 97
0
 75
1
 76
1
 98
0
  0
HATCH
  5
152
330
17
100
AcDbEntity
  8
HATCH_MAT_GRASS
 62
7
100
AcDbHatch
 10
0.0
 20
0.0
 30
0.0
210
0.0
220
0.0
230
1.0
  2
SOLID
 70
1
 71
0
 91
1
 92
3
 72
0
 73
1
 93
12
 10
585376788.0483927
 20
218359475.4456454
 10
585376701.486376
 20
218359166.9738553
 10
585376755.3399378
 20
218359021.1804592
 10
585376740.4831883
 20
218358813.0112177
 10
585376669.534544
 20
218358696.5934258
 10
585376303.1121686
 20
218358653.9693634
 10
585376019.9877235
 20
218358890.3904415
 10
585375933.7964983
 20
218359059.3749395
 10
585375925.3590516
 20
218359300.8889119
 10
585376056.5893553
 20
218359393.5193637
 10
585376237.591411
 20
218359614.6188131
 10
585376629.5803816
 20
218359639.2444659
 97
0
 75
1
 76
1
 98
0
  0
HATCH
  5
153
330
17
100
AcDbEntity
  8
HATCH_MAT_GRASS
 62
7
100
AcDbHatch
 10
0.0
 20
0.0
 30
0.0
210
0.0
220
0.0
230
1.0
  2
SOLID
 70
1
 71
0
 91
1
 92
3
 72
0
 73
1
 93
12
 10
585376344.4342775
 20
218360882.2315303
 10
585376526.5112301
 20
218360786.6519511
 10
585376725.3981932
 20
218360660.6502212
 10
585376850.9652176
 20
218360372.3098907
 10
585376770.0166858
 20
218360197.5180344
 10
585376706.1712217
 20
218359974.6414286
 10
585376426.2420175
 20
218359864.8012651
 10
585376155.1136369
 20
218359838.7701839
 10
585375953.5483384
 20
218360034.0761391
 10
585375879.0016294
 20
218360269.3449297
 10
585375831.9349108
 20
218360512.456166
 10
585376026.7983551
 20
218360723.7614891
 97
0
 75
1
 76
1
 98
0
  0
HATCH
  5
154
330
17
100
AcDbEntity
  8
HATCH_MAT_GRASS
 62
7
100
AcDbHatch
 10
0.0
 20
0.0
 30
0.0
210
0.0
220
0.0
230
1.0
  2
SOLID
 70
1
 71
0
 91
1
 92
3
 72
0
 73
1
 93
12
 10
585375093.2339083
 20
218359766.9664823
 10
585375042.402962
 20
218360014.4762373
 10
585374951.9539633
 20
218360097.2015085
 10
585374887.1191726
 20
218360248.4855865
 10
585374894.7673773
 20
218360355.7335457
 10
585375136.1990598
 20
218360518.0637241
 10
585375420.1125456
 20
218360454.6902929
 10
585375541.6112928
 20
218360367.3988308
 10
585375634.8272296
 20
218360201.1624912
 10
585375576.3267453
 20
218360088.7975296
 10
585375529.3779788
 20
218359868.3924279
 10
585375263.5196856
 20
218359709.436273
 97
0
 75
1
 76
1
 98
0
  0
ENDSEC
  0
SECTION
  2
OBJECTS
  0
DICTIONARY
  5
A
330
0
100
AcDbDictionary
281
1
  3
ACAD_COLOR
350
B
  3
ACAD_GROUP
350
C
  3
ACAD_LAYOUT
350
D
  3
ACAD_MATERIAL
350
E
  3
ACAD_MLEADERSTYLE
350
F
  3
ACAD_MLINESTYLE
350
10
  3
ACAD_PLOTSETTINGS
350
11
  3
ACAD_PLOTSTYLENAME
350
12
  3
ACAD_SCALELIST
350
14
  3
ACAD_TABLESTYLE
350
15
  3
ACAD_VISUALSTYLE
350
16
  3
EZDXF_META
350
2D
  0
DICTIONARY
  5
B
330
A
100
AcDbDictionary
281
1
  0
DICTIONARY
  5
C
330
A
100
AcDbDictionary
281
1
  0
DICTIONARY
  5
D
330
A
100
AcDbDictionary
281
1
  3
Model
350
1A
  3
Layout1
350
1E
  0
DICTIONARY
  5
E
330
A
100
AcDbDictionary
281
1
  3
ByBlock
350
1F
  3
ByLayer
350
20
  3
Global
350
21
  0
DICTIONARY
  5
F
330
A
100
AcDbDictionary
281
1
  3
Standard
350
2C
  0
DICTIONARY
  5
10
330
A
100
AcDbDictionary
281
1
  3
Standard
350
22
  0
DICTIONARY
  5
11
330
A
100
AcDbDictionary
281
1
  0
ACDBDICTIONARYWDFLT
  5
12
330
A
100
AcDbDictionary
281
1
  3
Normal
350
13
100
AcDbDictionaryWithDefault
340
13
  0
ACDBPLACEHOLDER
  5
13
330
12
  0
DICTIONARY
  5
14
330
A
100
AcDbDictionary
281
1
  0
DICTIONARY
  5
15
330
A
100
AcDbDictionary
281
1
  0
DICTIONARY
  5
16
330
A
100
AcDbDictionary
281
1
  0
LAYOUT
  5
1A
330
D
100
AcDbPlotSettings
  1

  4
A3
  6

 40
7.5
 41
20.0
 42
7.5
 43
20.0
 44
420.0
 45
297.0
 46
0.0
 47
0.0
 48
0.0
 49
0.0
140
0.0
141
0.0
142
1.0
143
1.0
 70
1024
 72
1
 73
0
 74
5
  7

 75
16
 76
0
 77
2
 78
300
147
1.0
148
0.0
149
0.0
100
AcDbLayout
  1
Model
 70
1
 71
0
 10
0.0
 20
0.0
 11
420.0
 21
297.0
 12
0.0
 22
0.0
 32
0.0
 14
1e+20
 24
1e+20
 34
1e+20
 15
-1e+20
 25
-1e+20
 35
-1e+20
146
0.0
 13
0.0
 23
0.0
 33
0.0
 16
1.0
 26
0.0
 36
0.0
 17
0.0
 27
1.0
 37
0.0
 76
1
330
17
  0
LAYOUT
  5
1E
330
D
100
AcDbPlotSettings
  1

  4
A3
  6

 40
7.5
 41
20.0
 42
7.5
 43
20.0
 44
420.0
 45
297.0
 46
0.0
 47
0.0
 48
0.0
 49
0.0
140
0.0
141
0.0
142
1.0
143
1.0
 70
0
 72
1
 73
0
 74
5
  7

 75
16
 76
0
 77
2
 78
300
147
1.0
148
0.0
149
0.0
100
AcDbLayout
  1
Layout1
 70
1
 71
1
 10
0.0
 20
0.0
 11
420.0
 21
297.0
 12
0.0
 22
0.0
 32
0.0
 14
1e+20
 24
1e+20
 34
1e+20
 15
-1e+20
 25
-1e+20
 35
-1e+20
146
0.0
 13
0.0
 23
0.0
 33
0.0
 16
1.0
 26
0.0
 36
0.0
 17
0.0
 27
1.0
 37
0.0
 76
1
330
1B
  0
MATERIAL
  5
1F
102
{ACAD_REACTORS
330
E
102
}
330
E
100
AcDbMaterial
  1
ByBlock
  2

 70
0
 40
1.0
 71
1
 41
1.0
 91
-1023410177
 42
1.0
 72
1
  3

 73
1
 74
1
 75
1
 44
0.5
 73
0
 45
1.0
 46
1.0
 77
1
  4

 78
1
 79
1
170
1
 48
1.0
171
1
  6

172
1
173
1
174
1
140
1.0
141
1.0
175
1
  7

176
1
177
1
178
1
143
1.0
179
1
  8

270
1
271
1
272
1
145
1.0
146
1.0
273
1
  9

274
1
275
1
276
1
 42
1.0
 72
1
  3

 73
1
 74
1
 75
1
 94
63
  0
MATERIAL
  5
20
102
{ACAD_REACTORS
330
E
102
}
330
E
100
AcDbMaterial
  1
ByLayer
  2

 70
0
 40
1.0
 71
1
 41
1.0
 91
-1023410177
 42
1.0
 72
1
  3

 73
1
 74
1
 75
1
 44
0.5
 73
0
 45
1.0
 46
1.0
 77
1
  4

 78
1
 79
1
170
1
 48
1.0
171
1
  6

172
1
173
1
174
1
140
1.0
141
1.0
175
1
  7

176
1
177
1
178
1
143
1.0
179
1
  8

270
1
271
1
272
1
145
1.0
146
1.0
273
1
  9

274
1
275
1
276
1
 42
1.0
 72
1
  3

 73
1
 74
1
 75
1
 94
63
  0
MATERIAL
  5
21
102
{ACAD_REACTORS
330
E
102
}
330
E
100
AcDbMaterial
  1
Global
  2

 70
0
 40
1.0
 71
1
 41
1.0
 91
-1023410177
 42
1.0
 72
1
  3

 73
1
 74
1
 75
1
 44
0.5
 73
0
 45
1.0
 46
1.0
 77
1
  4

 78
1
 79
1
170
1
 48
1.0
171
1
  6

172
1
173
1
174
1
140
1.0
141
1.0
175
1
  7

176
1
177
1
178
1
143
1.0
179
1
  8

270
1
271
1
272
1
145
1.0
146
1.0
273
1
  9

274
1
275
1
276
1
 42
1.0
 72
1
  3

 73
1
 74
1
 75
1
 94
63
  0
MLINESTYLE
  5
22
102
{ACAD_REACTORS
330
10
102
}
330
10
100
AcDbMlineStyle
  2
Standard
 70
0
  3

 62
256
 51
90.0
 52
90.0
 71
2
 49
0.5
 62
256
  6
BYLAYER
 49
-0.5
 62
256
  6
BYLAYER
  0
MLEADERSTYLE
  5
2C
102
{ACAD_REACTORS
330
F
102
}
330
F
100
AcDbMLeaderStyle
179
2
170
2
171
1
172
0
 90
2
 40
0.0
 41
0.0
173
1
 91
-1056964608
 92
-2
290
1
 42
2.0
291
1
 43
8.0
  3
Standard
 44
4.0
300

342
29
174
1
175
1
176
0
178
1
 93
-1056964608
 45
4.0
292
0
297
0
 46
4.0
 94
-1056964608
 47
1.0
 49
1.0
140
1.0
294
1
141
0.0
177
0
142
1.0
295
0
296
0
143
3.75
271
0
272
9
273
9
  0
DICTIONARY
  5
2D
330
A
100
AcDbDictionary
280
1
281
1
  3
CREATED_BY_EZDXF
350
2E
  3
WRITTEN_BY_EZDXF
350
157
  0
DICTIONARYVAR
  5
2E
330
2D
100
DictionaryVariables
280
0
  1
1.4.3 @ 2026-03-12T07:13:08.138403+00:00
  0
DICTIONARYVAR
  5
157
330
2D
100
DictionaryVariables
280
0
  1
1.4.3 @ 2026-03-12T07:13:08.195466+00:00
  0
ENDSEC
  0
EOF
